<svg viewBox="-466 -466 932 932" style="display: block; margin: 0px; cursor: pointer;" xmlns="http://www.w3.org/2000/svg" xmlns:xlink="http://www.w3.org/1999/xlink"><g><circle fill="rgb(116, 215, 202)" transform="translate(-156.36396409033068,38.86005387333046)" r="302.25326424649194"/><circle fill="rgb(116, 215, 202)" transform="translate(295.52254310244246,38.86005387333046)" r="147.00693747112237"/><circle fill="rgb(116, 215, 202)" transform="translate(187.91299120137091,283.01705337618864)" r="117.1859019189029"/><circle fill="rgb(116, 215, 202)" transform="translate(184.5570199912562,-193.00565158088108)" r="107.41743821429921"/><circle fill="rgb(116, 215, 202)" transform="translate(18.6548672762587,-336.6083870496879)" r="109.37656054329634"/><circle fill="rgb(116, 215, 202)" transform="translate(22.885796433702012,358.64974902729045)" r="61.72092915224021"/><circle fill="rgb(116, 215, 202)" transform="translate(359.4683267692509,-167.78219128901185)" r="66.67690645613554"/><circle fill="rgb(116, 215, 202)" transform="translate(-92.99901859470805,395.3677423633344)" r="57.21551208718693"/><circle fill="rgb(116, 215, 202)" transform="translate(-147.10701546641354,-320.44544285890504)" r="54.54515268879268"/><circle fill="rgb(116, 215, 202)" transform="translate(304.8309348504715,207.5713798790323)" r="19.334676137599864"/><circle fill="rgb(81, 183, 196)" transform="translate(-282.9419844191912,43.97616454270212)" r="172.94558753327505"/><circle fill="rgb(81, 183, 196)" transform="translate(17.908911439557755,43.97616454270212)" r="125.27900285031508"/><circle fill="rgb(81, 183, 196)" transform="translate(-96.59717209016463,211.4464813827277)" r="74.96891425545017"/><circle fill="rgb(81, 183, 196)" transform="translate(-97.65735939846252,-114.5549664588043)" r="68.27746984841026"/><circle fill="rgb(81, 183, 196)" transform="translate(-213.6064275731021,-187.53929884899617)" r="66.1031558332495"/><circle fill="white" pointer-events="none" transform="translate(-204.52074158289918,237.77648585375505)" r="33.49378056868895"/><circle fill="rgb(81, 183, 196)" transform="translate(5.887889687692905,-116.13198727239455)" r="32.65348228284142"/><circle fill="white" pointer-events="none" transform="translate(261.95193115937775,48.056284576208554)" r="38.65131157016404"/><circle fill="white" pointer-events="none" transform="translate(339.23909427599096,48.056284576208554)" r="36.00954607129031"/><circle fill="white" pointer-events="none" transform="translate(303.14577024137805,111.84162132266988)" r="34.65328287146467"/><circle fill="white" pointer-events="none" transform="translate(302.9587318005541,-9.240335131630673)" r="29.181309491844374"/><circle fill="rgb(81, 183, 196)" transform="translate(235.0720127663419,-26.879453881598693)" r="38.333279891171706"/><circle fill="white" pointer-events="none" transform="translate(238.56405986607592,112.5286767674113)" r="27.305776560478723"/><circle fill="rgb(81, 183, 196)" transform="translate(371.9493343789451,-21.549191519927263)" r="38.27241920619909"/><circle fill="white" pointer-events="none" transform="translate(366.27036053910354,106.81745261855383)" r="26.04462638536601"/><circle fill="rgb(81, 183, 196)" transform="translate(186.81143626535004,32.39570532522907)" r="35.47749819396013"/><circle fill="white" pointer-events="none" transform="translate(188.21494747320185,94.15005231586929)" r="23.66649029125458"/><circle fill="white" pointer-events="none" transform="translate(398.85848634705667,65.93877964074522)" r="23.607666514925217"/><circle fill="white" pointer-events="none" transform="translate(417.0850935174843,21.699584293595592)" r="21.612821151236794"/><circle fill="white" pointer-events="none" transform="translate(287.62578920786314,-59.86559468815557)" r="21.088661213048237"/><circle fill="white" pointer-events="none" transform="translate(330.4161709157397,-65.28763075217284)" r="19.41756444300859"/><circle fill="white" pointer-events="none" transform="translate(265.9523790057077,145.0098500728369)" r="12.554935329569595"/><circle fill="white" pointer-events="none" transform="translate(342.8259493943285,137.62079521624355)" r="10.03935526209791"/><circle fill="white" pointer-events="none" transform="translate(287.0582534322456,153.8451166893242)" r="7.699315820782252"/><circle fill="white" pointer-events="none" transform="translate(327.46726136874815,146.54351725471304)" r="5.096779028802864"/><circle fill="white" pointer-events="none" transform="translate(398.21357089249614,96.93275372766993)" r="4.766710996658293"/><circle fill="rgb(81, 183, 196)" transform="translate(140.21635315644858,291.29264210858196)" r="56.7212834912006"/><circle fill="white" pointer-events="none" transform="translate(236.37173802685254,291.29264210858196)" r="36.807795904044454"/><circle fill="white" pointer-events="none" transform="translate(205.55706209244886,357.9115471040127)" r="33.966326110917876"/><circle fill="white" pointer-events="none" transform="translate(203.6962774082308,235.78003050876532)" r="24.981236648871963"/><circle fill="white" pointer-events="none" transform="translate(160.90484427853266,214.49989656770106)" r="20.183156237084052"/><circle fill="white" pointer-events="none" transform="translate(150.34446686684237,369.89609772884467)" r="19.90568808120034"/><circle fill="white" pointer-events="none" transform="translate(250.75293344737418,234.1639979569876)" r="19.4768548541047"/><circle fill="white" pointer-events="none" transform="translate(260.04352926561387,345.1259196745433)" r="19.373852793215725"/><circle fill="white" pointer-events="none" transform="translate(119.38713418332964,216.03772304010408)" r="18.736719361455645"/><circle fill="white" pointer-events="none" transform="translate(121.96845692947886,356.8480682853027)" r="8.700185559496518"/><circle fill="white" pointer-events="none" transform="translate(189.7511120664484,202.57951881488748)" r="8.40275658543525"/><circle fill="white" pointer-events="none" transform="translate(173.69230731396146,385.44304262763)" r="5.518481470456283"/><circle fill="rgb(81, 183, 196)" transform="translate(151.3024097005789,-195.0385100797315)" r="48.34740927286467"/><circle fill="white" pointer-events="none" transform="translate(232.9763326569398,-195.0385100797315)" r="30.700208208337394"/><circle fill="white" pointer-events="none" transform="translate(205.27709741897536,-151.0538441904405)" r="18.653275332626738"/><circle fill="white" pointer-events="none" transform="translate(205.26647712610725,-238.95837954096183)" r="18.604123006526443"/><circle fill="white" pointer-events="none" transform="translate(173.0988640826355,-259.16837907848367)" r="16.759035981783647"/><circle fill="white" pointer-events="none" transform="translate(173.03583582429712,-130.91077139429774)" r="16.736762136889908"/><circle fill="white" pointer-events="none" transform="translate(242.4412148146107,-243.69833039571515)" r="16.24527373074186"/><circle fill="white" pointer-events="none" transform="translate(242.23879881531536,-146.64650304243366)" r="15.943960481392159"/><circle fill="white" pointer-events="none" transform="translate(137.94482333510962,-260.4546025980941)" r="15.792221730707508"/><circle fill="white" pointer-events="none" transform="translate(138.02958925442329,-129.73718206901844)" r="15.662845806664686"/><circle fill="white" pointer-events="none" transform="translate(203.441891948209,-274.96673077317854)" r="14.824120045984401"/><circle fill="white" pointer-events="none" transform="translate(202.81604316811297,-115.85236615890648)" r="14.007822661869977"/><circle fill="white" pointer-events="none" transform="translate(233.06259012269538,-115.79969859315628)" r="13.612464671885034"/><circle fill="white" pointer-events="none" transform="translate(232.56367213755084,-272.693571302708)" r="11.75993797153748"/><circle fill="white" pointer-events="none" transform="translate(265.85935633613246,-164.89789839888573)" r="11.2800970236835"/><circle fill="white" pointer-events="none" transform="translate(264.98997192174363,-224.9249457860337)" r="10.469286779606643"/><circle fill="white" pointer-events="none" transform="translate(114.39903765880615,-146.00177528025847)" r="10.397778861366096"/><circle fill="white" pointer-events="none" transform="translate(114.47231583471239,-243.96607573290933)" r="10.266488508616451"/><circle fill="white" pointer-events="none" transform="translate(155.4051395362111,-108.59858492416276)" r="9.074145976501079"/><circle fill="white" pointer-events="none" transform="translate(155.54186176203132,-281.12966196959644)" r="8.731313335354269"/><circle fill="white" pointer-events="none" transform="translate(180.53020878928055,-103.92760567333937)" r="8.64151877059539"/><circle fill="white" pointer-events="none" transform="translate(180.12194675710361,-285.9957360666142)" r="8.346062640596715"/><circle fill="white" pointer-events="none" transform="translate(101.71685715119213,-162.9091793235242)" r="8.111147242758637"/><circle fill="white" pointer-events="none" transform="translate(101.97555019013316,-227.2789814981368)" r="7.954946075418545"/><circle fill="white" pointer-events="none" transform="translate(272.71317136732546,-205.53718809791013)" r="7.773834135282476"/><circle fill="white" pointer-events="none" transform="translate(272.6765755530222,-185.25466732422683)" r="7.5615391568186325"/><circle fill="white" pointer-events="none" transform="translate(94.86960430355884,-210.5856778194322)" r="7.5615391568186325"/><circle fill="white" pointer-events="none" transform="translate(95.05831648451021,-179.6991179726811)" r="7.324612602867683"/><circle fill="white" pointer-events="none" transform="translate(87.06366052388694,-194.96105761812203)" r="7.278165637302341"/><circle fill="rgb(81, 183, 196)" transform="translate(-25.858898223695633,-336.6083870496879)" r="62.23648956818318"/><circle fill="rgb(81, 183, 196)" transform="translate(82.20450958202127,-336.6083870496879)" r="43.20061276237491"/><circle fill="rgb(81, 183, 196)" transform="translate(42.24323961950785,-278.7009179911041)" r="24.530583635313636"/><circle fill="white" pointer-events="none" transform="translate(7.254625247272543,359.72928184996715)" r="19.89034913524068"/><circle fill="white" pointer-events="none" transform="translate(47.887776973744735,359.72928184996715)" r="18.11649711607263"/><circle fill="white" pointer-events="none" transform="translate(29.25820804043792,392.5701374569576)" r="17.014085994032374"/><circle fill="white" pointer-events="none" transform="translate(29.213531213584417,328.09667646184494)" r="15.990685921997525"/><circle fill="white" pointer-events="none" transform="translate(-3.802436529269187,324.2778275416698)" r="14.619099424001774"/><circle fill="white" pointer-events="none" transform="translate(-3.2198363671801076,393.51057012026183)" r="12.851265646711889"/><circle fill="white" pointer-events="none" transform="translate(59.756804470251836,329.2684252364355)" r="11.948749824384715"/><circle fill="white" pointer-events="none" transform="translate(59.83356368914406,389.26101174156474)" r="11.113513746978322"/><circle fill="white" pointer-events="none" transform="translate(-22.325390549636666,375.3045463911643)" r="10.913364834310242"/><circle fill="white" pointer-events="none" transform="translate(-20.966877923888546,344.7204738917559)" r="9.44766233156444"/><circle fill="rgb(81, 183, 196)" transform="translate(342.30248295743274,-169.61805457355786)" r="46.78686477552921"/><circle fill="white" pointer-events="none" transform="translate(406.7465099120575,-169.61805457355786)" r="15.030856703936735"/><circle fill="white" pointer-events="none" transform="translate(398.4463060906112,-138.02240309073835)" r="15.010537098652014"/><circle fill="white" pointer-events="none" transform="translate(397.02087723722263,-197.75989318937638)" r="12.117844313004303"/><circle fill="white" pointer-events="none" transform="translate(379.855887264325,-216.84259308229042)" r="10.92268320643711"/><circle fill="white" pointer-events="none" transform="translate(377.2394825670889,-125.02492911938248)" r="7.2361084693180935"/><circle fill="white" pointer-events="none" transform="translate(360.73821642830865,-222.19726850032777)" r="6.30442127807608"/><circle fill="white" pointer-events="none" transform="translate(-119.83684334062696,397.4288040485194)" r="26.683924449672958"/><circle fill="white" pointer-events="none" transform="translate(-64.50543540585949,397.4288040485194)" r="26.021178009935678"/><circle fill="white" pointer-events="none" transform="translate(-91.65832680202027,430.1009697865801)" r="13.83486491029217"/><circle fill="white" pointer-events="none" transform="translate(-91.67729269303862,366.8606492905516)" r="12.251439651607985"/><circle fill="white" pointer-events="none" transform="translate(-115.52450891640285,357.67401382863056)" r="10.67776294319944"/><circle fill="white" pointer-events="none" transform="translate(-68.42854887022264,359.4643000573343)" r="9.519182370740705"/><circle fill="white" pointer-events="none" transform="translate(-116.17600215970373,435.1283374348741)" r="8.566630764787368"/><circle fill="white" pointer-events="none" transform="translate(-70.54580094581496,430.1753364225824)" r="4.651486444647119"/><circle fill="white" pointer-events="none" transform="translate(-172.89673679817338,-320.44544285890504)" r="26.129125881874046"/><circle fill="white" pointer-events="none" transform="translate(-119.66473684696007,-320.44544285890504)" r="24.4765685941804"/><circle fill="white" pointer-events="none" transform="translate(-144.927044787279,-285.9225020322233)" r="15.67583144864097"/><circle fill="white" pointer-events="none" transform="translate(-145.07721608796646,-348.61911851246015)" r="10.838529449854745"/><circle fill="white" pointer-events="none" transform="translate(304.8309348504715,207.5713798790323)" r="16.708370662441038"/><circle fill="rgb(66, 150, 183)" transform="translate(-342.1928407648742,52.59797849909239)" r="110.44441543116365"/><circle fill="rgb(66, 150, 183)" transform="translate(-182.4780252701978,52.59797849909239)" r="46.64409458835393"/><circle fill="rgb(66, 150, 183)" transform="translate(-211.17610947657136,144.38600833365047)" r="46.89935847848337"/><circle fill="rgb(66, 150, 183)" transform="translate(-212.75609171269133,-34.50399197061665)" r="42.944102956360005"/><circle fill="rgb(66, 150, 183)" transform="translate(-279.9529004080775,-86.75710224570253)" r="39.55184854199312"/><circle fill="white" pointer-events="none" transform="translate(-275.8464602746443,166.64012370931027)" r="18.866586510127348"/><circle fill="white" pointer-events="none" transform="translate(-338.22166732705955,-77.2699385229273)" r="16.857898304809783"/><circle fill="white" pointer-events="none" transform="translate(-309.63809049734704,174.63197225165823)" r="13.23093148264013"/><circle fill="white" pointer-events="none" transform="translate(-161.56602555585476,-6.0513362754876425)" r="12.995592706059789"/><circle fill="white" pointer-events="none" transform="translate(-160.7813185176733,109.59196274273711)" r="11.713707078183315"/><circle fill="white" pointer-events="none" transform="translate(-334.834207934333,174.786673985098)" r="9.339355401580086"/><circle fill="white" pointer-events="none" transform="translate(-8.14684976561557,38.47907380136962)" r="37.32836098612575"/><circle fill="white" pointer-events="none" transform="translate(68.44291565434128,38.47907380136962)" r="36.63509895867221"/><circle fill="white" pointer-events="none" transform="translate(30.83473789254009,103.96726259664001)" r="36.25732109996101"/><circle fill="white" pointer-events="none" transform="translate(30.7568619527309,-16.81473130167251)" r="27.653792094116696"/><circle fill="white" pointer-events="none" transform="translate(-25.315429709061505,-25.713212092044728)" r="26.493882849413936"/><circle fill="white" pointer-events="none" transform="translate(86.50408735297219,-24.183385696860682)" r="25.952012540705567"/><circle fill="rgb(66, 150, 183)" transform="translate(-43.757518194187355,105.25097071888604)" r="35.719674790510396"/><circle fill="white" pointer-events="none" transform="translate(91.13018153805126,95.4029866402634)" r="22.017008454951714"/><circle fill="white" pointer-events="none" transform="translate(-53.79006990701987,7.93978020537304)" r="14.963017377522537"/><circle fill="white" pointer-events="none" transform="translate(-120.76665634748048,213.68137520188668)" r="23.918776548353268"/><circle fill="white" pointer-events="none" transform="translate(-71.1295004656485,213.68137520188668)" r="23.092073858319857"/><circle fill="white" pointer-events="none" transform="translate(-95.1994145230297,251.15520699345313)" r="18.819793416111466"/><circle fill="white" pointer-events="none" transform="translate(-95.20935599110766,176.9254882476655)" r="18.222884507226645"/><circle fill="white" pointer-events="none" transform="translate(-133.41859609700475,171.19216639281922)" r="17.787800181981037"/><circle fill="white" pointer-events="none" transform="translate(-132.58632873434146,254.66073412270475)" r="16.10480089419298"/><circle fill="white" pointer-events="none" transform="translate(-60.528078743722176,175.54993185304)" r="13.859355750687442"/><circle fill="white" pointer-events="none" transform="translate(-60.349481841292004,251.2893391882135)" r="13.404091916920681"/><circle fill="white" pointer-events="none" transform="translate(-38.84794088313623,194.0918217488677)" r="12.042045631926333"/><circle fill="white" pointer-events="none" transform="translate(-41.92293990467857,233.50360916195154)" r="9.579554585791334"/><circle fill="white" pointer-events="none" transform="translate(-147.89598981317073,233.7390867382818)" r="7.193805426578168"/><circle fill="white" pointer-events="none" transform="translate(-125.6950746057571,-114.5549664588043)" r="37.61344916595684"/><circle fill="white" pointer-events="none" transform="translate(-58.73075749492625,-114.5549664588043)" r="26.72456246971517"/><circle fill="white" pointer-events="none" transform="translate(-83.67837249043714,-74.67404312051968)" r="17.69030062350211"/><circle fill="white" pointer-events="none" transform="translate(-236.24173195948765,-187.53929884899617)" r="40.84154597170512"/><circle fill="white" pointer-events="none" transform="translate(-171.45172886381755,-187.53929884899617)" r="21.322151648806123"/><circle fill="white" pointer-events="none" transform="translate(-190.8602846554495,-160.4238830194456)" r="9.397274439854904"/><circle fill="white" pointer-events="none" transform="translate(-191.687967287569,-210.49052743260597)" r="6.649978114458956"/><circle fill="white" pointer-events="none" transform="translate(-201.14574662049677,-223.20224714807568)" r="6.567876471269531"/><circle fill="white" pointer-events="none" transform="translate(-8.46743183060704,-118.36464075803656)" r="12.525187460385066"/><circle fill="white" pointer-events="none" transform="translate(17.976177414953554,-118.36464075803656)" r="11.2921163100167"/><circle fill="white" pointer-events="none" transform="translate(5.933000535324538,-96.84595864859784)" r="10.741095425854951"/><circle fill="white" pointer-events="none" transform="translate(5.838014192825767,-137.45502313040367)" r="8.704082619293064"/><circle fill="white" pointer-events="none" transform="translate(220.50435685680645,-30.130888399642117)" r="20.7808756248435"/><circle fill="white" pointer-events="none" transform="translate(256.3770167079042,-30.130888399642117)" r="12.46547875109546"/><circle fill="white" pointer-events="none" transform="translate(245.64210593836503,-5.455601667571614)" r="11.817472258083288"/><circle fill="white" pointer-events="none" transform="translate(245.0191490139456,-51.52470254612467)" r="9.130033258973924"/><circle fill="white" pointer-events="none" transform="translate(361.49130279005215,-21.549191519927263)" r="25.188082142147305"/><circle fill="white" pointer-events="none" transform="translate(398.45056925867175,-21.549191519927263)" r="9.144878851313548"/><circle fill="white" pointer-events="none" transform="translate(170.87187515902087,24.605077720753286)" r="15.109617627112812"/><circle fill="white" pointer-events="none" transform="translate(203.2593382691606,24.605077720753286)" r="14.651540007868125"/><circle fill="white" pointer-events="none" transform="translate(187.50865126141412,51.41642844107366)" r="13.817695494161752"/><circle fill="white" pointer-events="none" transform="translate(122.54881172705541,287.99397277167543)" r="24.3557302071674"/><circle fill="white" pointer-events="none" transform="translate(161.7518004542593,287.99397277167543)" r="12.220953044877675"/><circle fill="white" pointer-events="none" transform="translate(152.27143452988525,312.87956203662304)" r="11.78298539780444"/><circle fill="white" pointer-events="none" transform="translate(152.2669773970406,263.12549244974025)" r="11.768586045733487"/><circle fill="white" pointer-events="none" transform="translate(129.77549303678154,250.09750803580891)" r="11.59732359474219"/><circle fill="white" pointer-events="none" transform="translate(130.2409285407366,324.8403505459868)" r="10.658689817623717"/><circle fill="white" pointer-events="none" transform="translate(176.77446812932908,267.564176016755)" r="10.511312802554675"/><circle fill="white" pointer-events="none" transform="translate(175.87336783764044,308.050140112102)" r="9.681673657100113"/><circle fill="white" pointer-events="none" transform="translate(107.55452973078332,321.42448971920885)" r="9.657123095722175"/><circle fill="white" pointer-events="none" transform="translate(142.86038395577464,-194.0506664826069)" r="7.2361084693180935"/><circle fill="white" pointer-events="none" transform="translate(159.84553995709643,-194.0506664826069)" r="7.12274205684484"/><circle fill="white" pointer-events="none" transform="translate(151.4618658767265,-180.1187728268256)" r="6.510831062926488"/><circle fill="white" pointer-events="none" transform="translate(151.46165678415355,-207.9458591136804)" r="6.479503706852922"/><circle fill="white" pointer-events="none" transform="translate(135.9832062373747,-208.7820917175451)" r="6.3952138905742295"/><circle fill="white" pointer-events="none" transform="translate(135.94929689283106,-179.33511897558424)" r="6.3952138905742295"/><circle fill="white" pointer-events="none" transform="translate(166.93546104474956,-208.53707899123538)" r="6.379285562253012"/><circle fill="white" pointer-events="none" transform="translate(166.96375041656552,-179.58406058171602)" r="6.3739672740736415"/><circle fill="white" pointer-events="none" transform="translate(126.81020268632642,-196.43101050880637)" r="6.363317363085537"/><circle fill="white" pointer-events="none" transform="translate(120.86154841256757,-182.28891604436893)" r="6.35264959805985"/><circle fill="white" pointer-events="none" transform="translate(175.82134254896584,-196.0169891668382)" r="6.347308992157387"/><circle fill="white" pointer-events="none" transform="translate(182.10644458033585,-182.05044224783666)" r="6.341963888900194"/><circle fill="white" pointer-events="none" transform="translate(144.35641183365385,-221.65055187173388)" r="6.331260144749873"/><circle fill="white" pointer-events="none" transform="translate(144.2244834096948,-167.2906761099037)" r="5.591738855263605"/><circle fill="white" pointer-events="none" transform="translate(158.86824938201687,-220.69541017290905)" r="5.585670770073795"/><circle fill="white" pointer-events="none" transform="translate(158.92846143110944,-167.9770330057857)" r="5.1167013680562325"/><circle fill="white" pointer-events="none" transform="translate(152.48982988107764,-157.02444509552697)" r="4.961919688213996"/><circle fill="white" pointer-events="none" transform="translate(122.07968900082915,-209.49027848349033)" r="4.900022217093932"/><circle fill="white" pointer-events="none" transform="translate(180.70396432500343,-208.8605302847741)" r="4.766710996658293"/><circle fill="white" pointer-events="none" transform="translate(171.322044791037,-166.56279900295715)" r="4.731004793553199"/><circle fill="white" pointer-events="none" transform="translate(131.3548770956395,-166.42627529933924)" r="4.6805585179514315"/><circle fill="white" pointer-events="none" transform="translate(171.63056276930308,-221.26763273263094)" r="4.5631590438029335"/><circle fill="white" pointer-events="none" transform="translate(130.83891629796392,-221.3550694280873)" r="4.5631590438029335"/><circle fill="white" pointer-events="none" transform="translate(119.79583498387365,-168.84883518771733)" r="4.503311744547219"/><circle fill="white" pointer-events="none" transform="translate(182.9781656616476,-168.62979091971022)" r="4.480662924964682"/><circle fill="white" pointer-events="none" transform="translate(152.98872754958018,-231.90986904984686)" r="4.450285198941891"/><circle fill="white" pointer-events="none" transform="translate(119.24055083764813,-221.0861145642757)" r="4.412018923676724"/><circle fill="white" pointer-events="none" transform="translate(183.16665400191698,-220.3742835889497)" r="4.381165265959471"/><circle fill="white" pointer-events="none" transform="translate(113.74363581661032,-193.5950265936973)" r="4.381165265959471"/><circle fill="white" pointer-events="none" transform="translate(188.91431002811237,-193.50641315727904)" r="4.357881671893567"/><circle fill="white" pointer-events="none" transform="translate(191.5921423697465,-204.50374381628922)" r="4.334473006583617"/><circle fill="white" pointer-events="none" transform="translate(111.39364019500943,-204.58560746617889)" r="4.231539328104925"/><circle fill="white" pointer-events="none" transform="translate(-36.17800964266684,-337.20750297794666)" r="23.05974229375351"/><circle fill="white" pointer-events="none" transform="translate(9.536014861308217,-337.20750297794666)" r="20.02797673506272"/><circle fill="white" pointer-events="none" transform="translate(-10.410477571654269,-299.8263498992329)" r="19.715673724054138"/><circle fill="white" pointer-events="none" transform="translate(-10.69124966149127,-369.53768910914164)" r="15.482093670989517"/><circle fill="white" pointer-events="none" transform="translate(-43.047634125098114,-377.53404131138757)" r="15.221426297425468"/><circle fill="white" pointer-events="none" transform="translate(64.74391770151465,-344.67685410376293)" r="21.339639901989283"/><circle fill="white" pointer-events="none" transform="translate(105.05295690620062,-344.67685410376293)" r="16.343093827537835"/><circle fill="white" pointer-events="none" transform="translate(89.55263497816452,-313.24174310305773)" r="16.079511999930332"/><circle fill="white" pointer-events="none" transform="translate(88.43943402910361,-364.765330582173)" r="7.0988961845702825"/><circle fill="white" pointer-events="none" transform="translate(42.24323961950785,-278.7009179911041)" r="21.90427816015481"/><circle fill="white" pointer-events="none" transform="translate(323.92349931329227,-169.61805457355786)" r="25.781575656229887"/><circle fill="white" pointer-events="none" transform="translate(369.39721135124205,-169.61805457355786)" r="17.065830906561075"/><circle fill="white" pointer-events="none" transform="translate(353.62180384526835,-141.81938787513536)" r="12.270800782901171"/><circle fill="white" pointer-events="none" transform="translate(353.07932891187625,-193.75176710715834)" r="9.440480527157806"/><circle fill="white" pointer-events="none" transform="translate(336.2967526989919,-202.78619562699134)" r="6.993008409513863"/><circle fill="white" pointer-events="none" transform="translate(-368.4690898052156,44.87546987575121)" r="29.545115466152954"/><circle fill="white" pointer-events="none" transform="translate(-307.3579219648627,44.87546987575121)" r="28.939746899041133"/><circle fill="white" pointer-events="none" transform="translate(-337.31516893864,96.97548099821415)" r="28.532598236347464"/><circle fill="white" pointer-events="none" transform="translate(-337.3487937563637,-3.2485547045626504)" r="25.138216712182786"/><circle fill="white" pointer-events="none" transform="translate(-389.85640674202176,-8.109971326048424)" r="24.96765767485737"/><circle fill="white" pointer-events="none" transform="translate(-284.8369409547356,-6.874931224601028)" r="24.87239728297833"/><circle fill="white" pointer-events="none" transform="translate(-392.34146604167415,95.59431336223236)" r="23.884724411193517"/><circle fill="white" pointer-events="none" transform="translate(-283.12358996621595,93.89849632760081)" r="23.11996018769172"/><circle fill="white" pointer-events="none" transform="translate(-420.01621430063244,30.446402284735996)" r="21.357113834937074"/><circle fill="white" pointer-events="none" transform="translate(-259.5596314134179,31.152298223613343)" r="18.163234970727725"/><circle fill="white" pointer-events="none" transform="translate(-429.87443268627896,71.40277183941862)" r="18.142685148289907"/><circle fill="white" pointer-events="none" transform="translate(-251.39681871233626,66.92148085759015)" r="15.899230826748441"/><circle fill="white" pointer-events="none" transform="translate(-360.68350005267604,-38.694008287108886)" r="14.672356793181928"/><circle fill="white" pointer-events="none" transform="translate(-313.0719770326924,-36.74282807525276)" r="13.602495820550226"/><circle fill="white" pointer-events="none" transform="translate(-368.5108760206534,120.11459448817925)" r="7.681677044299382"/><circle fill="white" pointer-events="none" transform="translate(-199.95417804160633,48.15604905015152)" r="25.985965774470372"/><circle fill="white" pointer-events="none" transform="translate(-155.07994127801805,48.15604905015152)" r="16.261965513959108"/><circle fill="white" pointer-events="none" transform="translate(-169.17709443857495,78.68348841563011)" r="14.736932080085545"/><circle fill="white" pointer-events="none" transform="translate(-219.48637470979347,143.4625104450182)" r="16.752964233749655"/><circle fill="white" pointer-events="none" transform="translate(-183.51278598321284,143.4625104450182)" r="16.594319017672138"/><circle fill="white" pointer-events="none" transform="translate(-201.34970994511218,172.29585103656927)" r="14.683908922200233"/><circle fill="white" pointer-events="none" transform="translate(-201.3653345900383,118.90418587688794)" r="11.140943275528677"/><circle fill="white" pointer-events="none" transform="translate(-225.3322820318128,113.9503534729339)" r="10.706308922099845"/><circle fill="white" pointer-events="none" transform="translate(-231.38953865224477,-40.65867408205219)" r="20.69420309225251"/><circle fill="white" pointer-events="none" transform="translate(-190.67450684741004,-40.65867408205219)" r="17.39452323742341"/><circle fill="white" pointer-events="none" transform="translate(-208.03712085359246,-9.918665900194753)" r="15.28368187952688"/><circle fill="white" pointer-events="none" transform="translate(-296.567352380379,-93.96639969631042)" r="18.81438672409198"/><circle fill="white" pointer-events="none" transform="translate(-259.69942492680946,-93.96639969631042)" r="15.42723525431874"/><circle fill="white" pointer-events="none" transform="translate(-274.97309546990823,-65.04690291339284)" r="14.651540007868125"/><circle fill="white" pointer-events="none" transform="translate(-57.41586593413359,105.25097071888604)" r="19.435021575405337"/><circle fill="white" pointer-events="none" transform="translate(-23.009343881202597,105.25097071888604)" r="12.345195002366818"/><circle fill="white" pointer-events="none" transform="translate(-34.97928961559069,123.53301611324196)" r="6.8805654359179504"/><circle fill="white" pointer-events="none" transform="translate(-35.38882856443229,89.71550910441056)" r="4.893096387177161"/></g><g pointer-events="none" text-anchor="middle" style="font: 10px sans-serif;"><text transform="translate(0,0)" style="fill-opacity: 0; display: none;">flare</text><text transform="translate(-156.36396409033068,38.86005387333046)" style="fill-opacity: 1; display: inline;">vis</text><text transform="translate(295.52254310244246,38.86005387333046)" style="fill-opacity: 1; display: inline;">util</text><text transform="translate(187.91299120137091,283.01705337618864)" style="fill-opacity: 1; display: inline;">animate</text><text transform="translate(184.5570199912562,-193.00565158088108)" style="fill-opacity: 1; display: inline;">query</text><text transform="translate(18.6548672762587,-336.6083870496879)" style="fill-opacity: 1; display: inline;">analytics</text><text transform="translate(22.885796433702012,358.64974902729045)" style="fill-opacity: 1; display: inline;">scale</text><text transform="translate(359.4683267692509,-167.78219128901185)" style="fill-opacity: 1; display: inline;">data</text><text transform="translate(-92.99901859470805,395.3677423633344)" style="fill-opacity: 1; display: inline;">physics</text><text transform="translate(-147.10701546641354,-320.44544285890504)" style="fill-opacity: 1; display: inline;">display</text><text transform="translate(304.8309348504715,207.5713798790323)" style="fill-opacity: 1; display: inline;">flex</text><text transform="translate(-282.9419844191912,43.97616454270212)" style="fill-opacity: 0; display: none;">operator</text><text transform="translate(17.908911439557755,43.97616454270212)" style="fill-opacity: 0; display: none;">data</text><text transform="translate(-96.59717209016463,211.4464813827277)" style="fill-opacity: 0; display: none;">controls</text><text transform="translate(-97.65735939846252,-114.5549664588043)" style="fill-opacity: 0; display: none;">legend</text><text transform="translate(-213.6064275731021,-187.53929884899617)" style="fill-opacity: 0; display: none;">axis</text><text transform="translate(-204.52074158289918,237.77648585375505)" style="fill-opacity: 0; display: none;">Visualization</text><text transform="translate(5.887889687692905,-116.13198727239455)" style="fill-opacity: 0; display: none;">events</text><text transform="translate(261.95193115937775,48.056284576208554)" style="fill-opacity: 0; display: none;">Strings</text><text transform="translate(339.23909427599096,48.056284576208554)" style="fill-opacity: 0; display: none;">Shapes</text><text transform="translate(303.14577024137805,111.84162132266988)" style="fill-opacity: 0; display: none;">Maths</text><text transform="translate(302.9587318005541,-9.240335131630673)" style="fill-opacity: 0; display: none;">Displays</text><text transform="translate(235.0720127663419,-26.879453881598693)" style="fill-opacity: 0; display: none;">palette</text><text transform="translate(238.56405986607592,112.5286767674113)" style="fill-opacity: 0; display: none;">Geometry</text><text transform="translate(371.9493343789451,-21.549191519927263)" style="fill-opacity: 0; display: none;">heap</text><text transform="translate(366.27036053910354,106.81745261855383)" style="fill-opacity: 0; display: none;">Colors</text><text transform="translate(186.81143626535004,32.39570532522907)" style="fill-opacity: 0; display: none;">math</text><text transform="translate(188.21494747320185,94.15005231586929)" style="fill-opacity: 0; display: none;">Arrays</text><text transform="translate(398.85848634705667,65.93877964074522)" style="fill-opacity: 0; display: none;">Dates</text><text transform="translate(417.0850935174843,21.699584293595592)" style="fill-opacity: 0; display: none;">Sort</text><text transform="translate(287.62578920786314,-59.86559468815557)" style="fill-opacity: 0; display: none;">Stats</text><text transform="translate(330.4161709157397,-65.28763075217284)" style="fill-opacity: 0; display: none;">Property</text><text transform="translate(265.9523790057077,145.0098500728369)" style="fill-opacity: 0; display: none;">Filter</text><text transform="translate(342.8259493943285,137.62079521624355)" style="fill-opacity: 0; display: none;">Orientation</text><text transform="translate(287.0582534322456,153.8451166893242)" style="fill-opacity: 0; display: none;">IValueProxy</text><text transform="translate(327.46726136874815,146.54351725471304)" style="fill-opacity: 0; display: none;">IPredicate</text><text transform="translate(398.21357089249614,96.93275372766993)" style="fill-opacity: 0; display: none;">IEvaluable</text><text transform="translate(140.21635315644858,291.29264210858196)" style="fill-opacity: 0; display: none;">interpolate</text><text transform="translate(236.37173802685254,291.29264210858196)" style="fill-opacity: 0; display: none;">Transitioner</text><text transform="translate(205.55706209244886,357.9115471040127)" style="fill-opacity: 0; display: none;">Easing</text><text transform="translate(203.6962774082308,235.78003050876532)" style="fill-opacity: 0; display: none;">Transition</text><text transform="translate(160.90484427853266,214.49989656770106)" style="fill-opacity: 0; display: none;">Tween</text><text transform="translate(150.34446686684237,369.89609772884467)" style="fill-opacity: 0; display: none;">FunctionSequence</text><text transform="translate(250.75293344737418,234.1639979569876)" style="fill-opacity: 0; display: none;">Scheduler</text><text transform="translate(260.04352926561387,345.1259196745433)" style="fill-opacity: 0; display: none;">Sequence</text><text transform="translate(119.38713418332964,216.03772304010408)" style="fill-opacity: 0; display: none;">Parallel</text><text transform="translate(121.96845692947886,356.8480682853027)" style="fill-opacity: 0; display: none;">TransitionEvent</text><text transform="translate(189.7511120664484,202.57951881488748)" style="fill-opacity: 0; display: none;">ISchedulable</text><text transform="translate(173.69230731396146,385.44304262763)" style="fill-opacity: 0; display: none;">Pause</text><text transform="translate(151.3024097005789,-195.0385100797315)" style="fill-opacity: 0; display: none;">methods</text><text transform="translate(232.9763326569398,-195.0385100797315)" style="fill-opacity: 0; display: none;">Query</text><text transform="translate(205.27709741897536,-151.0538441904405)" style="fill-opacity: 0; display: none;">Expression</text><text transform="translate(205.26647712610725,-238.95837954096183)" style="fill-opacity: 0; display: none;">Comparison</text><text transform="translate(173.0988640826355,-259.16837907848367)" style="fill-opacity: 0; display: none;">DateUtil</text><text transform="translate(173.03583582429712,-130.91077139429774)" style="fill-opacity: 0; display: none;">StringUtil</text><text transform="translate(242.4412148146107,-243.69833039571515)" style="fill-opacity: 0; display: none;">Arithmetic</text><text transform="translate(242.23879881531536,-146.64650304243366)" style="fill-opacity: 0; display: none;">Match</text><text transform="translate(137.94482333510962,-260.4546025980941)" style="fill-opacity: 0; display: none;">CompositeExpression</text><text transform="translate(138.02958925442329,-129.73718206901844)" style="fill-opacity: 0; display: none;">ExpressionIterator</text><text transform="translate(203.441891948209,-274.96673077317854)" style="fill-opacity: 0; display: none;">Fn</text><text transform="translate(202.81604316811297,-115.85236615890648)" style="fill-opacity: 0; display: none;">BinaryExpression</text><text transform="translate(233.06259012269538,-115.79969859315628)" style="fill-opacity: 0; display: none;">If</text><text transform="translate(232.56367213755084,-272.693571302708)" style="fill-opacity: 0; display: none;">IsA</text><text transform="translate(265.85935633613246,-164.89789839888573)" style="fill-opacity: 0; display: none;">Variance</text><text transform="translate(264.98997192174363,-224.9249457860337)" style="fill-opacity: 0; display: none;">AggregateExpression</text><text transform="translate(114.39903765880615,-146.00177528025847)" style="fill-opacity: 0; display: none;">Range</text><text transform="translate(114.47231583471239,-243.96607573290933)" style="fill-opacity: 0; display: none;">Not</text><text transform="translate(155.4051395362111,-108.59858492416276)" style="fill-opacity: 0; display: none;">Literal</text><text transform="translate(155.54186176203132,-281.12966196959644)" style="fill-opacity: 0; display: none;">Variable</text><text transform="translate(180.53020878928055,-103.92760567333937)" style="fill-opacity: 0; display: none;">Xor</text><text transform="translate(180.12194675710361,-285.9957360666142)" style="fill-opacity: 0; display: none;">And</text><text transform="translate(101.71685715119213,-162.9091793235242)" style="fill-opacity: 0; display: none;">Or</text><text transform="translate(101.97555019013316,-227.2789814981368)" style="fill-opacity: 0; display: none;">Distinct</text><text transform="translate(272.71317136732546,-205.53718809791013)" style="fill-opacity: 0; display: none;">Average</text><text transform="translate(272.6765755530222,-185.25466732422683)" style="fill-opacity: 0; display: none;">Maximum</text><text transform="translate(94.86960430355884,-210.5856778194322)" style="fill-opacity: 0; display: none;">Minimum</text><text transform="translate(95.05831648451021,-179.6991179726811)" style="fill-opacity: 0; display: none;">Sum</text><text transform="translate(87.06366052388694,-194.96105761812203)" style="fill-opacity: 0; display: none;">Count</text><text transform="translate(-25.858898223695633,-336.6083870496879)" style="fill-opacity: 0; display: none;">graph</text><text transform="translate(82.20450958202127,-336.6083870496879)" style="fill-opacity: 0; display: none;">cluster</text><text transform="translate(42.24323961950785,-278.7009179911041)" style="fill-opacity: 0; display: none;">optimization</text><text transform="translate(7.254625247272543,359.72928184996715)" style="fill-opacity: 0; display: none;">TimeScale</text><text transform="translate(47.887776973744735,359.72928184996715)" style="fill-opacity: 0; display: none;">QuantitativeScale</text><text transform="translate(29.25820804043792,392.5701374569576)" style="fill-opacity: 0; display: none;">Scale</text><text transform="translate(29.213531213584417,328.09667646184494)" style="fill-opacity: 0; display: none;">OrdinalScale</text><text transform="translate(-3.802436529269187,324.2778275416698)" style="fill-opacity: 0; display: none;">LogScale</text><text transform="translate(-3.2198363671801076,393.51057012026183)" style="fill-opacity: 0; display: none;">QuantileScale</text><text transform="translate(59.756804470251836,329.2684252364355)" style="fill-opacity: 0; display: none;">IScaleMap</text><text transform="translate(59.83356368914406,389.26101174156474)" style="fill-opacity: 0; display: none;">ScaleType</text><text transform="translate(-22.325390549636666,375.3045463911643)" style="fill-opacity: 0; display: none;">RootScale</text><text transform="translate(-20.966877923888546,344.7204738917559)" style="fill-opacity: 0; display: none;">LinearScale</text><text transform="translate(342.30248295743274,-169.61805457355786)" style="fill-opacity: 0; display: none;">converters</text><text transform="translate(406.7465099120575,-169.61805457355786)" style="fill-opacity: 0; display: none;">DataSource</text><text transform="translate(398.4463060906112,-138.02240309073835)" style="fill-opacity: 0; display: none;">DataUtil</text><text transform="translate(397.02087723722263,-197.75989318937638)" style="fill-opacity: 0; display: none;">DataSchema</text><text transform="translate(379.855887264325,-216.84259308229042)" style="fill-opacity: 0; display: none;">DataField</text><text transform="translate(377.2394825670889,-125.02492911938248)" style="fill-opacity: 0; display: none;">DataTable</text><text transform="translate(360.73821642830865,-222.19726850032777)" style="fill-opacity: 0; display: none;">DataSet</text><text transform="translate(-119.83684334062696,397.4288040485194)" style="fill-opacity: 0; display: none;">NBodyForce</text><text transform="translate(-64.50543540585949,397.4288040485194)" style="fill-opacity: 0; display: none;">Simulation</text><text transform="translate(-91.65832680202027,430.1009697865801)" style="fill-opacity: 0; display: none;">Particle</text><text transform="translate(-91.67729269303862,366.8606492905516)" style="fill-opacity: 0; display: none;">Spring</text><text transform="translate(-115.52450891640285,357.67401382863056)" style="fill-opacity: 0; display: none;">SpringForce</text><text transform="translate(-68.42854887022264,359.4643000573343)" style="fill-opacity: 0; display: none;">GravityForce</text><text transform="translate(-116.17600215970373,435.1283374348741)" style="fill-opacity: 0; display: none;">DragForce</text><text transform="translate(-70.54580094581496,430.1753364225824)" style="fill-opacity: 0; display: none;">IForce</text><text transform="translate(-172.89673679817338,-320.44544285890504)" style="fill-opacity: 0; display: none;">TextSprite</text><text transform="translate(-119.66473684696007,-320.44544285890504)" style="fill-opacity: 0; display: none;">DirtySprite</text><text transform="translate(-144.927044787279,-285.9225020322233)" style="fill-opacity: 0; display: none;">RectSprite</text><text transform="translate(-145.07721608796646,-348.61911851246015)" style="fill-opacity: 0; display: none;">LineSprite</text><text transform="translate(304.8309348504715,207.5713798790323)" style="fill-opacity: 0; display: none;">FlareVis</text><text transform="translate(-342.1928407648742,52.59797849909239)" style="fill-opacity: 0; display: none;">layout</text><text transform="translate(-182.4780252701978,52.59797849909239)" style="fill-opacity: 0; display: none;">label</text><text transform="translate(-211.17610947657136,144.38600833365047)" style="fill-opacity: 0; display: none;">encoder</text><text transform="translate(-212.75609171269133,-34.50399197061665)" style="fill-opacity: 0; display: none;">distortion</text><text transform="translate(-279.9529004080775,-86.75710224570253)" style="fill-opacity: 0; display: none;">filter</text><text transform="translate(-275.8464602746443,166.64012370931027)" style="fill-opacity: 0; display: none;">OperatorList</text><text transform="translate(-338.22166732705955,-77.2699385229273)" style="fill-opacity: 0; display: none;">OperatorSequence</text><text transform="translate(-309.63809049734704,174.63197225165823)" style="fill-opacity: 0; display: none;">OperatorSwitch</text><text transform="translate(-161.56602555585476,-6.0513362754876425)" style="fill-opacity: 0; display: none;">Operator</text><text transform="translate(-160.7813185176733,109.59196274273711)" style="fill-opacity: 0; display: none;">SortOperator</text><text transform="translate(-334.834207934333,174.786673985098)" style="fill-opacity: 0; display: none;">IOperator</text><text transform="translate(-8.14684976561557,38.47907380136962)" style="fill-opacity: 0; display: none;">Data</text><text transform="translate(68.44291565434128,38.47907380136962)" style="fill-opacity: 0; display: none;">DataList</text><text transform="translate(30.83473789254009,103.96726259664001)" style="fill-opacity: 0; display: none;">NodeSprite</text><text transform="translate(30.7568619527309,-16.81473130167251)" style="fill-opacity: 0; display: none;">ScaleBinding</text><text transform="translate(-25.315429709061505,-25.713212092044728)" style="fill-opacity: 0; display: none;">DataSprite</text><text transform="translate(86.50408735297219,-24.183385696860682)" style="fill-opacity: 0; display: none;">TreeBuilder</text><text transform="translate(-43.757518194187355,105.25097071888604)" style="fill-opacity: 0; display: none;">render</text><text transform="translate(91.13018153805126,95.4029866402634)" style="fill-opacity: 0; display: none;">Tree</text><text transform="translate(-53.79006990701987,7.93978020537304)" style="fill-opacity: 0; display: none;">EdgeSprite</text><text transform="translate(-120.76665634748048,213.68137520188668)" style="fill-opacity: 0; display: none;">TooltipControl</text><text transform="translate(-71.1295004656485,213.68137520188668)" style="fill-opacity: 0; display: none;">SelectionControl</text><text transform="translate(-95.1994145230297,251.15520699345313)" style="fill-opacity: 0; display: none;">PanZoomControl</text><text transform="translate(-95.20935599110766,176.9254882476655)" style="fill-opacity: 0; display: none;">HoverControl</text><text transform="translate(-133.41859609700475,171.19216639281922)" style="fill-opacity: 0; display: none;">ControlList</text><text transform="translate(-132.58632873434146,254.66073412270475)" style="fill-opacity: 0; display: none;">ClickControl</text><text transform="translate(-60.528078743722176,175.54993185304)" style="fill-opacity: 0; display: none;">ExpandControl</text><text transform="translate(-60.349481841292004,251.2893391882135)" style="fill-opacity: 0; display: none;">DragControl</text><text transform="translate(-38.84794088313623,194.0918217488677)" style="fill-opacity: 0; display: none;">AnchorControl</text><text transform="translate(-41.92293990467857,233.50360916195154)" style="fill-opacity: 0; display: none;">Control</text><text transform="translate(-147.89598981317073,233.7390867382818)" style="fill-opacity: 0; display: none;">IControl</text><text transform="translate(-125.6950746057571,-114.5549664588043)" style="fill-opacity: 0; display: none;">Legend</text><text transform="translate(-58.73075749492625,-114.5549664588043)" style="fill-opacity: 0; display: none;">LegendRange</text><text transform="translate(-83.67837249043714,-74.67404312051968)" style="fill-opacity: 0; display: none;">LegendItem</text><text transform="translate(-236.24173195948765,-187.53929884899617)" style="fill-opacity: 0; display: none;">Axis</text><text transform="translate(-171.45172886381755,-187.53929884899617)" style="fill-opacity: 0; display: none;">CartesianAxes</text><text transform="translate(-190.8602846554495,-160.4238830194456)" style="fill-opacity: 0; display: none;">Axes</text><text transform="translate(-191.687967287569,-210.49052743260597)" style="fill-opacity: 0; display: none;">AxisGridLine</text><text transform="translate(-201.14574662049677,-223.20224714807568)" style="fill-opacity: 0; display: none;">AxisLabel</text><text transform="translate(-8.46743183060704,-118.36464075803656)" style="fill-opacity: 0; display: none;">DataEvent</text><text transform="translate(17.976177414953554,-118.36464075803656)" style="fill-opacity: 0; display: none;">SelectionEvent</text><text transform="translate(5.933000535324538,-96.84595864859784)" style="fill-opacity: 0; display: none;">TooltipEvent</text><text transform="translate(5.838014192825767,-137.45502313040367)" style="fill-opacity: 0; display: none;">VisualizationEvent</text><text transform="translate(220.50435685680645,-30.130888399642117)" style="fill-opacity: 0; display: none;">ColorPalette</text><text transform="translate(256.3770167079042,-30.130888399642117)" style="fill-opacity: 0; display: none;">SizePalette</text><text transform="translate(245.64210593836503,-5.455601667571614)" style="fill-opacity: 0; display: none;">ShapePalette</text><text transform="translate(245.0191490139456,-51.52470254612467)" style="fill-opacity: 0; display: none;">Palette</text><text transform="translate(361.49130279005215,-21.549191519927263)" style="fill-opacity: 0; display: none;">FibonacciHeap</text><text transform="translate(398.45056925867175,-21.549191519927263)" style="fill-opacity: 0; display: none;">HeapNode</text><text transform="translate(170.87187515902087,24.605077720753286)" style="fill-opacity: 0; display: none;">SparseMatrix</text><text transform="translate(203.2593382691606,24.605077720753286)" style="fill-opacity: 0; display: none;">DenseMatrix</text><text transform="translate(187.50865126141412,51.41642844107366)" style="fill-opacity: 0; display: none;">IMatrix</text><text transform="translate(122.54881172705541,287.99397277167543)" style="fill-opacity: 0; display: none;">Interpolator</text><text transform="translate(161.7518004542593,287.99397277167543)" style="fill-opacity: 0; display: none;">MatrixInterpolator</text><text transform="translate(152.27143452988525,312.87956203662304)" style="fill-opacity: 0; display: none;">ColorInterpolator</text><text transform="translate(152.2669773970406,263.12549244974025)" style="fill-opacity: 0; display: none;">RectangleInterpolator</text><text transform="translate(129.77549303678154,250.09750803580891)" style="fill-opacity: 0; display: none;">ArrayInterpolator</text><text transform="translate(130.2409285407366,324.8403505459868)" style="fill-opacity: 0; display: none;">PointInterpolator</text><text transform="translate(176.77446812932908,267.564176016755)" style="fill-opacity: 0; display: none;">ObjectInterpolator</text><text transform="translate(175.87336783764044,308.050140112102)" style="fill-opacity: 0; display: none;">NumberInterpolator</text><text transform="translate(107.55452973078332,321.42448971920885)" style="fill-opacity: 0; display: none;">DateInterpolator</text><text transform="translate(142.86038395577464,-194.0506664826069)" style="fill-opacity: 0; display: none;">range</text><text transform="translate(159.84553995709643,-194.0506664826069)" style="fill-opacity: 0; display: none;">iff</text><text transform="translate(151.4618658767265,-180.1187728268256)" style="fill-opacity: 0; display: none;">gte</text><text transform="translate(151.46165678415355,-207.9458591136804)" style="fill-opacity: 0; display: none;">lte</text><text transform="translate(135.9832062373747,-208.7820917175451)" style="fill-opacity: 0; display: none;">gt</text><text transform="translate(135.94929689283106,-179.33511897558424)" style="fill-opacity: 0; display: none;">mul</text><text transform="translate(166.93546104474956,-208.53707899123538)" style="fill-opacity: 0; display: none;">sub</text><text transform="translate(166.96375041656552,-179.58406058171602)" style="fill-opacity: 0; display: none;">neq</text><text transform="translate(126.81020268632642,-196.43101050880637)" style="fill-opacity: 0; display: none;">lt</text><text transform="translate(120.86154841256757,-182.28891604436893)" style="fill-opacity: 0; display: none;">div</text><text transform="translate(175.82134254896584,-196.0169891668382)" style="fill-opacity: 0; display: none;">eq</text><text transform="translate(182.10644458033585,-182.05044224783666)" style="fill-opacity: 0; display: none;">add</text><text transform="translate(144.35641183365385,-221.65055187173388)" style="fill-opacity: 0; display: none;">mod</text><text transform="translate(144.2244834096948,-167.2906761099037)" style="fill-opacity: 0; display: none;">isa</text><text transform="translate(158.86824938201687,-220.69541017290905)" style="fill-opacity: 0; display: none;">fn</text><text transform="translate(158.92846143110944,-167.9770330057857)" style="fill-opacity: 0; display: none;">not</text><text transform="translate(152.48982988107764,-157.02444509552697)" style="fill-opacity: 0; display: none;">stddev</text><text transform="translate(122.07968900082915,-209.49027848349033)" style="fill-opacity: 0; display: none;">xor</text><text transform="translate(180.70396432500343,-208.8605302847741)" style="fill-opacity: 0; display: none;">variance</text><text transform="translate(171.322044791037,-166.56279900295715)" style="fill-opacity: 0; display: none;">and</text><text transform="translate(131.3548770956395,-166.42627529933924)" style="fill-opacity: 0; display: none;">or</text><text transform="translate(171.63056276930308,-221.26763273263094)" style="fill-opacity: 0; display: none;">orderby</text><text transform="translate(130.83891629796392,-221.3550694280873)" style="fill-opacity: 0; display: none;">update</text><text transform="translate(119.79583498387365,-168.84883518771733)" style="fill-opacity: 0; display: none;">where</text><text transform="translate(182.9781656616476,-168.62979091971022)" style="fill-opacity: 0; display: none;">select</text><text transform="translate(152.98872754958018,-231.90986904984686)" style="fill-opacity: 0; display: none;">distinct</text><text transform="translate(119.24055083764813,-221.0861145642757)" style="fill-opacity: 0; display: none;">average</text><text transform="translate(183.16665400191698,-220.3742835889497)" style="fill-opacity: 0; display: none;">max</text><text transform="translate(113.74363581661032,-193.5950265936973)" style="fill-opacity: 0; display: none;">min</text><text transform="translate(188.91431002811237,-193.50641315727904)" style="fill-opacity: 0; display: none;">sum</text><text transform="translate(191.5921423697465,-204.50374381628922)" style="fill-opacity: 0; display: none;">count</text><text transform="translate(111.39364019500943,-204.58560746617889)" style="fill-opacity: 0; display: none;">_</text><text transform="translate(-36.17800964266684,-337.20750297794666)" style="fill-opacity: 0; display: none;">MaxFlowMinCut</text><text transform="translate(9.536014861308217,-337.20750297794666)" style="fill-opacity: 0; display: none;">ShortestPaths</text><text transform="translate(-10.410477571654269,-299.8263498992329)" style="fill-opacity: 0; display: none;">LinkDistance</text><text transform="translate(-10.69124966149127,-369.53768910914164)" style="fill-opacity: 0; display: none;">BetweennessCentrality</text><text transform="translate(-43.047634125098114,-377.53404131138757)" style="fill-opacity: 0; display: none;">SpanningTree</text><text transform="translate(64.74391770151465,-344.67685410376293)" style="fill-opacity: 0; display: none;">HierarchicalCluster</text><text transform="translate(105.05295690620062,-344.67685410376293)" style="fill-opacity: 0; display: none;">AgglomerativeCluster</text><text transform="translate(89.55263497816452,-313.24174310305773)" style="fill-opacity: 0; display: none;">CommunityStructure</text><text transform="translate(88.43943402910361,-364.765330582173)" style="fill-opacity: 0; display: none;">MergeEdge</text><text transform="translate(42.24323961950785,-278.7009179911041)" style="fill-opacity: 0; display: none;">AspectRatioBanker</text><text transform="translate(323.92349931329227,-169.61805457355786)" style="fill-opacity: 0; display: none;">GraphMLConverter</text><text transform="translate(369.39721135124205,-169.61805457355786)" style="fill-opacity: 0; display: none;">DelimitedTextConverter</text><text transform="translate(353.62180384526835,-141.81938787513536)" style="fill-opacity: 0; display: none;">JSONConverter</text><text transform="translate(353.07932891187625,-193.75176710715834)" style="fill-opacity: 0; display: none;">IDataConverter</text><text transform="translate(336.2967526989919,-202.78619562699134)" style="fill-opacity: 0; display: none;">Converters</text><text transform="translate(-368.4690898052156,44.87546987575121)" style="fill-opacity: 0; display: none;">NodeLinkTreeLayout</text><text transform="translate(-307.3579219648627,44.87546987575121)" style="fill-opacity: 0; display: none;">RadialTreeLayout</text><text transform="translate(-337.31516893864,96.97548099821415)" style="fill-opacity: 0; display: none;">CirclePackingLayout</text><text transform="translate(-337.3487937563637,-3.2485547045626504)" style="fill-opacity: 0; display: none;">CircleLayout</text><text transform="translate(-389.85640674202176,-8.109971326048424)" style="fill-opacity: 0; display: none;">TreeMapLayout</text><text transform="translate(-284.8369409547356,-6.874931224601028)" style="fill-opacity: 0; display: none;">StackedAreaLayout</text><text transform="translate(-392.34146604167415,95.59431336223236)" style="fill-opacity: 0; display: none;">ForceDirectedLayout</text><text transform="translate(-283.12358996621595,93.89849632760081)" style="fill-opacity: 0; display: none;">Layout</text><text transform="translate(-420.01621430063244,30.446402284735996)" style="fill-opacity: 0; display: none;">AxisLayout</text><text transform="translate(-259.5596314134179,31.152298223613343)" style="fill-opacity: 0; display: none;">IcicleTreeLayout</text><text transform="translate(-429.87443268627896,71.40277183941862)" style="fill-opacity: 0; display: none;">DendrogramLayout</text><text transform="translate(-251.39681871233626,66.92148085759015)" style="fill-opacity: 0; display: none;">BundledEdgeRouter</text><text transform="translate(-360.68350005267604,-38.694008287108886)" style="fill-opacity: 0; display: none;">IndentedTreeLayout</text><text transform="translate(-313.0719770326924,-36.74282807525276)" style="fill-opacity: 0; display: none;">PieLayout</text><text transform="translate(-368.5108760206534,120.11459448817925)" style="fill-opacity: 0; display: none;">RandomLayout</text><text transform="translate(-199.95417804160633,48.15604905015152)" style="fill-opacity: 0; display: none;">Labeler</text><text transform="translate(-155.07994127801805,48.15604905015152)" style="fill-opacity: 0; display: none;">RadialLabeler</text><text transform="translate(-169.17709443857495,78.68348841563011)" style="fill-opacity: 0; display: none;">StackedAreaLabeler</text><text transform="translate(-219.48637470979347,143.4625104450182)" style="fill-opacity: 0; display: none;">PropertyEncoder</text><text transform="translate(-183.51278598321284,143.4625104450182)" style="fill-opacity: 0; display: none;">Encoder</text><text transform="translate(-201.34970994511218,172.29585103656927)" style="fill-opacity: 0; display: none;">ColorEncoder</text><text transform="translate(-201.3653345900383,118.90418587688794)" style="fill-opacity: 0; display: none;">SizeEncoder</text><text transform="translate(-225.3322820318128,113.9503534729339)" style="fill-opacity: 0; display: none;">ShapeEncoder</text><text transform="translate(-231.38953865224477,-40.65867408205219)" style="fill-opacity: 0; display: none;">Distortion</text><text transform="translate(-190.67450684741004,-40.65867408205219)" style="fill-opacity: 0; display: none;">BifocalDistortion</text><text transform="translate(-208.03712085359246,-9.918665900194753)" style="fill-opacity: 0; display: none;">FisheyeDistortion</text><text transform="translate(-296.567352380379,-93.96639969631042)" style="fill-opacity: 0; display: none;">FisheyeTreeFilter</text><text transform="translate(-259.69942492680946,-93.96639969631042)" style="fill-opacity: 0; display: none;">VisibilityFilter</text><text transform="translate(-274.97309546990823,-65.04690291339284)" style="fill-opacity: 0; display: none;">GraphDistanceFilter</text><text transform="translate(-57.41586593413359,105.25097071888604)" style="fill-opacity: 0; display: none;">EdgeRenderer</text><text transform="translate(-23.009343881202597,105.25097071888604)" style="fill-opacity: 0; display: none;">ShapeRenderer</text><text transform="translate(-34.97928961559069,123.53301611324196)" style="fill-opacity: 0; display: none;">ArrowType</text><text transform="translate(-35.38882856443229,89.71550910441056)" style="fill-opacity: 0; display: none;">IRenderer</text></g></svg>