<?xml version="1.0" encoding="UTF-8" standalone="no"?>
<svg
   xmlns:dc="http://purl.org/dc/elements/1.1/"
   xmlns:cc="http://creativecommons.org/ns#"
   xmlns:rdf="http://www.w3.org/1999/02/22-rdf-syntax-ns#"
   xmlns:svg="http://www.w3.org/2000/svg"
   xmlns="http://www.w3.org/2000/svg"
   xmlns:sodipodi="http://sodipodi.sourceforge.net/DTD/sodipodi-0.dtd"
   xmlns:inkscape="http://www.inkscape.org/namespaces/inkscape"
   viewBox="0 0 1024 1024"
   height="1024.0pt"
   width="1024.0pt"
   version="1.1"
   id="svg3130"
   sodipodi:docname="Edit.svg"
   inkscape:version="0.92.2 (5c3e80d, 2017-08-06)">
  <metadata
     id="metadata3136">
    <rdf:RDF>
      <cc:Work
         rdf:about="">
        <dc:format>image/svg+xml</dc:format>
        <dc:type
           rdf:resource="http://purl.org/dc/dcmitype/StillImage" />
        <dc:title></dc:title>
      </cc:Work>
    </rdf:RDF>
  </metadata>
  <defs
     id="defs3134" />
  <sodipodi:namedview
     pagecolor="#ffffff"
     bordercolor="#666666"
     borderopacity="1"
     objecttolerance="10"
     gridtolerance="10"
     guidetolerance="10"
     inkscape:pageopacity="0"
     inkscape:pageshadow="2"
     inkscape:window-width="1920"
     inkscape:window-height="1017"
     id="namedview3132"
     showgrid="false"
     inkscape:pagecheckerboard="true"
     inkscape:zoom="0.34570312"
     inkscape:cx="636.0849"
     inkscape:cy="549.13493"
     inkscape:window-x="-8"
     inkscape:window-y="-8"
     inkscape:window-maximized="1"
     inkscape:current-layer="svg3130" />
  <path
     d="M 0.00 0.00 L 1024.00 0.00 L 1024.00 1024.00 L 0.00 1024.00 L 0.00 0.00 Z"
     fill="#fefefe"
     id="path3122"
     style="opacity:0" />
  <path
     d="M 889.24 21.76 C 926.59 59.05 963.90 96.44 1001.24 133.76 C 1018.06 150.13 1026.35 174.31 1023.01 197.57 C 1020.78 213.51 1013.32 228.57 1001.97 239.99 C 971.45 270.50 940.94 301.02 910.43 331.55 C 837.88 258.86 765.23 186.24 692.58 113.65 C 723.07 83.12 753.60 52.62 784.10 22.10 C 792.71 13.67 803.21 7.24 814.75 3.72 C 840.60 -4.52 870.01 2.66 889.24 21.76 Z"
     fill="#050308"
     id="path3124" />
  <path
     d="M 626.25 180.14 C 628.81 181.49 630.74 184.19 632.86 186.14 C 700.36 253.64 767.87 321.13 835.33 388.67 C 838.36 391.65 841.37 394.65 844.25 397.78 C 819.27 422.63 794.42 447.60 769.49 472.50 C 631.87 610.17 494.17 747.79 356.58 885.50 C 283.96 812.93 211.41 740.30 138.79 667.73 C 142.93 663.21 147.36 659.00 151.67 654.66 C 307.48 498.80 463.30 342.96 619.12 187.12 C 621.49 184.80 623.70 182.26 626.25 180.14 Z"
     fill="#050308"
     id="path3126" />
  <path
     d="M 72.69 733.87 C 145.32 806.41 217.87 879.02 290.44 951.62 C 283.96 958.09 277.48 964.55 271.04 971.06 C 269.20 973.15 265.56 973.43 262.98 974.26 C 206.98 989.22 150.99 1004.31 94.98 1019.28 C 88.29 1020.77 81.77 1022.55 74.91 1023.09 C 54.41 1024.73 33.51 1016.57 19.54 1001.48 C 7.37 988.52 0.51 970.79 1.13 953.00 C 1.11 943.21 3.85 934.43 6.32 925.07 C 20.62 871.40 34.95 817.74 49.27 764.08 C 50.15 761.00 50.69 757.71 51.96 754.76 C 53.32 752.65 55.41 750.96 57.16 749.16 C 62.38 744.12 67.30 738.73 72.69 733.87 Z"
     fill="#050308"
     id="path3128" />
</svg>
