<?xml version="1.0" encoding="UTF-8" standalone="no"?>
<svg
   xmlns:dc="http://purl.org/dc/elements/1.1/"
   xmlns:cc="http://creativecommons.org/ns#"
   xmlns:rdf="http://www.w3.org/1999/02/22-rdf-syntax-ns#"
   xmlns:svg="http://www.w3.org/2000/svg"
   xmlns="http://www.w3.org/2000/svg"
   xmlns:sodipodi="http://sodipodi.sourceforge.net/DTD/sodipodi-0.dtd"
   xmlns:inkscape="http://www.inkscape.org/namespaces/inkscape"
   viewBox="0 0 1024 1024"
   height="1024.0pt"
   width="1024.0pt"
   version="1.1"
   id="svg12879"
   sodipodi:docname="Follow-Unfollow Branch Button.svg"
   inkscape:version="0.92.2 (5c3e80d, 2017-08-06)">
  <metadata
     id="metadata12885">
    <rdf:RDF>
      <cc:Work
         rdf:about="">
        <dc:format>image/svg+xml</dc:format>
        <dc:type
           rdf:resource="http://purl.org/dc/dcmitype/StillImage" />
        <dc:title></dc:title>
      </cc:Work>
    </rdf:RDF>
  </metadata>
  <defs
     id="defs12883" />
  <sodipodi:namedview
     pagecolor="#ffffff"
     bordercolor="#666666"
     borderopacity="1"
     objecttolerance="10"
     gridtolerance="10"
     guidetolerance="10"
     inkscape:pageopacity="0"
     inkscape:pageshadow="2"
     inkscape:window-width="716"
     inkscape:window-height="480"
     id="namedview12881"
     showgrid="false"
     inkscape:pagecheckerboard="true"
     inkscape:zoom="0.17285156"
     inkscape:cx="682.66667"
     inkscape:cy="682.66667"
     inkscape:window-x="0"
     inkscape:window-y="0"
     inkscape:window-maximized="0"
     inkscape:current-layer="svg12879" />
  <path
     d="M 0.00 0.00 L 1024.00 0.00 L 1024.00 1024.00 L 0.00 1024.00 L 0.00 0.00 Z"
     fill="#fefefe"
     id="path12869"
     style="opacity:0" />
  <path
     style="fill:#000000;stroke-width:1.33333337"
     d="M 675.98828 270.41016 C 671.53995 270.40682 667.0943 270.42654 662.6543 270.5332 C 651.12096 271.39987 639.58708 270.99971 628.09375 272.37305 C 564.70708 276.55971 501.74638 288.88096 441.37305 308.6543 C 340.18638 341.82763 246.06698 396.61429 169.32031 470.6543 C 111.45364 526.36097 64.106199 592.50666 31.519531 666 C 29.306198 671.50667 26.254037 676.94763 24.720703 682.6543 C 51.814037 749.4943 92.000962 811.50635 140.6543 864.67969 C 201.82763 931.58636 276.89299 985.26586 358.98633 1023.5059 C 437.63966 1060.1992 522.94698 1082.8799 609.32031 1090.9199 C 623.10698 1092.0933 636.85336 1093.1202 650.69336 1093.8535 C 675.52003 1094.4135 700.54698 1094.8534 725.32031 1093.0801 C 794.57365 1089.3334 863.30734 1076.1863 929.02734 1053.9863 C 1022.0673 1022.5597 1108.706 972.94703 1181.3594 906.70703 C 1249.3194 844.86703 1303.907 768.96026 1339.0137 683.93359 C 1340.147 681.74693 1337.8938 678.64081 1337.1738 676.49414 C 1312.9472 619.02747 1279.68 565.53401 1239.3066 518.02734 C 1192.0666 462.41401 1135.6408 415.11979 1073.1875 377.45312 C 957.80083 307.79979 823.89399 271.67911 689.33398 270.42578 C 684.88732 270.43911 680.43661 270.41349 675.98828 270.41016 z M 682.68164 423.35938 C 724.39331 423.40604 766.10036 428.32581 806.70703 438.11914 C 876.8137 454.83914 943.11961 485.73377 1001.5996 527.78711 C 1059.9463 569.80044 1110.5066 622.6662 1150.3066 682.51953 C 1138.9733 698.9862 1127.2799 715.1726 1114.5332 730.58594 C 1075.3999 778.51927 1028.6929 820.49359 976.59961 853.93359 C 905.83961 899.42693 825.00065 928.7724 741.33398 938.03906 C 684.21398 944.5324 626.12026 941.50578 569.93359 929.42578 C 473.84026 908.97245 384.65427 861.93307 311.96094 796.06641 C 274.44094 762.47974 242.06745 724.10586 213.80078 682.50586 C 235.64078 649.75919 260.62646 618.98581 288.45312 591.11914 C 362.30646 516.34581 456.14695 461.99984 558.62695 437.83984 C 599.25362 428.13984 640.96997 423.31271 682.68164 423.35938 z "
     transform="scale(0.74999998)"
     id="path12871" />
  <path
     style="fill:#000000;stroke-width:1.33333337"
     d="M 680.99805 476.94336 C 678.49219 476.95598 675.98547 477.01414 673.48047 477.11914 C 634.6138 478.87914 596.50662 491.66599 564.61328 513.97266 C 531.66661 536.87932 505.70727 569.55924 490.94727 606.89258 C 475.58727 645.34591 472.26654 688.37242 481.5332 728.73242 C 489.98654 766.07909 509.07906 800.77266 536.03906 827.97266 C 562.8924 855.06599 597.28005 874.45424 634.38672 883.26758 C 673.05339 892.61425 714.3331 890.35925 751.75977 876.89258 C 787.3731 864.23924 819.1595 841.54742 842.82617 812.10742 C 865.39951 784.12075 880.41258 750.17362 885.89258 714.62695 C 892.06591 675.62695 886.57372 634.94659 870.40039 598.91992 C 853.37372 560.58659 824.34698 527.84065 788.32031 506.33398 C 756.09531 486.92148 718.58584 476.75405 680.99805 476.94336 z M 635.49414 528.17578 C 659.68008 527.94399 683.73531 536.57719 702.03906 552.58594 C 717.1724 565.6526 728.20057 583.28029 733.25391 602.62695 C 738.22724 621.29362 737.57313 641.42609 731.45312 659.74609 C 724.97312 679.37276 712.20081 696.81427 695.49414 708.96094 C 680.58747 719.80094 662.65391 726.53411 644.25391 727.80078 C 622.33391 729.60078 599.99935 723.81336 581.66602 711.69336 C 564.18602 700.28003 550.54648 683.23909 543.14648 663.73242 C 536.71982 646.91909 535.02682 628.38602 538.16016 610.66602 C 542.02682 588.53268 553.61286 567.94648 570.51953 553.14648 C 584.91953 540.35982 603.04008 532.0399 622.08008 529.22656 C 626.53216 528.56615 631.01526 528.21871 635.49414 528.17578 z "
     transform="scale(0.74999998)"
     id="path12875" />
</svg>
