<?xml version="1.0" encoding="UTF-8" standalone="no"?>
<svg
   xmlns:dc="http://purl.org/dc/elements/1.1/"
   xmlns:cc="http://creativecommons.org/ns#"
   xmlns:rdf="http://www.w3.org/1999/02/22-rdf-syntax-ns#"
   xmlns:svg="http://www.w3.org/2000/svg"
   xmlns="http://www.w3.org/2000/svg"
   xmlns:sodipodi="http://sodipodi.sourceforge.net/DTD/sodipodi-0.dtd"
   xmlns:inkscape="http://www.inkscape.org/namespaces/inkscape"
   viewBox="0 0 1024 1024"
   height="1024.0pt"
   width="1024.0pt"
   version="1.1"
   id="svg12300"
   sodipodi:docname="Expand.svg"
   inkscape:version="0.92.2 (5c3e80d, 2017-08-06)">
  <metadata
     id="metadata12306">
    <rdf:RDF>
      <cc:Work
         rdf:about="">
        <dc:format>image/svg+xml</dc:format>
        <dc:type
           rdf:resource="http://purl.org/dc/dcmitype/StillImage" />
        <dc:title></dc:title>
      </cc:Work>
    </rdf:RDF>
  </metadata>
  <defs
     id="defs12304" />
  <sodipodi:namedview
     pagecolor="#ffffff"
     bordercolor="#666666"
     borderopacity="1"
     objecttolerance="10"
     gridtolerance="10"
     guidetolerance="10"
     inkscape:pageopacity="0"
     inkscape:pageshadow="2"
     inkscape:window-width="716"
     inkscape:window-height="480"
     id="namedview12302"
     showgrid="false"
     inkscape:pagecheckerboard="true"
     inkscape:zoom="0.17285156"
     inkscape:cx="682.66667"
     inkscape:cy="682.66667"
     inkscape:window-x="0"
     inkscape:window-y="0"
     inkscape:window-maximized="0"
     inkscape:current-layer="svg12300" />
  <path
     d="M 0.00 0.00 L 1024.00 0.00 L 1024.00 1024.00 L 0.00 1024.00 L 0.00 0.00 Z"
     fill="#fefefe"
     id="path12292"
     style="opacity:0" />
  <path
     d="M 167.00 70.01 C 399.00 70.02 631.00 70.01 863.00 70.01 C 877.26 69.99 891.47 73.33 904.17 79.83 C 920.62 88.19 934.36 101.69 943.00 118.00 C 950.07 131.16 953.59 146.03 953.54 160.96 C 953.53 395.32 953.55 629.68 953.53 864.05 C 953.54 889.03 942.71 913.43 924.23 930.24 C 910.95 942.47 893.95 950.56 876.07 953.07 C 869.03 954.15 862.09 954.01 855.00 953.99 C 623.33 953.99 391.67 953.99 160.00 953.99 C 145.01 954.01 130.07 950.29 116.90 943.11 C 102.62 935.38 90.52 923.73 82.22 909.78 C 73.98 896.00 69.59 880.05 69.57 864.00 C 69.56 629.33 69.56 394.67 69.57 160.00 C 69.61 142.75 74.67 125.57 84.14 111.14 C 94.65 94.95 110.41 82.30 128.53 75.61 C 140.89 70.92 153.86 69.60 167.00 70.01 Z"
     fill="#000000"
     id="path12294" />
  <path
     d="M 613.00 157.68 C 626.00 157.66 639.00 157.92 652.00 157.86 C 695.98 158.33 740.01 157.93 784.00 158.15 C 791.64 158.13 799.36 157.94 807.00 158.25 C 815.87 158.71 825.17 157.92 834.05 158.82 C 847.93 161.10 860.44 172.48 863.88 186.15 C 865.68 192.17 865.48 198.80 865.46 205.00 C 865.45 259.67 865.46 314.33 865.45 369.00 C 865.36 374.68 865.88 380.33 865.91 386.00 C 865.92 397.68 865.89 409.36 865.93 421.04 C 866.01 431.89 862.11 442.63 854.16 450.17 C 846.76 457.59 836.55 461.43 826.15 461.63 C 820.01 460.82 813.97 459.56 808.55 456.45 C 799.47 451.52 792.90 442.92 790.02 433.05 C 788.03 427.29 788.79 421.94 788.68 416.00 C 788.75 410.66 788.26 405.34 788.20 400.00 C 788.22 367.33 788.20 334.67 788.21 302.00 C 788.24 298.43 788.26 294.86 788.06 291.30 C 786.58 292.39 785.17 293.57 783.91 294.91 C 772.07 307.06 759.75 318.77 748.08 331.08 C 741.67 337.35 735.57 343.90 728.94 349.94 C 696.68 382.35 664.02 414.36 631.74 446.75 C 623.80 455.43 613.03 461.36 601.00 460.83 C 582.57 461.17 566.28 446.75 563.23 428.76 C 561.16 420.40 563.48 411.73 567.17 404.17 C 571.02 396.78 577.82 391.63 583.53 385.53 C 619.36 349.65 655.56 314.19 691.19 278.19 C 704.75 265.07 717.78 251.43 731.32 238.29 C 732.16 237.48 732.65 236.48 733.16 235.46 C 693.11 235.24 653.05 235.37 613.00 235.33 C 605.21 235.18 598.08 236.12 590.51 233.59 C 574.36 229.19 562.59 213.69 562.31 197.02 C 561.98 180.54 573.01 164.92 588.71 159.81 C 596.87 156.91 604.54 157.73 613.00 157.68 Z"
     fill="#fefefe"
     id="path12296" />
  <path
     d="M 197.02 562.85 C 208.04 563.60 218.64 567.48 225.94 576.06 C 231.30 581.80 234.56 589.49 235.68 597.20 C 236.00 605.14 235.52 613.06 236.19 621.00 C 236.36 658.42 236.12 695.88 236.31 733.30 C 239.87 730.48 242.74 727.23 245.98 724.00 C 256.51 713.46 267.10 703.12 277.38 692.36 C 284.65 684.96 292.11 677.78 299.52 670.52 C 329.98 639.98 360.71 609.70 391.23 579.23 C 396.02 574.07 401.13 569.47 407.71 566.71 C 414.63 563.38 422.39 563.05 429.87 564.08 C 445.77 566.83 458.55 579.94 461.23 595.79 C 463.15 604.28 461.03 612.73 457.27 620.38 C 453.73 626.98 448.56 631.21 443.40 636.41 C 406.44 673.47 369.06 710.09 332.26 747.26 C 324.84 754.50 317.48 761.82 310.21 769.21 C 303.94 775.90 296.88 781.91 290.90 788.85 C 295.27 789.20 299.63 789.10 304.00 789.10 C 343.68 789.12 383.37 789.13 423.04 789.10 C 428.05 789.09 433.08 790.42 437.75 792.15 C 454.55 798.69 465.12 817.65 461.38 835.37 C 460.15 842.40 456.64 848.68 452.02 854.04 C 444.65 862.15 433.98 866.72 423.04 866.80 C 406.02 866.88 389.01 866.49 372.00 866.52 C 316.70 866.09 261.29 866.65 206.00 866.14 C 201.11 866.17 196.17 866.19 191.30 865.76 C 180.90 864.38 172.18 858.26 166.01 849.98 C 161.19 843.31 159.16 835.15 159.01 827.00 C 158.97 768.68 159.04 710.31 158.97 652.00 C 158.23 635.35 158.66 618.68 158.54 602.00 C 158.70 587.63 166.69 574.12 179.52 567.53 C 184.99 564.51 190.87 563.49 197.02 562.85 Z"
     fill="#fefefe"
     id="path12298" />
</svg>
