<?xml version="1.0" encoding="UTF-8" standalone="no"?>
<svg
   xmlns:dc="http://purl.org/dc/elements/1.1/"
   xmlns:cc="http://creativecommons.org/ns#"
   xmlns:rdf="http://www.w3.org/1999/02/22-rdf-syntax-ns#"
   xmlns:svg="http://www.w3.org/2000/svg"
   xmlns="http://www.w3.org/2000/svg"
   xmlns:sodipodi="http://sodipodi.sourceforge.net/DTD/sodipodi-0.dtd"
   xmlns:inkscape="http://www.inkscape.org/namespaces/inkscape"
   viewBox="0 0 500 500"
   height="500.0pt"
   width="500.0pt"
   version="1.1"
   id="svg835"
   sodipodi:docname="Search2.svg"
   inkscape:version="0.92.2 (5c3e80d, 2017-08-06)">
  <metadata
     id="metadata841">
    <rdf:RDF>
      <cc:Work
         rdf:about="">
        <dc:format>image/svg+xml</dc:format>
        <dc:type
           rdf:resource="http://purl.org/dc/dcmitype/StillImage" />
        <dc:title></dc:title>
      </cc:Work>
    </rdf:RDF>
  </metadata>
  <defs
     id="defs839" />
  <sodipodi:namedview
     pagecolor="#ffffff"
     bordercolor="#666666"
     borderopacity="1"
     objecttolerance="10"
     gridtolerance="10"
     guidetolerance="10"
     inkscape:pageopacity="0"
     inkscape:pageshadow="2"
     inkscape:window-width="1920"
     inkscape:window-height="1017"
     id="namedview837"
     showgrid="false"
     inkscape:pagecheckerboard="true"
     inkscape:zoom="1.275"
     inkscape:cx="333.33333"
     inkscape:cy="333.33333"
     inkscape:window-x="-8"
     inkscape:window-y="-8"
     inkscape:window-maximized="1"
     inkscape:current-layer="svg835" />
  <path
     d="M 0.00 0.00 L 500.00 0.00 L 500.00 500.00 L 0.00 500.00 L 0.00 0.00 Z"
     fill="#ffffff"
     id="path829"
     style="opacity:0" />
  <path
     style="fill:#000000;stroke-width:1.33333337"
     d="M 270.12305 74.474609 C 268.58305 74.474193 267.02979 74.545755 265.45312 74.732422 C 253.31979 75.545755 241.33346 76.479297 229.4668 79.279297 C 195.40013 86.519297 163.32094 103.37391 137.96094 127.25391 C 101.5076 161.05391 79.546328 209.06763 76.986328 258.6543 C 75.919661 277.00096 78.053229 295.63953 82.226562 313.51953 C 91.733229 353.21287 114.08005 389.66591 145.38672 415.89258 C 176.74672 442.45258 216.6143 458.69255 257.6543 461.19922 C 290.3343 463.54589 323.02677 457.03979 352.77344 443.45312 C 360.0801 451.11979 368.15958 458.14698 374.90625 466.32031 C 410.01292 501.46698 445.16091 536.58609 480.26758 571.74609 C 489.46758 581.41276 501.8524 588.7475 515.03906 591.1875 C 531.62573 594.89417 549.86737 590.80008 563.7207 581.08008 C 584.1207 567.14674 595.30747 540.17367 589.49414 516.01367 C 587.14747 504.027 580.85359 492.42607 571.93359 484.05273 C 563.14693 475.0794 553.99979 466.42656 545.45312 457.22656 C 511.49312 423.14656 477.65287 389.16057 443.51953 355.25391 C 457.43953 326.85391 464.61417 295.57393 464.1875 263.94727 C 463.3875 248.61393 461.57414 233.48096 457.49414 218.6543 C 447.44081 180.26763 425.15935 145.33427 394.66602 119.96094 C 363.62601 93.93427 324.38761 78.093984 283.96094 75.333984 C 279.25094 75.133984 274.74305 74.475859 270.12305 74.474609 z M 269.0918 124.6543 C 283.14748 124.47916 297.26193 126.52997 310.74609 130.30664 C 339.70609 138.45331 365.71937 155.9726 384.35938 179.58594 C 407.74604 208.86594 419.22721 247.98656 414.56055 285.22656 C 410.06721 329.26656 383.78625 369.85294 345.90625 392.59961 C 314.75958 411.73294 276.42609 417.97425 240.74609 410.26758 C 198.41276 401.52091 161.28068 372.62599 142.02734 333.97266 C 133.85401 317.98599 129.03982 300.54576 127.14648 282.73242 C 126.73315 274.26575 126.74641 265.77365 127.06641 257.32031 C 130.01307 220.76031 147.3725 185.85253 174.8125 161.50586 C 195.6925 142.75919 222.24068 130.26698 250.02734 126.32031 C 256.32734 125.27448 262.70285 124.7339 269.0918 124.6543 z "
     transform="scale(0.74999998)"
     id="path831" />
</svg>
