<?xml version="1.0" encoding="UTF-8" standalone="no"?>
<!DOCTYPE svg PUBLIC "-//W3C//DTD SVG 1.1//EN" "http://www.w3.org/Graphics/SVG/1.1/DTD/svg11.dtd">
<svg viewBox="0 0 1322 793" height="793.0pt" width="1322.0pt" xmlns="http://www.w3.org/2000/svg" version="1.1">
<path d="M 0.00 0.00 L 1322.00 0.00 L 1322.00 793.00 L 0.00 793.00 L 0.00 0.00 Z" fill="#ebebeb" />
<path d="M 499.29 220.11 C 501.08 219.52 503.14 219.62 505.00 219.58 C 533.02 219.74 561.07 219.47 589.08 219.71 C 591.62 224.81 593.17 230.43 595.14 235.87 C 632.67 342.33 670.16 448.83 707.72 555.28 C 709.36 560.03 711.24 564.68 712.62 569.51 C 686.17 569.59 659.69 569.59 633.24 569.50 C 624.38 542.18 616.58 514.35 607.82 486.97 C 604.22 486.52 600.62 486.59 597.00 486.64 C 558.62 486.70 520.21 486.60 481.84 486.68 C 480.97 488.28 480.15 489.89 479.61 491.63 C 473.47 512.11 467.23 532.55 460.98 552.99 C 459.17 558.49 457.87 564.12 455.74 569.49 C 429.27 569.62 402.78 569.56 376.31 569.52 C 416.83 453.97 457.43 338.44 497.96 222.90 C 498.33 221.93 498.78 220.99 499.29 220.11 Z" fill="#cecece" />
<path d="M 544.28 276.10 L 544.89 276.40 C 546.70 281.67 547.76 287.24 549.48 292.56 C 561.30 331.86 573.62 371.01 585.74 410.21 C 587.17 414.99 588.99 419.56 589.93 424.48 C 560.00 424.60 530.04 424.61 500.12 424.47 C 500.85 420.37 502.25 416.51 503.50 412.56 C 516.22 370.82 529.17 329.07 541.12 287.11 C 542.18 283.46 542.91 279.64 544.28 276.10 Z" fill="#ebebeb" />
<path d="M 841.99 304.34 C 860.07 303.60 877.77 304.34 895.17 309.78 C 909.49 314.39 922.35 322.54 930.72 335.28 C 940.99 350.67 944.02 370.86 944.33 389.00 C 944.36 444.66 944.33 500.34 944.35 556.00 C 944.33 560.53 944.60 565.00 943.98 569.52 C 934.32 569.42 924.53 569.95 914.91 569.25 C 912.92 561.27 911.46 553.17 909.73 545.14 C 908.67 540.48 908.34 536.21 906.22 531.92 C 903.38 534.56 901.05 537.61 898.49 540.50 C 890.11 549.59 881.69 557.85 870.61 563.63 C 855.06 571.75 837.34 574.24 820.00 574.43 C 804.40 574.65 789.19 572.69 774.89 566.15 C 759.60 559.22 746.99 546.89 740.84 531.14 C 734.97 516.04 733.63 498.95 736.10 482.99 C 738.51 467.80 746.05 453.75 757.75 443.72 C 772.43 430.89 791.26 424.22 810.04 420.08 C 829.01 416.04 848.63 414.53 868.00 414.22 C 878.00 413.69 888.00 413.43 898.00 413.31 C 900.54 413.29 903.06 412.99 905.56 412.62 C 905.73 401.15 906.09 389.21 904.08 378.00 C 902.55 368.82 899.33 359.87 893.40 352.59 C 888.31 346.42 881.42 342.44 873.86 340.07 C 866.35 337.61 858.84 337.05 851.00 336.67 C 826.40 336.99 802.89 344.44 780.81 354.85 C 779.33 355.49 777.84 356.08 776.35 356.67 C 772.25 346.73 768.31 336.72 764.31 326.75 C 766.02 325.59 767.75 324.47 769.62 323.58 C 792.19 312.58 816.92 305.94 841.99 304.34 Z" fill="#cecece" />
<path d="M 881.01 442.29 C 888.82 441.79 896.61 441.24 904.45 441.49 C 904.66 449.33 904.43 457.16 904.53 465.00 C 904.70 474.37 903.49 483.84 900.84 492.84 C 896.63 507.11 887.53 519.85 875.20 528.22 C 862.71 536.88 848.00 540.48 833.00 541.45 C 822.93 541.89 813.24 541.69 803.62 538.35 C 795.25 535.53 787.81 530.51 783.00 522.99 C 777.46 514.57 776.01 503.87 776.55 493.99 C 777.12 482.83 781.11 472.05 789.02 464.02 C 797.26 455.78 808.53 451.54 819.57 448.58 C 839.28 443.66 860.76 442.75 881.01 442.29 Z" fill="#ebebeb" /></svg>