<?xml version="1.0" encoding="UTF-8" standalone="no"?>
<!DOCTYPE svg PUBLIC "-//W3C//DTD SVG 1.1//EN" "http://www.w3.org/Graphics/SVG/1.1/DTD/svg11.dtd">
<svg viewBox="0 0 1322 793" height="793.0pt" width="1322.0pt" xmlns="http://www.w3.org/2000/svg" version="1.1">
<path d="M 0.00 0.00 L 1322.00 0.00 L 1322.00 793.00 L 0.00 793.00 L 0.00 0.00 Z" fill="#ebebeb" />
<path d="M 910.97 205.79 C 928.67 205.88 946.34 205.88 964.04 205.79 C 967.82 205.95 971.28 205.90 973.51 209.47 C 976.23 214.00 975.26 220.88 975.41 226.00 C 975.35 342.68 975.41 459.37 975.38 576.05 C 975.39 580.59 973.77 584.54 969.31 586.24 C 964.53 587.64 958.95 586.82 954.00 586.94 C 941.00 587.08 928.00 586.92 915.00 587.03 C 911.24 586.83 906.18 587.24 902.91 585.12 C 899.11 582.20 898.93 576.39 898.79 572.02 C 898.83 508.35 898.80 444.67 898.81 381.00 C 898.71 369.66 899.14 358.34 898.82 347.00 C 898.78 305.34 898.84 263.66 898.80 222.00 C 898.96 217.92 898.72 212.56 900.99 209.00 C 903.13 205.86 907.59 205.95 910.97 205.79 Z" fill="#cecece" />
<path d="M 516.84 209.16 C 519.45 209.54 521.57 211.06 522.44 213.59 C 523.98 218.03 523.66 223.38 523.66 228.03 C 523.30 242.00 523.19 255.98 523.59 269.95 C 523.71 285.31 523.64 300.65 523.35 316.00 C 523.64 330.55 523.73 345.09 523.53 359.64 C 523.37 367.74 523.97 375.94 523.29 384.01 C 522.74 390.78 518.65 395.70 515.43 401.44 C 501.03 426.59 486.66 451.20 472.32 476.35 C 462.83 491.98 454.02 507.98 444.78 523.76 C 441.87 528.72 439.40 534.27 435.71 538.70 C 432.84 542.21 427.92 541.72 424.39 539.55 C 420.00 536.76 416.09 533.19 411.92 530.08 C 404.88 524.73 399.05 518.38 392.95 512.05 C 388.24 507.14 384.28 501.40 380.03 495.95 C 375.99 490.78 372.89 485.12 369.53 479.52 C 363.34 469.49 359.12 458.02 355.00 447.00 C 350.52 433.02 347.72 418.21 346.55 403.58 C 346.27 394.38 346.26 384.79 346.56 375.59 C 348.36 356.48 352.50 337.75 360.06 320.06 C 367.16 303.49 376.67 287.99 387.96 273.95 C 397.32 263.09 407.71 252.80 419.33 244.34 C 426.44 238.37 434.48 234.09 442.47 229.48 C 450.17 225.18 458.51 221.91 466.73 218.75 C 477.66 214.50 489.61 212.24 501.14 210.25 C 506.25 209.58 511.71 208.53 516.84 209.16 Z" fill="#cecece" />
<path d="M 554.86 209.20 C 568.65 210.39 582.44 212.96 595.54 217.51 C 614.06 224.10 631.47 232.84 646.94 245.07 C 659.68 254.42 670.96 265.93 680.44 278.55 C 686.86 286.19 691.60 294.71 696.69 303.25 C 702.44 314.11 706.98 325.67 710.60 337.40 C 711.53 340.68 712.62 344.50 712.09 347.91 C 711.37 351.05 708.57 352.75 705.71 353.70 C 700.83 355.25 695.43 355.62 690.38 356.54 C 666.17 361.18 641.78 364.86 617.59 369.64 C 602.24 372.25 586.92 375.04 571.56 377.57 C 565.08 378.60 558.52 380.52 551.96 380.73 C 548.37 380.81 544.51 379.31 543.38 375.61 C 542.26 371.67 542.48 367.13 542.53 363.05 C 542.87 347.70 542.77 332.35 542.62 317.00 C 542.52 298.33 542.97 279.67 542.71 261.00 C 542.42 248.00 542.83 235.00 542.68 222.00 C 542.83 218.81 542.62 214.31 544.71 211.69 C 547.26 208.68 551.30 209.05 554.86 209.20 Z" fill="#cecece" />
<path d="M 704.00 246.85 C 720.01 246.99 736.04 246.88 752.04 246.88 C 756.41 247.05 760.94 247.38 763.05 251.84 C 764.73 257.14 763.79 263.47 763.94 269.00 C 763.95 371.33 763.91 473.73 763.96 576.06 C 763.78 579.09 763.68 582.06 761.29 584.26 C 758.51 586.91 754.64 586.92 751.04 587.02 C 734.35 586.86 717.66 587.01 700.98 587.04 C 697.61 586.85 693.18 587.04 690.75 584.27 C 688.11 581.48 688.28 576.62 688.21 573.04 C 688.55 559.06 688.05 545.02 688.41 531.06 C 688.44 525.96 692.69 522.35 695.57 518.57 C 717.49 490.75 732.04 457.12 737.07 422.04 C 742.48 385.01 737.77 346.45 722.96 312.04 C 716.58 296.63 707.98 282.30 698.11 268.89 C 695.34 265.09 691.64 261.66 689.47 257.49 C 687.97 254.62 688.65 250.25 691.72 248.67 C 695.26 246.81 700.09 246.93 704.00 246.85 Z" fill="#cecece" />
<path d="M 805.96 307.10 C 821.64 307.14 837.33 307.23 853.01 307.08 C 856.94 307.15 862.30 306.87 865.55 309.45 C 868.52 311.78 868.65 315.49 868.83 318.95 C 868.78 400.50 868.83 482.40 868.81 564.00 C 868.73 569.21 869.23 574.59 868.49 579.75 C 867.96 583.45 864.42 586.23 860.84 586.71 C 856.32 587.35 851.57 586.91 847.00 586.94 C 835.67 587.04 824.33 586.84 813.00 587.03 C 808.51 587.00 803.82 587.24 799.40 586.41 C 796.16 585.78 793.66 583.17 793.13 579.91 C 792.25 574.40 792.82 568.58 792.73 563.00 C 792.70 481.78 792.78 400.14 792.69 318.97 C 792.85 316.02 792.82 312.29 795.12 310.09 C 797.97 307.21 802.19 307.23 805.96 307.10 Z" fill="#cecece" />
<path d="M 714.25 374.78 C 716.29 379.28 715.93 385.04 716.39 389.90 C 717.29 400.57 715.94 410.89 714.53 421.44 C 711.87 440.00 705.87 457.97 697.83 474.87 C 693.49 483.15 688.36 491.33 682.98 498.96 C 676.76 507.01 670.22 515.90 662.39 522.40 C 660.18 524.13 657.76 525.49 655.00 524.03 C 651.43 521.93 648.69 518.11 645.96 515.04 C 619.84 483.52 593.34 452.30 567.26 420.74 C 564.01 416.74 560.05 413.07 557.34 408.68 C 555.07 405.15 556.05 399.92 559.86 397.91 C 562.76 396.47 566.25 395.97 569.41 395.39 C 587.35 392.68 605.05 388.72 623.01 386.03 C 649.63 381.28 676.30 376.70 702.89 371.78 C 706.80 371.20 711.98 370.74 714.25 374.78 Z" fill="#cecece" />
<path d="M 537.04 412.96 C 539.57 414.06 541.64 416.55 543.37 418.63 C 552.06 429.57 561.28 440.09 570.12 450.90 C 572.40 453.61 574.77 456.23 577.04 458.95 C 596.18 482.42 616.22 505.16 635.39 528.61 C 637.42 531.31 640.56 534.93 639.53 538.55 C 638.40 542.48 633.81 545.41 630.60 547.61 C 621.07 553.48 611.74 559.15 601.30 563.29 C 586.18 569.43 570.04 574.16 553.75 575.65 C 535.38 577.23 517.37 577.33 499.18 573.86 C 487.81 571.38 476.72 568.57 466.00 564.01 C 461.76 562.17 456.93 560.60 453.23 557.79 C 451.10 556.16 450.42 553.62 450.76 551.03 C 451.28 547.07 453.76 543.15 455.74 539.73 C 461.12 530.72 466.30 521.59 471.46 512.45 C 478.09 501.37 484.57 490.20 491.03 479.03 C 500.55 461.98 510.56 445.21 520.23 428.25 C 522.68 424.07 524.67 419.47 527.57 415.59 C 529.63 412.64 533.78 411.69 537.04 412.96 Z" fill="#cecece" />
<path d="M 656.93 556.96 C 658.33 563.43 657.91 570.35 657.67 576.94 C 657.54 581.87 653.79 585.19 649.20 586.18 C 644.32 587.09 638.98 586.16 634.00 586.30 C 623.91 586.62 613.71 586.72 603.65 585.80 C 605.41 584.36 607.23 583.09 609.41 582.36 C 620.18 578.65 630.52 573.08 640.33 567.33 C 646.04 564.04 650.96 559.81 656.93 556.96 Z" fill="#cecece" /></svg>