<?xml version="1.0" encoding="UTF-8" standalone="no"?>
<svg
   xmlns:dc="http://purl.org/dc/elements/1.1/"
   xmlns:cc="http://creativecommons.org/ns#"
   xmlns:rdf="http://www.w3.org/1999/02/22-rdf-syntax-ns#"
   xmlns:svg="http://www.w3.org/2000/svg"
   xmlns="http://www.w3.org/2000/svg"
   xmlns:sodipodi="http://sodipodi.sourceforge.net/DTD/sodipodi-0.dtd"
   xmlns:inkscape="http://www.inkscape.org/namespaces/inkscape"
   viewBox="0 0 1024 1024"
   height="1024.0pt"
   width="1024.0pt"
   version="1.1"
   id="svg7132"
   sodipodi:docname="Comment Notification.svg"
   inkscape:version="0.92.2 (5c3e80d, 2017-08-06)">
  <metadata
     id="metadata7138">
    <rdf:RDF>
      <cc:Work
         rdf:about="">
        <dc:format>image/svg+xml</dc:format>
        <dc:type
           rdf:resource="http://purl.org/dc/dcmitype/StillImage" />
        <dc:title></dc:title>
      </cc:Work>
    </rdf:RDF>
  </metadata>
  <defs
     id="defs7136" />
  <sodipodi:namedview
     pagecolor="#ffffff"
     bordercolor="#666666"
     borderopacity="1"
     objecttolerance="10"
     gridtolerance="10"
     guidetolerance="10"
     inkscape:pageopacity="0"
     inkscape:pageshadow="2"
     inkscape:window-width="716"
     inkscape:window-height="480"
     id="namedview7134"
     showgrid="false"
     inkscape:pagecheckerboard="true"
     inkscape:zoom="0.17285156"
     inkscape:cx="682.66667"
     inkscape:cy="682.66667"
     inkscape:window-x="0"
     inkscape:window-y="0"
     inkscape:window-maximized="0"
     inkscape:current-layer="svg7132" />
  <path
     d="M 0.00 0.00 L 1024.00 0.00 L 1024.00 1024.00 L 0.00 1024.00 L 0.00 0.00 Z"
     fill="#fefefe"
     id="path7120"
     style="opacity:0" />
  <path
     d="M 694.54 36.46 C 740.92 54.13 784.60 78.82 823.88 109.15 C 868.88 143.93 907.99 186.28 939.04 233.93 C 969.65 281.04 992.68 333.26 1006.26 387.80 C 1023.34 454.98 1026.32 525.61 1015.14 594.01 C 1005.84 651.02 986.88 706.42 959.07 757.06 C 937.22 796.85 910.06 833.86 878.45 866.46 C 838.83 907.48 792.28 941.69 741.34 967.33 C 683.05 996.73 619.07 1014.71 554.00 1020.02 C 489.42 1025.46 423.83 1018.16 361.92 999.06 C 317.72 985.39 275.28 965.70 236.42 940.60 C 152.08 886.58 84.57 807.06 44.87 715.12 C 16.12 649.12 1.68 576.98 2.76 505.00 C 3.73 435.19 19.19 365.65 48.09 302.09 C 74.39 243.75 111.94 190.44 158.00 146.01 C 229.42 76.72 321.38 29.14 419.31 11.34 C 511.02 -6.02 607.45 2.96 694.54 36.46 Z"
     fill="#e6e5e6"
     id="path7122" />
  <path
     d="M 669.79 287.18 C 702.28 301.55 732.80 320.83 758.12 345.88 C 775.50 362.93 790.53 382.98 801.03 404.98 C 812.23 428.31 818.32 454.08 817.96 480.00 C 817.84 512.50 807.65 543.97 790.37 571.34 C 771.73 601.20 744.75 626.25 715.37 645.36 C 685.62 664.57 652.95 678.51 618.81 687.79 C 574.74 699.76 528.52 703.97 482.98 700.81 C 478.85 705.09 475.23 709.82 470.99 714.00 C 456.71 728.96 440.55 741.95 423.26 753.26 C 416.64 757.27 409.89 761.11 402.56 763.58 C 383.94 769.94 362.89 769.22 344.92 761.09 C 320.00 750.27 302.02 725.93 298.75 698.99 C 297.64 690.21 298.10 681.41 299.61 672.70 C 301.41 662.50 302.37 652.16 302.37 641.80 C 298.72 638.66 294.63 636.14 290.84 633.18 C 266.58 614.79 244.86 591.83 229.58 565.40 C 214.31 539.17 205.52 509.45 205.57 479.00 C 205.34 448.72 213.86 419.07 228.88 392.88 C 240.90 371.84 256.77 352.93 274.96 336.95 C 294.86 319.20 317.22 304.87 341.10 293.08 C 385.65 271.28 434.60 259.38 484.00 256.12 C 547.19 252.06 611.64 261.71 669.79 287.18 Z"
     fill="#b8b6b9"
     id="path7124" />
  <path
     d="M 554.64 325.46 C 592.69 330.58 630.66 342.49 663.64 362.37 C 688.88 377.82 711.02 397.14 726.11 422.90 C 736.42 440.41 742.34 460.60 741.70 481.00 C 741.22 503.58 733.06 524.83 720.23 543.23 C 705.27 564.79 685.24 581.37 662.94 594.91 C 625.98 616.98 582.69 629.26 539.97 633.02 C 513.98 635.26 487.81 634.63 462.01 630.72 C 455.94 629.89 450.08 628.88 444.17 631.14 C 439.18 632.90 435.78 636.53 432.51 640.51 C 426.18 648.51 419.72 656.40 413.35 664.36 C 407.63 672.30 399.93 679.18 392.45 685.43 C 389.38 687.82 386.13 690.72 382.00 690.66 C 376.07 690.84 370.50 685.96 370.13 680.02 C 370.11 675.54 371.13 671.07 371.48 666.60 C 372.84 651.67 374.04 636.97 373.03 622.01 C 372.80 618.82 372.62 615.37 371.68 612.31 C 370.49 608.55 368.22 605.31 365.18 602.82 C 349.68 589.94 334.21 579.62 320.03 565.98 C 304.45 550.55 291.07 531.67 284.37 510.63 C 277.29 489.13 277.57 465.45 285.09 444.10 C 293.37 420.12 309.33 399.81 328.34 383.33 C 354.53 360.80 386.39 345.18 419.38 335.42 C 462.98 322.59 509.63 319.61 554.64 325.46 Z"
     fill="#e6e4e7"
     id="path7126" />
  <path
     d="M 404.00 406.45 C 475.67 406.46 547.33 406.46 619.00 406.45 C 623.15 406.50 627.40 406.23 631.53 406.72 C 640.38 408.12 647.98 414.83 650.57 423.40 C 654.43 434.90 647.99 448.28 636.84 452.82 C 631.28 455.32 625.91 454.84 620.00 454.83 C 548.00 454.83 476.00 454.82 404.00 454.83 C 398.06 454.81 392.74 455.35 387.17 452.81 C 377.88 448.91 371.75 439.06 372.45 428.99 C 373.06 420.20 378.48 412.17 386.55 408.54 C 392.27 405.73 397.84 406.56 404.00 406.45 Z"
     fill="#b8b6b9"
     id="path7128" />
  <path
     d="M 406.00 501.35 C 479.34 501.35 552.67 501.35 626.01 501.34 C 632.38 501.33 638.64 503.30 643.43 507.58 C 648.69 512.08 651.67 519.13 651.72 526.00 C 651.49 532.11 649.05 538.32 644.67 542.66 C 640.34 547.23 634.26 549.76 628.00 550.00 C 621.35 550.27 614.66 550.09 608.00 549.93 C 596.65 549.65 585.35 550.42 574.00 549.88 C 558.66 550.09 543.34 550.30 528.00 549.91 C 513.67 549.77 499.33 550.23 485.00 549.95 C 477.65 550.24 470.34 549.73 463.00 550.07 C 455.99 550.32 449.00 549.84 442.00 549.89 C 432.33 550.19 422.67 550.22 413.00 549.91 C 405.65 549.76 397.12 550.90 389.97 549.04 C 379.11 546.02 371.63 535.20 372.46 523.99 C 373.11 514.46 379.80 505.83 388.87 502.83 C 394.43 500.79 400.15 501.42 406.00 501.35 Z"
     fill="#b8b6b9"
     id="path7130" />
</svg>
