<?xml version="1.0" encoding="UTF-8" standalone="no"?>
<!DOCTYPE svg PUBLIC "-//W3C//DTD SVG 1.1//EN" "http://www.w3.org/Graphics/SVG/1.1/DTD/svg11.dtd">
<svg viewBox="0 0 1322 793" height="793.0pt" width="1322.0pt" xmlns="http://www.w3.org/2000/svg" version="1.1">
<path d="M 0.00 0.00 L 1322.00 0.00 L 1322.00 793.00 L 0.00 793.00 L 0.00 0.00 Z" fill="#ebebeb" />
<path d="M 463.00 160.15 C 595.33 160.15 727.67 160.15 860.00 160.15 C 867.19 160.20 874.50 159.75 881.49 161.65 C 888.49 163.54 895.28 166.57 901.19 170.81 C 911.82 178.31 919.41 189.51 922.92 202.01 C 925.55 210.67 924.75 219.03 924.89 228.00 C 924.76 243.21 925.09 258.43 924.70 273.64 C 910.80 273.90 896.88 273.74 882.98 273.70 C 878.60 273.82 874.55 273.95 871.35 277.36 C 868.37 280.34 868.21 283.98 868.10 287.96 C 868.15 360.66 868.07 433.35 868.12 506.05 C 868.19 509.92 868.76 513.51 871.75 516.25 C 875.80 520.16 881.56 519.65 886.75 519.58 C 895.76 519.10 904.75 519.88 913.75 519.47 C 917.46 519.33 921.14 519.56 924.84 519.81 C 924.89 538.88 924.91 557.95 924.86 577.03 C 924.93 586.44 922.21 595.51 917.78 603.75 C 910.48 617.30 897.15 627.39 882.33 631.35 C 875.08 633.41 867.47 633.04 860.00 633.09 C 724.00 633.08 588.00 633.08 452.00 633.09 C 441.78 633.10 431.64 630.47 422.89 625.15 C 409.21 617.20 399.27 603.37 396.05 587.88 C 394.59 580.56 395.09 572.47 395.03 565.00 C 395.12 549.94 394.86 534.87 395.14 519.81 C 405.97 519.09 416.90 519.66 427.76 519.47 C 434.15 519.33 443.28 521.32 448.11 516.10 C 453.08 511.54 451.55 504.03 451.73 498.00 C 451.68 430.69 451.72 363.31 451.72 296.00 C 451.58 290.43 452.93 282.53 448.97 278.03 C 446.50 274.83 442.95 273.86 439.05 273.78 C 424.46 273.59 409.85 274.00 395.26 273.63 C 394.73 261.10 395.17 248.54 395.03 236.00 C 395.15 227.69 394.74 219.33 395.27 211.04 C 396.13 201.03 400.18 191.18 406.11 183.12 C 414.26 171.82 426.76 164.33 440.25 161.33 C 447.53 159.69 455.53 160.20 463.00 160.15 Z" fill="#cecece" />
<path d="M 451.55 198.41 C 454.63 197.87 457.89 197.93 461.01 197.92 C 470.56 198.06 480.10 197.76 489.65 198.18 C 489.59 210.71 489.58 223.25 489.65 235.79 C 479.43 236.05 469.21 235.66 458.99 235.98 C 456.84 235.83 453.72 236.31 451.86 235.14 C 450.83 230.62 451.50 225.62 451.41 221.00 C 451.63 213.49 451.00 205.90 451.55 198.41 Z" fill="#ebebeb" />
<path d="M 568.00 197.96 C 573.33 197.88 578.65 198.00 583.97 198.13 C 584.15 202.42 584.29 206.71 584.22 211.00 C 584.04 219.29 584.49 227.54 583.98 235.83 C 571.46 235.82 558.90 236.13 546.38 235.70 C 546.36 223.25 546.15 210.78 546.45 198.34 C 553.72 197.61 560.57 198.07 568.00 197.96 Z" fill="#ebebeb" />
<path d="M 641.34 198.34 C 646.14 197.66 651.15 198.03 656.00 197.98 C 663.60 197.93 671.18 197.85 678.78 198.18 C 678.92 210.67 679.04 223.21 678.71 235.70 C 666.22 236.06 653.68 235.91 641.19 235.77 C 640.79 226.18 641.04 216.60 640.92 207.00 C 640.92 204.14 640.88 201.16 641.34 198.34 Z" fill="#ebebeb" />
<path d="M 735.55 198.39 C 738.63 197.86 741.89 197.94 745.01 197.94 C 754.56 198.07 764.10 197.78 773.64 198.18 C 773.58 210.71 773.58 223.24 773.65 235.77 C 760.90 235.91 748.12 236.00 735.36 235.76 C 735.60 223.32 735.10 210.80 735.55 198.39 Z" fill="#ebebeb" />
<path d="M 867.98 198.12 C 868.26 210.63 868.33 223.29 867.96 235.80 C 855.45 235.86 842.89 236.07 830.38 235.69 C 830.19 223.27 830.00 210.77 830.42 198.35 C 842.89 197.59 855.49 198.02 867.98 198.12 Z" fill="#ebebeb" />
<path d="M 528.00 273.73 C 614.33 273.82 700.67 273.71 787.00 273.77 C 791.92 273.80 797.05 273.36 801.92 274.08 C 806.42 274.69 810.21 278.66 810.97 283.08 C 811.78 287.93 811.31 293.09 811.35 298.00 C 811.35 363.00 811.36 428.00 811.35 493.00 C 811.30 498.59 811.81 504.41 810.94 509.93 C 810.25 514.08 807.01 518.69 802.59 519.29 C 797.82 520.00 792.82 519.57 788.00 519.61 C 705.33 519.60 622.67 519.61 540.00 519.60 C 534.66 519.57 529.32 519.63 523.98 519.70 C 520.60 519.64 517.09 519.80 514.15 517.87 C 511.72 516.28 509.00 513.80 508.61 510.76 C 507.98 505.91 508.46 500.88 508.39 496.00 C 508.36 428.67 508.43 361.32 508.36 294.00 C 508.55 288.43 507.06 281.88 511.60 277.61 C 515.92 272.74 522.15 273.88 528.00 273.73 Z" fill="#ebebeb" />
<path d="M 606.13 315.93 C 609.96 317.38 613.50 319.89 617.02 321.98 C 649.03 341.29 681.05 360.62 713.07 379.90 C 716.49 382.00 720.28 384.04 723.22 386.79 C 728.27 391.33 728.52 400.04 724.11 405.10 C 720.94 408.79 716.15 411.45 712.03 413.98 C 704.04 418.63 696.15 423.41 688.31 428.31 C 665.94 441.53 643.85 455.20 621.54 468.52 C 615.99 471.84 609.61 476.67 602.95 476.90 C 597.89 477.19 593.23 474.65 590.50 470.43 C 587.66 466.41 588.29 460.68 588.22 456.00 C 588.30 417.00 588.24 378.00 588.25 339.00 C 588.36 334.02 587.67 328.58 588.89 323.73 C 591.36 317.25 599.61 313.43 606.13 315.93 Z" fill="#cecece" />
<path d="M 452.30 557.53 C 464.70 557.07 477.21 557.58 489.64 557.34 C 489.59 569.88 489.58 582.41 489.65 594.95 C 477.11 595.56 464.46 595.23 451.90 595.10 C 451.63 586.40 451.81 577.70 451.65 569.00 C 451.65 565.23 451.53 561.24 452.30 557.53 Z" fill="#ebebeb" />
<path d="M 546.53 557.55 C 550.31 557.11 554.20 557.37 558.00 557.37 C 566.65 557.43 575.30 557.36 583.94 557.34 C 584.28 569.86 584.47 582.52 584.00 595.03 C 571.49 595.39 558.82 595.48 546.31 594.96 C 546.28 584.97 546.42 574.98 546.26 564.99 C 546.25 562.53 546.19 559.99 546.53 557.55 Z" fill="#ebebeb" />
<path d="M 647.99 557.28 C 658.25 557.48 668.52 557.36 678.79 557.34 C 679.01 567.57 678.75 577.79 678.98 588.01 C 678.85 590.23 679.25 593.17 678.17 595.16 C 674.61 595.96 670.63 595.66 667.00 595.63 C 658.39 595.53 649.77 595.62 641.16 595.64 C 640.81 583.09 641.10 570.61 640.77 558.06 C 643.01 557.21 645.62 557.29 647.99 557.28 Z" fill="#ebebeb" />
<path d="M 736.25 557.53 C 748.67 557.08 761.19 557.57 773.64 557.35 C 773.58 569.88 773.58 582.41 773.65 594.95 C 761.09 595.57 748.43 595.23 735.85 595.08 C 735.41 586.05 735.74 577.04 735.56 568.00 C 735.55 564.57 735.48 560.89 736.25 557.53 Z" fill="#ebebeb" />
<path d="M 844.00 557.38 C 851.99 557.41 859.97 557.37 867.96 557.33 C 868.26 569.87 868.35 582.54 868.00 595.07 C 855.47 595.37 842.79 595.42 830.28 594.98 C 830.12 585.32 830.34 575.66 830.14 566.00 C 830.11 563.25 830.06 560.44 830.73 557.76 C 834.97 556.96 839.68 557.38 844.00 557.38 Z" fill="#ebebeb" /></svg>