<?xml version="1.0" encoding="UTF-8" standalone="no"?>
<svg
   xmlns:dc="http://purl.org/dc/elements/1.1/"
   xmlns:cc="http://creativecommons.org/ns#"
   xmlns:rdf="http://www.w3.org/1999/02/22-rdf-syntax-ns#"
   xmlns:svg="http://www.w3.org/2000/svg"
   xmlns="http://www.w3.org/2000/svg"
   xmlns:sodipodi="http://sodipodi.sourceforge.net/DTD/sodipodi-0.dtd"
   xmlns:inkscape="http://www.inkscape.org/namespaces/inkscape"
   viewBox="0 0 1024 1024"
   height="1024.0pt"
   width="1024.0pt"
   version="1.1"
   id="svg21154"
   sodipodi:docname="UpVote.svg"
   inkscape:version="0.92.2 (5c3e80d, 2017-08-06)">
  <metadata
     id="metadata21160">
    <rdf:RDF>
      <cc:Work
         rdf:about="">
        <dc:format>image/svg+xml</dc:format>
        <dc:type
           rdf:resource="http://purl.org/dc/dcmitype/StillImage" />
        <dc:title></dc:title>
      </cc:Work>
    </rdf:RDF>
  </metadata>
  <defs
     id="defs21158" />
  <sodipodi:namedview
     pagecolor="#ffffff"
     bordercolor="#666666"
     borderopacity="1"
     objecttolerance="10"
     gridtolerance="10"
     guidetolerance="10"
     inkscape:pageopacity="0"
     inkscape:pageshadow="2"
     inkscape:window-width="716"
     inkscape:window-height="480"
     id="namedview21156"
     showgrid="false"
     inkscape:pagecheckerboard="true"
     inkscape:zoom="0.17285156"
     inkscape:cx="682.66667"
     inkscape:cy="682.66667"
     inkscape:window-x="0"
     inkscape:window-y="0"
     inkscape:window-maximized="0"
     inkscape:current-layer="svg21154" />
  <path
     d="M 0.00 0.00 L 1024.00 0.00 L 1024.00 1024.00 L 0.00 1024.00 L 0.00 0.00 Z"
     fill="#fefefe"
     id="path21150"
     style="opacity:0" />
  <path
     d="M 530.00 215.99 C 533.41 218.36 536.45 221.67 539.41 224.59 C 589.80 274.90 640.12 325.18 690.46 375.54 C 782.27 467.39 874.18 559.15 965.94 651.06 C 969.53 654.83 973.26 657.86 975.31 662.77 C 978.94 670.86 977.95 680.57 972.81 687.78 C 968.10 694.42 960.20 698.60 952.03 698.53 C 887.35 698.53 822.66 698.53 757.98 698.53 C 752.98 698.39 748.00 698.34 743.00 698.39 C 731.08 698.25 719.47 694.70 710.91 686.10 C 651.26 626.55 591.50 566.67 531.85 507.12 C 521.39 497.99 504.10 497.93 493.01 506.02 C 490.63 507.94 488.54 510.23 486.31 512.32 C 431.11 567.43 375.96 622.66 320.78 677.79 C 316.20 682.23 312.03 686.84 306.78 690.66 C 299.05 696.01 289.36 698.61 280.01 698.54 C 213.00 698.52 146.00 698.54 79.00 698.53 C 73.44 698.43 68.48 699.10 63.15 697.05 C 50.71 692.76 42.88 678.08 47.41 665.49 C 49.45 658.70 54.10 654.68 58.81 649.69 C 72.59 635.54 86.69 621.64 100.64 607.64 C 212.66 495.65 324.65 383.65 436.67 271.67 C 453.36 255.31 469.80 238.77 486.32 222.23 C 490.35 218.33 494.49 214.82 499.80 212.78 C 509.63 208.83 521.23 210.03 530.00 215.99 Z"
     fill="#000000"
     id="path21152" />
</svg>
