<?xml version="1.0" encoding="UTF-8" standalone="no"?>
<svg
   xmlns:dc="http://purl.org/dc/elements/1.1/"
   xmlns:cc="http://creativecommons.org/ns#"
   xmlns:rdf="http://www.w3.org/1999/02/22-rdf-syntax-ns#"
   xmlns:svg="http://www.w3.org/2000/svg"
   xmlns="http://www.w3.org/2000/svg"
   xmlns:sodipodi="http://sodipodi.sourceforge.net/DTD/sodipodi-0.dtd"
   xmlns:inkscape="http://www.inkscape.org/namespaces/inkscape"
   viewBox="0 0 1024 1024"
   height="1024.0pt"
   width="1024.0pt"
   version="1.1"
   id="svg20011"
   sodipodi:docname="Poll Answer (Unselected).svg"
   inkscape:version="0.92.2 (5c3e80d, 2017-08-06)">
  <metadata
     id="metadata20017">
    <rdf:RDF>
      <cc:Work
         rdf:about="">
        <dc:format>image/svg+xml</dc:format>
        <dc:type
           rdf:resource="http://purl.org/dc/dcmitype/StillImage" />
        <dc:title></dc:title>
      </cc:Work>
    </rdf:RDF>
  </metadata>
  <defs
     id="defs20015" />
  <sodipodi:namedview
     pagecolor="#ffffff"
     bordercolor="#666666"
     borderopacity="1"
     objecttolerance="10"
     gridtolerance="10"
     guidetolerance="10"
     inkscape:pageopacity="0"
     inkscape:pageshadow="2"
     inkscape:window-width="716"
     inkscape:window-height="480"
     id="namedview20013"
     showgrid="false"
     inkscape:pagecheckerboard="true"
     inkscape:zoom="0.17285156"
     inkscape:cx="682.66667"
     inkscape:cy="682.66667"
     inkscape:window-x="0"
     inkscape:window-y="0"
     inkscape:window-maximized="0"
     inkscape:current-layer="svg20011" />
  <path
     d="M 0.00 0.00 L 1024.00 0.00 L 1024.00 1024.00 L 0.00 1024.00 L 0.00 0.00 Z"
     fill="#fefefe"
     id="path20005"
     style="opacity:0" />
  <path
     style="fill:#cdcbce;stroke-width:1.33333337"
     d="M 230.11133 45.148438 C 216.38932 45.221901 202.7857 46.27737 189.3457 49.345703 C 155.5057 56.61237 123.97399 73.720338 99.333984 98.013672 C 72.84065 124.00034 54.653438 158.16062 47.773438 194.64062 C 45.266771 207.84063 44.360208 221.23935 44.546875 234.66602 C 44.493542 535.10602 44.546198 835.55999 44.519531 1136 C 44.506198 1162.52 50.013567 1189.3728 61.240234 1213.4395 C 79.266902 1253.2795 112.04086 1286.0804 151.88086 1304.0938 C 175.60086 1315.0804 201.88 1320.6938 228 1320.7871 C 531.10668 1320.7871 834.22731 1320.7738 1137.334 1320.7871 C 1167.7873 1320.6271 1198.1208 1312.8132 1224.8008 1298.1465 C 1259.6941 1279.0532 1287.9741 1248.4928 1304.1074 1212.1328 C 1314.7341 1188.6528 1320.0542 1163.0807 1320.1875 1137.334 L 1320.1875 237.33398 C 1320.8142 212.60065 1317.3599 187.94609 1308.6133 164.74609 C 1294.9733 127.87943 1269.1204 95.826876 1236.0938 74.546875 C 1206.8404 55.586874 1172.1873 45.307161 1137.334 45.173828 L 236 45.173828 C 234.035 45.147161 232.07161 45.137943 230.11133 45.148438 z M 230.79883 154.67188 C 231.64248 154.68155 232.48815 154.70526 233.33398 154.74609 C 530.65399 154.81276 828.00064 154.74677 1125.334 154.77344 C 1133.5607 154.8401 1141.2273 154.21341 1149.334 156.08008 C 1171.214 160.68008 1190.7596 174.89336 1201.293 194.69336 C 1207.9196 206.56003 1211.2393 219.72065 1210.5859 233.33398 C 1210.5193 531.10733 1210.5739 828.89267 1210.5605 1126.666 C 1210.5205 1133.2793 1210.9331 1140.2 1209.7598 1146.6934 C 1206.3998 1166.0934 1195.4273 1183.881 1179.6406 1195.6543 C 1168.9473 1203.321 1156.6926 1208.5729 1143.5859 1210.2129 C 1138.4926 1210.7729 1133.1467 1210.5605 1128 1210.5605 L 237.33398 1210.5605 C 223.73398 1211.3072 210.4399 1209.3725 198.22656 1203.1191 C 171.5199 1190.6125 153.29276 1161.6133 154.74609 1132 C 154.79943 832.90666 154.7731 533.75936 154.75977 234.66602 C 152.91977 206.09268 169.4937 177.37401 194.70703 164.02734 C 205.76953 157.86484 218.14404 154.52676 230.79883 154.67188 z "
     transform="scale(0.74999998)"
     id="path20007" />
</svg>
