<?xml version="1.0" encoding="UTF-8" standalone="no"?>
<svg
   xmlns:dc="http://purl.org/dc/elements/1.1/"
   xmlns:cc="http://creativecommons.org/ns#"
   xmlns:rdf="http://www.w3.org/1999/02/22-rdf-syntax-ns#"
   xmlns:svg="http://www.w3.org/2000/svg"
   xmlns="http://www.w3.org/2000/svg"
   xmlns:sodipodi="http://sodipodi.sourceforge.net/DTD/sodipodi-0.dtd"
   xmlns:inkscape="http://www.inkscape.org/namespaces/inkscape"
   viewBox="0 0 1024 1024"
   height="1024.0pt"
   width="1024.0pt"
   version="1.1"
   id="svg19439"
   sodipodi:docname="Poll Answer (Selected).svg"
   inkscape:version="0.92.2 (5c3e80d, 2017-08-06)">
  <metadata
     id="metadata19445">
    <rdf:RDF>
      <cc:Work
         rdf:about="">
        <dc:format>image/svg+xml</dc:format>
        <dc:type
           rdf:resource="http://purl.org/dc/dcmitype/StillImage" />
        <dc:title></dc:title>
      </cc:Work>
    </rdf:RDF>
  </metadata>
  <defs
     id="defs19443" />
  <sodipodi:namedview
     pagecolor="#ffffff"
     bordercolor="#666666"
     borderopacity="1"
     objecttolerance="10"
     gridtolerance="10"
     guidetolerance="10"
     inkscape:pageopacity="0"
     inkscape:pageshadow="2"
     inkscape:window-width="716"
     inkscape:window-height="480"
     id="namedview19441"
     showgrid="false"
     inkscape:pagecheckerboard="true"
     inkscape:zoom="0.17285156"
     inkscape:cx="682.66667"
     inkscape:cy="682.66667"
     inkscape:window-x="0"
     inkscape:window-y="0"
     inkscape:window-maximized="0"
     inkscape:current-layer="svg19439" />
  <path
     d="M 0.00 0.00 L 1024.00 0.00 L 1024.00 1024.00 L 0.00 1024.00 L 0.00 0.00 Z"
     fill="#fefefe"
     id="path19431"
     style="opacity:0" />
  <path
     style="fill:#cdcbce;stroke-width:1.33333337"
     d="M 226.66602 45.173828 C 195.73268 45.400495 165.07914 53.654114 138.11914 68.800781 C 112.13247 83.520782 89.679349 104.4537 73.666016 129.70703 C 55.092682 158.38703 44.945938 192.51935 44.585938 226.66602 C 44.545937 231.55935 44.532865 236.44065 44.519531 241.33398 L 44.519531 1137.334 C 44.652865 1167.2007 51.959401 1196.9209 66.052734 1223.2676 C 83.559402 1256.3076 111.3337 1283.734 144.70703 1300.6406 C 170.38703 1313.8273 199.14667 1320.7071 228 1320.7871 C 531.10668 1320.7871 834.22731 1320.7738 1137.334 1320.7871 C 1167.1207 1320.6271 1196.7861 1313.1604 1223.0527 1299.0938 C 1258.7327 1280.0671 1287.7074 1249.0925 1304.1074 1212.1191 C 1314.5474 1189.0658 1319.8805 1163.9593 1320.1738 1138.666 C 1320.2005 837.77267 1320.1742 536.89334 1320.1875 236 C 1320.7608 211.72 1317.1733 187.51943 1308.6133 164.74609 C 1295.1866 128.51943 1270.0128 96.880626 1237.7461 75.640625 C 1208.5328 56.227291 1173.7327 45.560495 1138.666 45.173828 L 226.66602 45.173828 z M 229.53906 154.6543 C 231.23974 154.63164 232.94935 154.66643 234.66602 154.75977 C 533.77269 154.7731 832.89332 154.78643 1132 154.75977 C 1145.1467 154.07977 1158.1724 157.3332 1169.7324 163.5332 C 1192.9458 175.4532 1209.3872 200.54601 1210.5605 226.66602 C 1210.5739 528.43936 1210.5342 830.22666 1210.5742 1132 C 1211.8676 1156.2133 1199.5191 1180.4664 1180.4258 1195.0664 C 1166.3991 1205.3997 1149.56 1211.4942 1132 1210.5742 C 832.43999 1210.5476 532.89399 1210.5476 233.33398 1210.5742 C 209.04065 1211.8409 184.93391 1199.5607 170.25391 1180.4141 C 161.41391 1168.3474 155.29344 1153.746 154.77344 1138.666 C 154.7601 836.89267 154.79977 535.10733 154.75977 233.33398 C 153.27977 204.94732 170.38594 176.42688 195.58594 163.54688 C 206.15594 157.80687 217.63432 154.81289 229.53906 154.6543 z "
     transform="scale(0.74999998)"
     id="path19433" />
  <path
     d="M 774.59 211.38 C 790.89 223.09 807.25 234.74 823.55 246.45 C 836.28 255.78 843.67 271.27 843.44 287.00 C 843.01 297.54 839.46 307.65 833.02 316.02 C 741.70 443.39 650.52 570.86 559.13 698.18 C 534.22 733.19 509.98 766.54 485.28 801.37 C 481.58 805.88 477.19 810.06 472.33 813.30 C 455.59 824.90 432.40 826.11 414.49 816.47 C 407.85 813.15 402.37 808.04 397.05 802.95 C 393.31 799.69 389.98 796.04 386.42 792.58 C 322.25 728.41 258.07 664.26 193.91 600.09 C 180.77 586.11 177.45 564.60 185.16 547.13 C 187.65 541.36 191.34 536.23 195.83 531.83 C 209.32 518.32 222.83 504.83 236.32 491.32 C 242.79 484.76 251.04 480.04 260.03 477.98 C 275.81 474.08 293.19 478.89 304.97 490.02 C 345.94 530.94 386.86 571.97 427.87 612.84 C 520.22 484.20 612.41 355.29 704.68 226.58 C 711.01 216.71 720.28 208.96 731.51 205.35 C 745.84 200.34 762.10 202.90 774.59 211.38 Z"
     fill="#40a5ff"
     id="path19437" />
</svg>
