<?xml version="1.0" encoding="UTF-8" standalone="no"?>
<svg
   xmlns:dc="http://purl.org/dc/elements/1.1/"
   xmlns:cc="http://creativecommons.org/ns#"
   xmlns:rdf="http://www.w3.org/1999/02/22-rdf-syntax-ns#"
   xmlns:svg="http://www.w3.org/2000/svg"
   xmlns="http://www.w3.org/2000/svg"
   xmlns:sodipodi="http://sodipodi.sourceforge.net/DTD/sodipodi-0.dtd"
   xmlns:inkscape="http://www.inkscape.org/namespaces/inkscape"
   viewBox="0 0 1024 1024"
   height="1024.0pt"
   width="1024.0pt"
   version="1.1"
   id="svg835"
   sodipodi:docname="close button.svg"
   inkscape:version="0.92.2 (5c3e80d, 2017-08-06)">
  <metadata
     id="metadata841">
    <rdf:RDF>
      <cc:Work
         rdf:about="">
        <dc:format>image/svg+xml</dc:format>
        <dc:type
           rdf:resource="http://purl.org/dc/dcmitype/StillImage" />
        <dc:title></dc:title>
      </cc:Work>
    </rdf:RDF>
  </metadata>
  <defs
     id="defs839" />
  <sodipodi:namedview
     pagecolor="#ffffff"
     bordercolor="#666666"
     borderopacity="1"
     objecttolerance="10"
     gridtolerance="10"
     guidetolerance="10"
     inkscape:pageopacity="0"
     inkscape:pageshadow="2"
     inkscape:window-width="1920"
     inkscape:window-height="1017"
     id="namedview837"
     showgrid="false"
     inkscape:pagecheckerboard="true"
     inkscape:zoom="0.62255859"
     inkscape:cx="682.66667"
     inkscape:cy="682.66667"
     inkscape:window-x="-8"
     inkscape:window-y="-8"
     inkscape:window-maximized="1"
     inkscape:current-layer="svg835" />
  <path
     d="M 0.00 0.00 L 1024.00 0.00 L 1024.00 1024.00 L 0.00 1024.00 L 0.00 0.00 Z"
     fill="#ffffff"
     id="path829"
     style="opacity:0" />
  <path
     d="M 102.97 1.37 C 375.66 1.37 648.35 1.37 921.03 1.37 C 938.35 1.28 955.68 5.80 970.78 14.29 C 986.84 23.23 1000.34 36.61 1009.38 52.63 C 1018.10 67.84 1022.70 85.43 1022.63 102.96 C 1022.64 373.97 1022.63 644.98 1022.63 916.00 C 1023.03 928.71 1021.49 941.38 1017.39 953.45 C 1011.19 972.05 999.42 988.87 983.95 1000.93 C 965.92 1015.20 943.01 1022.96 920.03 1022.64 C 647.34 1022.62 374.65 1022.65 101.96 1022.62 C 72.72 1022.56 44.05 1009.11 25.31 986.68 C 11.06 969.90 2.56 948.40 1.49 926.41 C 1.30 921.95 1.38 917.46 1.37 913.00 C 1.37 642.65 1.37 372.31 1.37 101.96 C 1.45 85.00 5.97 68.06 14.26 53.27 C 22.95 37.61 35.87 24.42 51.33 15.37 C 66.79 6.19 85.00 1.27 102.97 1.37 Z"
     fill="#000000"
     id="background" />
  <path
     d="M 289.00 227.60 C 303.07 228.26 316.95 234.09 327.09 243.90 C 390.71 307.43 454.60 371.52 518.23 434.94 C 521.03 432.83 523.31 430.24 525.77 427.77 C 584.60 368.94 643.44 310.11 702.27 251.27 C 707.19 246.35 711.73 241.40 717.68 237.67 C 734.14 226.82 755.87 225.02 773.89 233.02 C 787.74 239.02 798.94 250.35 804.79 264.27 C 810.25 277.06 810.99 291.67 806.85 304.94 C 803.93 314.59 798.43 323.22 791.27 330.27 C 729.10 392.38 666.93 454.66 604.75 516.73 C 604.06 517.52 603.37 518.30 602.68 519.07 C 604.87 521.96 607.55 524.34 610.10 526.90 C 670.44 587.22 730.76 647.58 791.11 707.89 C 804.31 720.36 811.12 738.91 809.20 756.97 C 807.42 773.78 798.28 789.70 784.36 799.36 C 774.35 806.55 762.26 810.10 750.00 810.36 C 739.47 810.06 729.10 807.50 720.04 802.03 C 714.62 798.93 709.92 794.88 705.61 790.40 C 643.78 728.54 581.92 666.71 520.09 604.87 C 519.48 604.34 518.87 603.80 518.27 603.26 C 455.94 665.59 393.59 727.92 331.27 790.27 C 325.12 796.77 318.17 802.31 309.84 805.75 C 288.11 815.60 261.20 810.47 244.46 793.55 C 232.83 782.22 226.52 766.18 226.73 750.00 C 227.18 739.77 229.79 729.95 235.08 721.14 C 239.34 713.57 245.26 708.34 251.27 702.27 C 311.61 641.95 371.93 581.59 432.28 521.28 C 432.90 520.54 433.52 519.79 434.14 519.05 C 431.76 516.36 429.15 513.92 426.61 511.39 C 365.94 450.73 305.28 390.05 244.61 329.39 C 231.20 316.23 224.40 296.61 227.52 278.01 C 229.77 262.36 238.75 247.69 251.69 238.60 C 262.39 230.81 275.81 226.99 289.00 227.60 Z"
     fill="#ffffff"
     id="path833" />
</svg>
