<?xml version="1.0" encoding="UTF-8" standalone="no"?>
<svg
   xmlns:dc="http://purl.org/dc/elements/1.1/"
   xmlns:cc="http://creativecommons.org/ns#"
   xmlns:rdf="http://www.w3.org/1999/02/22-rdf-syntax-ns#"
   xmlns:svg="http://www.w3.org/2000/svg"
   xmlns="http://www.w3.org/2000/svg"
   xmlns:sodipodi="http://sodipodi.sourceforge.net/DTD/sodipodi-0.dtd"
   xmlns:inkscape="http://www.inkscape.org/namespaces/inkscape"
   viewBox="0 0 1024 1024"
   height="1024.0pt"
   width="1024.0pt"
   version="1.1"
   id="svg2555"
   sodipodi:docname="Delete.svg"
   inkscape:version="0.92.2 (5c3e80d, 2017-08-06)">
  <metadata
     id="metadata2561">
    <rdf:RDF>
      <cc:Work
         rdf:about="">
        <dc:format>image/svg+xml</dc:format>
        <dc:type
           rdf:resource="http://purl.org/dc/dcmitype/StillImage" />
        <dc:title></dc:title>
      </cc:Work>
    </rdf:RDF>
  </metadata>
  <defs
     id="defs2559" />
  <sodipodi:namedview
     pagecolor="#ffffff"
     bordercolor="#666666"
     borderopacity="1"
     objecttolerance="10"
     gridtolerance="10"
     guidetolerance="10"
     inkscape:pageopacity="0"
     inkscape:pageshadow="2"
     inkscape:window-width="1920"
     inkscape:window-height="1017"
     id="namedview2557"
     showgrid="false"
     inkscape:pagecheckerboard="true"
     inkscape:zoom="0.48889805"
     inkscape:cx="831.97673"
     inkscape:cy="742.91686"
     inkscape:window-x="-8"
     inkscape:window-y="-8"
     inkscape:window-maximized="1"
     inkscape:current-layer="svg2555" />
  <path
     d="M 0.00 0.00 L 469.39 0.00 C 452.76 0.81 436.78 8.22 425.54 20.53 C 414.10 32.97 408.16 49.60 408.81 66.47 C 475.81 66.48 542.82 66.53 609.83 66.45 C 610.49 50.71 605.29 34.96 595.15 22.88 C 584.23 9.55 567.84 1.32 550.68 0.07 L 549.75 0.00 L 1024.00 0.00 L 1024.00 1024.00 L 719.75 1024.00 C 741.85 1023.15 763.60 1016.30 781.99 1003.99 C 802.31 990.51 818.28 970.73 827.13 948.00 C 832.82 933.43 835.71 917.64 835.37 902.00 C 835.37 683.92 835.36 465.84 835.37 247.76 C 619.98 247.74 404.50 247.81 189.11 247.72 C 188.50 258.77 189.31 269.93 188.97 281.00 C 189.24 286.69 188.63 292.31 189.12 298.00 C 188.60 311.02 189.38 323.98 188.94 337.00 C 189.36 345.35 188.84 353.66 189.00 362.01 C 189.35 367.68 188.63 373.33 188.92 379.01 C 189.48 389.76 188.71 400.17 188.96 411.01 C 189.20 414.35 188.77 417.65 188.88 421.00 C 189.36 428.65 188.59 436.34 189.07 443.99 C 189.40 452.01 188.56 459.98 189.07 468.00 C 188.90 472.00 189.23 476.00 189.01 480.00 C 188.54 486.35 189.50 492.64 188.93 498.99 C 188.76 520.62 189.19 542.36 188.99 563.97 C 189.23 598.03 188.73 633.20 189.01 666.98 C 188.49 678.35 189.48 689.65 188.94 701.00 C 189.34 706.02 188.79 710.98 189.09 716.00 C 188.58 724.00 189.51 731.96 188.95 739.97 C 189.08 746.32 188.81 752.65 188.88 759.00 C 189.30 770.66 188.52 782.32 189.07 794.01 C 188.53 802.69 189.28 811.34 188.92 820.01 C 189.36 827.33 188.64 834.66 189.07 841.99 C 188.63 852.32 189.45 862.64 189.02 872.99 C 188.81 877.31 188.82 881.64 189.04 885.96 C 189.33 895.94 188.73 906.06 189.53 916.01 C 191.80 939.11 200.89 961.45 215.50 979.49 C 231.08 998.95 252.99 1013.24 277.04 1019.77 C 285.87 1022.22 294.93 1023.51 304.07 1024.00 L 0.00 1024.00 L 0.00 0.00 Z"
     fill="#fefefe"
     id="path2541"
     style="opacity:0" />
  <path
     d="M 469.39 0.00 L 549.75 0.00 L 550.68 0.07 C 567.84 1.32 584.23 9.55 595.15 22.88 C 605.29 34.96 610.49 50.71 609.83 66.45 C 542.82 66.53 475.81 66.48 408.81 66.47 C 408.16 49.60 414.10 32.97 425.54 20.53 C 436.78 8.22 452.76 0.81 469.39 0.00 Z"
     fill="#000000"
     id="path2543" />
  <path
     d="M 258.00 94.33 C 425.66 94.31 593.33 94.34 761.00 94.32 C 777.34 94.06 793.65 97.00 808.77 103.24 C 833.10 113.13 853.87 131.23 866.98 154.00 C 878.48 173.75 883.87 196.51 883.05 219.32 C 635.25 219.37 387.43 219.32 139.63 219.35 C 138.94 202.24 141.83 185.07 148.26 169.21 C 156.95 147.52 172.15 128.54 191.44 115.36 C 210.90 101.92 234.36 94.54 258.00 94.33 Z"
     fill="#000000"
     id="path2545" />
  <path
     d="M 189.11 247.72 C 404.50 247.81 619.98 247.74 835.37 247.76 C 835.36 465.84 835.37 683.92 835.37 902.00 C 835.71 917.64 832.82 933.43 827.13 948.00 C 818.28 970.73 802.31 990.51 781.99 1003.99 C 763.60 1016.30 741.85 1023.15 719.75 1024.00 L 304.07 1024.00 C 294.93 1023.51 285.87 1022.22 277.04 1019.77 C 252.99 1013.24 231.08 998.95 215.50 979.49 C 200.89 961.45 191.80 939.11 189.53 916.01 C 188.73 906.06 189.33 895.94 189.04 885.96 C 188.82 881.64 188.81 877.31 189.02 872.99 C 189.45 862.64 188.63 852.32 189.07 841.99 C 188.64 834.66 189.36 827.33 188.92 820.01 C 189.28 811.34 188.53 802.69 189.07 794.01 C 188.52 782.32 189.30 770.66 188.88 759.00 C 188.81 752.65 189.08 746.32 188.95 739.97 C 189.51 731.96 188.58 724.00 189.09 716.00 C 188.79 710.98 189.34 706.02 188.94 701.00 C 189.48 689.65 188.49 678.35 189.01 666.98 C 188.73 633.20 189.23 598.03 188.99 563.97 C 189.19 542.36 188.76 520.62 188.93 498.99 C 189.50 492.64 188.54 486.35 189.01 480.00 C 189.23 476.00 188.90 472.00 189.07 468.00 C 188.56 459.98 189.40 452.01 189.07 443.99 C 188.59 436.34 189.36 428.65 188.88 421.00 C 188.77 417.65 189.20 414.35 188.96 411.01 C 188.71 400.17 189.48 389.76 188.92 379.01 C 188.63 373.33 189.35 367.68 189.00 362.01 C 188.84 353.66 189.36 345.35 188.94 337.00 C 189.38 323.98 188.60 311.02 189.12 298.00 C 188.63 292.31 189.24 286.69 188.97 281.00 C 189.31 269.93 188.50 258.77 189.11 247.72 Z"
     fill="#000000"
     id="path2547" />
  <path
     d="M 339.04 343.67 C 351.01 346.41 361.02 355.56 364.85 367.21 C 367.35 374.22 366.66 380.73 366.77 388.00 C 366.78 551.67 366.78 715.34 366.77 879.01 C 366.81 889.13 362.59 899.24 355.00 906.00 C 344.99 915.28 329.85 918.07 317.21 912.82 C 303.95 907.59 294.80 894.27 294.68 880.00 C 294.65 714.35 294.66 548.66 294.67 383.00 C 294.20 374.60 295.70 366.46 300.32 359.34 C 308.33 346.60 324.39 339.92 339.04 343.67 Z"
     fill="#585659"
     id="path2549" />
  <path
     d="M 520.99 344.16 C 536.24 348.46 547.03 363.19 546.84 379.00 C 546.85 545.67 546.84 712.33 546.84 879.00 C 547.09 894.30 536.99 908.67 522.46 913.50 C 507.50 918.83 489.99 913.05 481.11 899.91 C 475.69 892.23 474.16 883.24 474.66 874.00 C 474.67 708.67 474.66 543.33 474.67 378.00 C 474.85 369.47 478.11 361.16 483.80 354.80 C 492.81 344.44 507.84 340.08 520.99 344.16 Z"
     fill="#585659"
     id="path2551" />
  <path
     d="M 698.02 343.09 C 709.36 344.88 719.48 352.07 724.64 362.37 C 727.43 367.82 728.70 373.89 728.57 380.00 C 728.56 544.33 728.56 708.67 728.56 873.00 C 728.72 879.86 728.66 886.42 725.96 892.86 C 721.89 902.96 713.37 910.80 702.92 913.90 C 688.84 918.34 672.57 913.05 663.80 901.18 C 658.97 894.84 656.36 886.98 656.46 879.00 C 656.47 714.33 656.46 549.67 656.46 385.00 C 656.51 380.76 656.22 376.15 657.09 372.00 C 658.76 363.08 664.00 354.69 671.48 349.50 C 678.84 344.02 688.99 341.57 698.02 343.09 Z"
     fill="#585659"
     id="path2553" />
</svg>
