<?xml version="1.0" encoding="UTF-8" standalone="no"?>
<svg
   xmlns:dc="http://purl.org/dc/elements/1.1/"
   xmlns:cc="http://creativecommons.org/ns#"
   xmlns:rdf="http://www.w3.org/1999/02/22-rdf-syntax-ns#"
   xmlns:svg="http://www.w3.org/2000/svg"
   xmlns="http://www.w3.org/2000/svg"
   xmlns:sodipodi="http://sodipodi.sourceforge.net/DTD/sodipodi-0.dtd"
   xmlns:inkscape="http://www.inkscape.org/namespaces/inkscape"
   viewBox="0 0 1024 1024"
   height="1024.0pt"
   width="1024.0pt"
   version="1.1"
   id="svg11725"
   sodipodi:docname="Drop Down.svg"
   inkscape:version="0.92.2 (5c3e80d, 2017-08-06)">
  <metadata
     id="metadata11731">
    <rdf:RDF>
      <cc:Work
         rdf:about="">
        <dc:format>image/svg+xml</dc:format>
        <dc:type
           rdf:resource="http://purl.org/dc/dcmitype/StillImage" />
        <dc:title></dc:title>
      </cc:Work>
    </rdf:RDF>
  </metadata>
  <defs
     id="defs11729" />
  <sodipodi:namedview
     pagecolor="#ffffff"
     bordercolor="#666666"
     borderopacity="1"
     objecttolerance="10"
     gridtolerance="10"
     guidetolerance="10"
     inkscape:pageopacity="0"
     inkscape:pageshadow="2"
     inkscape:window-width="716"
     inkscape:window-height="480"
     id="namedview11727"
     showgrid="false"
     inkscape:pagecheckerboard="true"
     inkscape:zoom="0.17285156"
     inkscape:cx="682.66667"
     inkscape:cy="682.66667"
     inkscape:window-x="0"
     inkscape:window-y="0"
     inkscape:window-maximized="0"
     inkscape:current-layer="svg11725" />
  <path
     d="M 0.00 0.00 L 1024.00 0.00 L 1024.00 1024.00 L 0.00 1024.00 L 0.00 0.00 Z"
     fill="#ffffff"
     id="path11721"
     style="opacity:0" />
  <path
     d="M 255.47 306.53 C 333.91 384.77 412.50 462.83 490.99 541.01 C 500.47 550.93 516.70 552.84 528.11 545.15 C 529.66 544.03 530.98 542.73 532.33 541.39 C 611.16 462.87 689.90 384.36 768.83 305.92 C 784.66 290.82 807.30 283.35 829.00 286.33 C 846.94 288.54 863.86 297.66 875.58 311.43 C 885.84 323.24 891.96 338.36 893.10 353.95 C 894.21 370.02 889.86 386.43 880.82 399.79 C 875.73 407.60 869.22 413.19 862.77 419.76 C 787.70 494.37 712.83 569.14 637.77 643.77 C 630.16 651.48 622.29 658.95 614.81 666.79 C 599.17 682.51 583.20 697.88 567.56 713.60 C 562.48 718.43 557.68 724.17 551.81 727.85 C 541.22 734.93 528.74 739.18 516.00 739.74 C 498.96 741.04 481.49 735.36 467.98 725.01 C 462.56 720.86 458.12 715.78 453.05 710.94 C 436.59 694.41 419.85 678.12 403.60 661.41 C 319.75 577.92 235.87 494.47 152.02 410.98 C 138.53 397.61 130.53 379.02 130.38 360.00 C 130.10 344.89 134.75 329.80 143.37 317.40 C 153.60 302.47 169.55 291.70 187.17 287.63 C 211.33 281.73 237.72 289.20 255.47 306.53 Z"
     fill="#000000"
     id="path11723" />
</svg>
