<?xml version="1.0" encoding="UTF-8" standalone="no"?>
<svg
   xmlns:dc="http://purl.org/dc/elements/1.1/"
   xmlns:cc="http://creativecommons.org/ns#"
   xmlns:rdf="http://www.w3.org/1999/02/22-rdf-syntax-ns#"
   xmlns:svg="http://www.w3.org/2000/svg"
   xmlns="http://www.w3.org/2000/svg"
   xmlns:sodipodi="http://sodipodi.sourceforge.net/DTD/sodipodi-0.dtd"
   xmlns:inkscape="http://www.inkscape.org/namespaces/inkscape"
   viewBox="0 0 1024 1024"
   height="1024.0pt"
   width="1024.0pt"
   version="1.1"
   id="svg20587"
   sodipodi:docname="Shrink.svg"
   inkscape:version="0.92.2 (5c3e80d, 2017-08-06)">
  <metadata
     id="metadata20593">
    <rdf:RDF>
      <cc:Work
         rdf:about="">
        <dc:format>image/svg+xml</dc:format>
        <dc:type
           rdf:resource="http://purl.org/dc/dcmitype/StillImage" />
        <dc:title></dc:title>
      </cc:Work>
    </rdf:RDF>
  </metadata>
  <defs
     id="defs20591" />
  <sodipodi:namedview
     pagecolor="#ffffff"
     bordercolor="#666666"
     borderopacity="1"
     objecttolerance="10"
     gridtolerance="10"
     guidetolerance="10"
     inkscape:pageopacity="0"
     inkscape:pageshadow="2"
     inkscape:window-width="716"
     inkscape:window-height="480"
     id="namedview20589"
     showgrid="false"
     inkscape:pagecheckerboard="true"
     inkscape:zoom="0.17285156"
     inkscape:cx="682.66667"
     inkscape:cy="682.66667"
     inkscape:window-x="0"
     inkscape:window-y="0"
     inkscape:window-maximized="0"
     inkscape:current-layer="svg20587" />
  <path
     d="M 0.00 0.00 L 1024.00 0.00 L 1024.00 1024.00 L 0.00 1024.00 L 0.00 0.00 Z"
     fill="#fefefe"
     id="path20579"
     style="opacity:0" />
  <path
     d="M 171.00 70.01 C 402.00 70.01 633.00 70.00 864.00 70.01 C 889.05 70.13 913.49 81.16 930.22 99.79 C 942.79 113.65 950.87 131.40 952.97 150.00 C 953.76 156.71 953.54 163.23 953.55 170.00 C 953.55 401.35 953.55 632.69 953.55 864.04 C 953.53 888.50 943.11 912.54 925.27 929.27 C 911.45 942.41 893.31 951.00 874.37 953.32 C 867.16 954.24 860.24 953.98 853.00 953.99 C 626.00 953.99 399.00 954.00 172.00 953.99 C 163.51 953.99 155.43 954.28 146.99 953.05 C 122.68 949.72 100.28 935.87 86.17 915.84 C 75.41 900.76 69.56 882.53 69.59 864.00 C 69.57 633.34 69.59 402.67 69.58 172.00 C 69.61 162.25 69.20 152.95 71.18 143.32 C 74.84 123.46 85.65 105.07 100.93 91.92 C 113.41 81.16 128.78 73.83 145.07 71.20 C 153.81 69.68 162.18 70.02 171.00 70.01 Z"
     fill="#000000"
     id="path20581" />
  <path
     d="M 602.95 157.86 C 609.20 158.60 615.23 160.05 620.64 163.37 C 630.64 169.09 637.26 179.38 639.28 190.63 C 639.81 194.01 639.65 197.59 639.65 201.01 C 639.53 209.34 640.20 217.66 640.05 226.00 C 640.10 260.05 639.91 294.12 640.14 328.17 C 643.17 325.51 646.04 322.74 648.81 319.81 C 657.79 310.79 666.87 301.87 675.79 292.79 C 687.00 280.98 698.91 269.92 710.30 258.30 C 737.55 231.21 764.82 204.15 792.08 177.07 C 797.45 171.73 801.95 166.35 808.86 162.84 C 822.55 155.21 840.49 157.48 852.19 167.80 C 859.41 173.97 864.09 183.09 865.43 192.45 C 866.72 199.53 864.63 207.23 861.75 213.69 C 858.38 221.26 851.90 226.44 846.24 232.24 C 809.94 268.64 773.21 304.56 737.07 341.08 C 722.58 355.12 708.66 369.70 694.18 383.76 C 734.44 384.15 774.73 383.87 815.00 383.96 C 821.08 384.06 827.56 383.51 833.54 384.62 C 839.79 385.88 845.72 388.27 850.75 392.25 C 862.44 401.21 868.73 417.50 864.85 431.89 C 861.76 444.64 851.99 455.41 839.49 459.51 C 829.94 462.84 819.17 461.36 809.00 461.61 C 754.72 460.89 700.31 461.25 646.00 461.13 C 636.98 461.09 628.01 461.32 619.00 460.94 C 611.41 460.66 603.74 461.18 596.16 460.66 C 585.23 459.63 575.89 453.17 569.55 444.44 C 564.79 437.50 562.83 429.35 562.84 421.00 C 562.84 363.01 562.88 304.98 562.82 246.99 C 562.01 231.32 562.46 215.66 562.30 199.98 C 562.17 193.39 563.19 186.86 565.88 180.81 C 572.27 166.58 587.32 157.13 602.95 157.86 Z"
     fill="#fefefe"
     id="path20583" />
  <path
     d="M 199.00 562.83 C 210.33 562.91 221.67 562.77 233.00 563.09 C 288.39 563.34 343.64 563.16 399.03 563.28 C 408.37 563.83 417.71 563.35 427.05 563.75 C 438.27 564.27 447.90 570.69 454.52 579.47 C 459.67 586.62 461.60 595.25 461.67 603.95 C 461.68 661.63 461.64 719.33 461.69 777.00 C 462.29 793.33 461.99 809.66 462.09 826.00 C 462.14 833.81 460.30 841.51 456.17 848.18 C 448.70 860.18 434.50 867.63 420.38 866.55 C 413.34 865.44 406.65 863.44 400.83 859.18 C 392.77 853.37 387.27 844.47 385.36 834.74 C 384.48 829.65 385.00 824.15 384.86 818.98 C 384.73 812.98 384.24 807.00 384.35 801.00 C 384.39 771.00 384.35 741.00 384.37 711.00 C 384.44 706.22 384.43 701.46 384.10 696.69 C 381.07 699.16 378.30 701.77 375.64 704.64 C 366.67 713.67 357.58 722.58 348.67 731.67 C 337.48 743.49 325.52 754.51 314.15 766.15 C 287.78 792.44 261.27 818.60 234.88 844.88 C 228.44 851.01 223.70 857.41 215.62 861.62 C 207.89 865.98 198.94 866.92 190.27 865.48 C 181.32 863.70 173.09 858.73 167.40 851.59 C 162.92 845.94 160.08 839.11 159.06 831.98 C 157.76 824.63 159.81 816.63 163.01 809.99 C 165.74 804.42 169.84 800.47 174.20 796.21 C 197.78 772.80 221.23 749.21 244.88 725.90 C 258.07 712.74 271.32 699.66 284.34 686.35 C 293.88 676.89 303.55 667.55 312.89 657.89 C 318.32 652.18 324.48 647.07 329.41 640.91 C 324.61 640.57 319.81 640.52 315.00 640.60 C 275.99 640.47 236.98 640.55 197.97 640.55 C 193.48 640.51 189.07 639.63 184.83 638.19 C 171.82 633.87 161.93 622.29 159.26 608.90 C 156.09 594.04 163.04 577.94 175.62 569.59 C 182.50 564.84 190.69 562.78 199.00 562.83 Z"
     fill="#fefefe"
     id="path20585" />
</svg>
