<?xml version="1.0" encoding="UTF-8" standalone="no"?>
<svg
   xmlns:dc="http://purl.org/dc/elements/1.1/"
   xmlns:cc="http://creativecommons.org/ns#"
   xmlns:rdf="http://www.w3.org/1999/02/22-rdf-syntax-ns#"
   xmlns:svg="http://www.w3.org/2000/svg"
   xmlns="http://www.w3.org/2000/svg"
   xmlns:sodipodi="http://sodipodi.sourceforge.net/DTD/sodipodi-0.dtd"
   xmlns:inkscape="http://www.inkscape.org/namespaces/inkscape"
   viewBox="0 0 1024 1024"
   height="1024.0pt"
   width="1024.0pt"
   version="1.1"
   id="svg4272"
   sodipodi:docname="Permalink.svg"
   inkscape:version="0.92.2 (5c3e80d, 2017-08-06)">
  <metadata
     id="metadata4278">
    <rdf:RDF>
      <cc:Work
         rdf:about="">
        <dc:format>image/svg+xml</dc:format>
        <dc:type
           rdf:resource="http://purl.org/dc/dcmitype/StillImage" />
        <dc:title></dc:title>
      </cc:Work>
    </rdf:RDF>
  </metadata>
  <defs
     id="defs4276" />
  <sodipodi:namedview
     pagecolor="#ffffff"
     bordercolor="#666666"
     borderopacity="1"
     objecttolerance="10"
     gridtolerance="10"
     guidetolerance="10"
     inkscape:pageopacity="0"
     inkscape:pageshadow="2"
     inkscape:window-width="716"
     inkscape:window-height="480"
     id="namedview4274"
     showgrid="false"
     inkscape:pagecheckerboard="true"
     inkscape:zoom="0.17285156"
     inkscape:cx="682.66667"
     inkscape:cy="682.66667"
     inkscape:window-x="0"
     inkscape:window-y="0"
     inkscape:window-maximized="0"
     inkscape:current-layer="svg4272" />
  <path
     d="M 0.00 0.00 L 1024.00 0.00 L 1024.00 1024.00 L 0.00 1024.00 L 0.00 0.00 Z"
     fill="#fefefe"
     id="path4266"
     style="opacity:0" />
  <path
     style="fill:#000000;stroke-width:1.33333337"
     d="M 1254.2402 0.6796875 C 1232.1885 0.59187378 1210.0185 7.3467965 1191.7598 19.654297 C 1183.7998 24.98763 1176.8796 31.400234 1170.2129 38.240234 C 1132.6796 75.813569 1095.0805 113.33325 1057.5605 150.91992 C 1055.3339 153.09326 1053.1865 155.71937 1050.5332 157.35938 C 1047.3999 156.42604 1044.4526 154.49393 1041.5859 152.94727 C 974.95927 117.1206 898.24037 99.880677 822.70703 104.02734 C 742.58703 108.04068 664.02589 135.9475 599.19922 183.1875 C 582.53255 195.24083 567.01357 208.61359 552.24023 222.93359 C 443.13356 332.02693 333.99959 441.10622 224.90625 550.21289 C 192.81292 582.31956 165.96052 619.5863 145.86719 660.29297 C 116.46719 719.59964 101.50737 785.76026 102.7207 851.93359 C 103.6807 921.42693 122.54607 990.76041 157.05273 1051.0938 C 115.38607 1093.1604 73.292527 1134.8662 31.505859 1176.8262 C 19.399192 1189.4128 10.212474 1204.7198 5.1191406 1221.4531 C -1.3875262 1242.2798 -1.4401564 1265.1203 4.8398438 1286.0137 C 11.493177 1308.347 25.399062 1328.5726 44.039062 1342.5859 C 63.30573 1357.2926 87.733333 1365.6008 112 1365.1074 C 140.94667 1365.3074 169.53359 1353.0263 189.93359 1332.5996 C 229.02693 1293.4663 268.18724 1254.4002 307.25391 1215.2402 C 309.58724 1213.0802 311.77388 1210.1209 314.56055 1208.5742 C 316.54721 1209.3876 318.42664 1210.4932 320.30664 1211.5332 C 390.58664 1250.0799 471.95984 1267.4132 551.83984 1261.1465 C 614.57318 1256.4398 676.30586 1237.1872 730.50586 1205.2539 C 761.34586 1187.0539 789.45351 1165.3474 814.85352 1140.1074 C 922.84019 1032.1208 1030.8398 924.13315 1138.8398 816.14648 C 1206.2798 749.57315 1249.3877 659.54766 1259.3477 565.34766 C 1268.001 486.46765 1253.3595 405.31938 1217.8262 334.35938 C 1214.6662 327.73271 1210.88 321.43951 1207.6934 314.82617 C 1249 273.7595 1290.1073 232.46698 1331.334 191.32031 C 1346.8407 176.21365 1357.7743 156.51904 1362.3477 135.3457 C 1366.3743 117.1057 1365.6399 97.893334 1360.2266 80 C 1353.4932 57.159999 1339.1337 36.772943 1320.0137 22.599609 C 1304.4003 10.986276 1285.7865 3.6527865 1266.4531 1.4394531 C 1262.4031 0.94570311 1258.3239 0.6959493 1254.2402 0.6796875 z M 834.22461 304.44141 C 855.02015 304.3415 875.825 307.10234 895.8125 312.74609 C 862.2525 345.98609 828.98654 379.53419 795.5332 412.88086 C 775.46654 433.05419 763.48049 460.81398 763.17383 489.33398 C 762.53383 515.01399 771.36039 540.60029 787.40039 560.62695 C 801.09372 577.90695 820.26766 590.96073 841.34766 597.41406 C 858.01432 602.7074 876.14604 603.59909 893.35938 600.73242 C 915.98604 596.78576 937.18698 585.65331 953.32031 569.30664 C 986.42698 536.07997 1019.7331 503.02576 1052.7598 469.73242 C 1067.2398 519.75909 1062.8407 575.25302 1041.4141 622.67969 C 1037.0674 633.22635 1030.8667 643.06753 1025.0801 652.88086 C 1017.9601 662.84086 1011.0267 673.72 1002 682 C 893.97333 789.97334 785.99933 897.99932 677.97266 1005.9727 C 663.99932 1018.2393 648.32094 1028.4532 631.96094 1037.2266 C 604.05427 1050.9466 573.75995 1059.5203 542.61328 1061.0137 C 532.31995 1062.3737 522.29367 1061.1864 512.01367 1060.6797 C 497.53367 1059.6264 483.45339 1056.761 469.38672 1053.3477 C 503.13339 1019.1477 537.37391 985.36091 571.25391 951.26758 C 587.30724 934.37424 597.94659 912.48065 600.91992 889.33398 C 603.67992 870.06732 600.89279 849.96 593.43945 832 C 584.31945 809.98667 568.03979 791.09273 547.45312 779.05273 C 530.35979 768.85273 510.54602 763.56047 490.66602 763.48047 C 460.70601 763.58714 431.69318 776.00081 410.83984 797.49414 C 381.07984 827.29414 351.28081 857.05318 321.49414 886.83984 C 318.49414 889.91984 315.45315 893.02643 312.14648 895.75977 C 300.53315 852.10643 301.37357 805.58745 316.24023 762.80078 C 325.2669 735.57411 339.82664 710.74753 358.30664 688.88086 C 466.67998 580.45419 575.16021 472.07935 683.54688 363.66602 C 688.29354 358.55935 693.62664 354.20049 699.30664 350.17383 C 718.83997 335.05383 741.3331 323.5201 764.75977 315.77344 C 787.1006 308.34302 810.65632 304.55463 834.22461 304.44141 z "
     transform="scale(0.74999998)"
     id="path4268" />
</svg>
