<?xml version="1.0" encoding="UTF-8" standalone="no"?>
<svg
   xmlns:dc="http://purl.org/dc/elements/1.1/"
   xmlns:cc="http://creativecommons.org/ns#"
   xmlns:rdf="http://www.w3.org/1999/02/22-rdf-syntax-ns#"
   xmlns:svg="http://www.w3.org/2000/svg"
   xmlns="http://www.w3.org/2000/svg"
   xmlns:sodipodi="http://sodipodi.sourceforge.net/DTD/sodipodi-0.dtd"
   xmlns:inkscape="http://www.inkscape.org/namespaces/inkscape"
   viewBox="0 0 1024 1024"
   height="1024.0pt"
   width="1024.0pt"
   version="1.1"
   id="svg4840"
   sodipodi:docname="Reply.svg"
   inkscape:version="0.92.2 (5c3e80d, 2017-08-06)">
  <metadata
     id="metadata4846">
    <rdf:RDF>
      <cc:Work
         rdf:about="">
        <dc:format>image/svg+xml</dc:format>
        <dc:type
           rdf:resource="http://purl.org/dc/dcmitype/StillImage" />
        <dc:title></dc:title>
      </cc:Work>
    </rdf:RDF>
  </metadata>
  <defs
     id="defs4844" />
  <sodipodi:namedview
     pagecolor="#ffffff"
     bordercolor="#666666"
     borderopacity="1"
     objecttolerance="10"
     gridtolerance="10"
     guidetolerance="10"
     inkscape:pageopacity="0"
     inkscape:pageshadow="2"
     inkscape:window-width="716"
     inkscape:window-height="480"
     id="namedview4842"
     showgrid="false"
     inkscape:pagecheckerboard="true"
     inkscape:zoom="0.17285156"
     inkscape:cx="682.66667"
     inkscape:cy="682.66667"
     inkscape:window-x="0"
     inkscape:window-y="0"
     inkscape:window-maximized="0"
     inkscape:current-layer="svg4840" />
  <path
     d="M 0.00 0.00 L 1024.00 0.00 L 1024.00 1024.00 L 0.00 1024.00 L 0.00 0.00 Z"
     fill="#fefefe"
     id="path4836"
     style="opacity:0" />
  <path
     d="M 171.01 75.99 C 177.16 83.51 179.70 93.42 178.31 103.00 C 174.60 132.74 172.56 163.39 174.05 193.34 C 176.08 241.35 186.33 289.22 209.21 331.78 C 227.65 366.32 254.53 396.03 286.68 418.33 C 319.66 441.38 357.35 456.70 396.12 466.90 C 401.66 468.23 407.35 469.03 413.01 469.62 C 429.23 471.44 445.59 472.25 461.90 472.88 C 474.23 473.78 486.66 473.37 499.00 474.11 C 556.65 475.06 614.34 474.86 671.99 474.40 C 672.29 470.93 672.32 467.47 672.26 463.99 C 672.23 427.32 672.28 390.64 672.23 353.96 C 671.50 337.81 681.93 322.53 697.24 317.35 C 703.00 315.25 708.97 315.09 715.02 315.70 C 723.74 316.90 731.30 321.37 737.35 327.64 C 825.29 415.71 913.36 503.64 1001.36 591.64 C 1004.39 594.62 1007.27 597.75 1009.98 601.02 C 1018.83 611.91 1023.50 625.98 1023.05 640.00 C 1022.70 655.39 1016.03 670.29 1005.00 681.00 C 915.32 770.65 825.65 860.32 735.99 949.99 C 727.41 959.13 714.11 963.03 701.90 960.43 C 688.59 957.78 677.45 947.47 673.73 934.43 C 671.74 928.22 672.32 922.39 672.25 916.00 C 672.23 879.59 672.30 843.17 672.21 806.76 C 648.81 806.51 625.40 806.40 602.00 806.24 C 597.32 806.27 592.68 805.72 588.00 805.76 C 570.99 805.70 553.99 805.40 536.99 805.10 C 523.34 804.36 509.64 804.63 496.00 803.89 C 469.99 803.24 443.95 802.08 417.99 800.31 C 398.06 799.02 378.23 794.91 358.82 790.29 C 308.05 778.10 258.42 762.18 211.17 739.81 C 171.10 720.72 132.98 696.91 100.43 666.58 C 73.00 641.07 49.88 611.22 33.38 577.51 C 17.15 544.88 7.42 509.16 3.55 472.96 C -0.43 436.83 1.31 400.11 6.72 364.21 C 15.68 304.97 34.95 246.50 58.62 191.57 C 74.60 154.67 92.88 118.74 112.75 83.79 C 117.51 75.70 123.69 68.88 132.73 65.64 C 146.14 60.28 162.06 64.78 171.01 75.99 Z"
     fill="#000000"
     id="path4838" />
</svg>
