<?xml version="1.0" encoding="UTF-8"?>
<svg width="1024px" height="1024px" viewBox="0 0 1024 1024" version="1.1" xmlns="http://www.w3.org/2000/svg" xmlns:xlink="http://www.w3.org/1999/xlink">
    <!-- Generator: Sketch 48.1 (47250) - http://www.bohemiancoding.com/sketch -->
    <title>Hide - Reveal</title>
    <desc>Created with Sketch.</desc>
    <defs></defs>
    <g id="Page-1" stroke="none" stroke-width="1" fill="none" fill-rule="evenodd">
        <g id="Hide---Reveal" transform="translate(512.000000, 512.000000) rotate(180.000000) translate(-512.000000, -512.000000) " fill-rule="nonzero">
            <path d="M0,0 L101.08,0 C77.16,0.88 53.79,9.98 35.83,25.84 C13.98,44.72 0.82,72.68 0,101.55 L0,0 Z" id="path14009" fill="#FEFEFE" opacity="0"></path>
            <path d="M101.08,0 L922.51,0 L924.37,0.1 C948.02,1.19 971.05,10.54 988.71,26.31 C1010.28,45.22 1023.23,73.01 1024,101.68 L1024,923.43 C1022.97,946.94 1014.12,969.85 998.63,987.61 C979.73,1009.83 951.47,1023.22 922.32,1024 L101.53,1024 C77.46,1023.25 53.9,1014.1 35.83,998.16 C14.08,979.36 0.97,951.62 0,922.89 L0,101.55 C0.82,72.68 13.98,44.72 35.83,25.84 C53.79,9.98 77.16,0.88 101.08,0 Z" id="path14011" fill="#000000"></path>
            <path d="M922.51,0 L1024,0 L1024,101.68 C1023.23,73.01 1010.28,45.22 988.71,26.31 C971.05,10.54 948.02,1.19 924.37,0.1 L922.51,0 Z" id="path14013" fill="#FEFEFE" opacity="0"></path>
            <path d="M510.09,316.62 C521.84,316.02 533.84,319.8 543.4,326.6 C548.35,330.09 552.1,334.41 556.41,338.58 C568.21,350.44 580.25,362.08 591.88,374.11 C654.73,436.61 717.47,499.17 780.37,561.63 C790.23,571.52 796.08,585.03 796.38,599 C796.67,610.23 793.25,621.61 786.92,630.87 C779.16,642.31 766.85,650.69 753.31,653.53 C738.04,656.99 721.49,653.47 708.92,644.15 C705.18,641.52 702.18,638.24 698.95,635.05 C641.82,578.16 584.62,521.37 527.5,464.47 C520.83,457.71 510.01,456.19 501.65,460.65 C499.21,461.98 497.15,464.25 495.19,466.2 C437.18,523.85 379.31,581.64 321.3,639.29 C308.45,651.83 289.61,657.4 272.02,653.69 C257.55,650.84 244.5,641.9 236.64,629.42 C231.24,621.02 228.18,611 228.19,600.99 C227.79,586.82 233.5,572.54 243.41,562.42 C302.69,503.34 361.95,444.32 421.32,385.33 C432.76,374.03 443.83,362.55 455.44,351.4 C463.14,343.81 470.71,336.06 478.5,328.55 C487.34,321.22 498.63,317.08 510.09,316.62 Z" id="path14015" fill="#FEFEFE"></path>
            <path d="M0,922.89 C0.97,951.62 14.08,979.36 35.83,998.16 C53.9,1014.1 77.46,1023.25 101.53,1024 L0,1024 L0,922.89 Z" id="path14017" fill="#FEFEFE" opacity="0"></path>
            <path d="M1024,923.43 L1024,1024 L922.32,1024 C951.47,1023.22 979.73,1009.83 998.63,987.61 C1014.12,969.85 1022.97,946.94 1024,923.43 Z" id="path14019" fill="#FEFEFE" opacity="0"></path>
        </g>
    </g>
</svg>