<?xml version="1.0" encoding="UTF-8" standalone="no"?>
<svg
   xmlns:dc="http://purl.org/dc/elements/1.1/"
   xmlns:cc="http://creativecommons.org/ns#"
   xmlns:rdf="http://www.w3.org/1999/02/22-rdf-syntax-ns#"
   xmlns:svg="http://www.w3.org/2000/svg"
   xmlns="http://www.w3.org/2000/svg"
   xmlns:sodipodi="http://sodipodi.sourceforge.net/DTD/sodipodi-0.dtd"
   xmlns:inkscape="http://www.inkscape.org/namespaces/inkscape"
   viewBox="0 0 1024 1024"
   height="1024.0pt"
   width="1024.0pt"
   version="1.1"
   id="svg8294"
   sodipodi:docname="Mark all notifications as seen.svg"
   inkscape:version="0.92.2 (5c3e80d, 2017-08-06)">
  <metadata
     id="metadata8300">
    <rdf:RDF>
      <cc:Work
         rdf:about="">
        <dc:format>image/svg+xml</dc:format>
        <dc:type
           rdf:resource="http://purl.org/dc/dcmitype/StillImage" />
        <dc:title></dc:title>
      </cc:Work>
    </rdf:RDF>
  </metadata>
  <defs
     id="defs8298" />
  <sodipodi:namedview
     pagecolor="#ffffff"
     bordercolor="#666666"
     borderopacity="1"
     objecttolerance="10"
     gridtolerance="10"
     guidetolerance="10"
     inkscape:pageopacity="0"
     inkscape:pageshadow="2"
     inkscape:window-width="716"
     inkscape:window-height="480"
     id="namedview8296"
     showgrid="false"
     inkscape:pagecheckerboard="true"
     inkscape:zoom="0.17285156"
     inkscape:cx="682.66667"
     inkscape:cy="682.66667"
     inkscape:window-x="0"
     inkscape:window-y="0"
     inkscape:window-maximized="0"
     inkscape:current-layer="svg8294" />
  <path
     d="M 0.00 0.00 L 504.13 0.00 C 464.30 0.76 424.61 5.88 385.99 15.74 C 304.23 36.42 227.86 77.70 165.79 134.79 C 95.81 198.81 44.39 282.64 18.94 374.00 C 6.89 416.87 0.65 461.25 0.00 505.76 L 0.00 0.00 Z"
     fill="#fefefe"
     id="path8280"
     style="opacity:0" />
  <path
     style="fill:#000000;stroke-width:1.33333337"
     d="M 672.17383 0 C 619.06716 1.0133334 566.14763 7.8396611 514.6543 20.986328 C 405.64096 48.559662 303.81274 103.6007 221.05273 179.7207 C 127.74606 265.08071 59.187241 376.85268 25.253906 498.66602 C 9.1872391 555.82602 0.86666669 615.00099 0 674.34766 L 0 691.83984 C 0.78666669 738.33318 6.0007549 784.70742 16.107422 830.10742 C 34.787422 914.92076 69.947603 996.01403 118.96094 1067.7207 C 171.56094 1144.9207 240.23971 1210.9873 319.37305 1260.6406 C 380.42638 1299.0273 447.54687 1327.6531 517.54688 1345.0664 C 567.56021 1357.6397 618.89245 1364.134 670.42578 1365.334 L 693.16016 1365.334 C 760.82682 1364.1073 828.21294 1353.1606 892.59961 1332.2539 C 999.23961 1297.9072 1097.0406 1236.7863 1174.6406 1155.9863 C 1257.0406 1070.4797 1316.4007 963.23966 1345.0273 847.98633 C 1357.8807 796.65299 1364.5473 743.87932 1365.334 690.97266 L 1365.334 674.8125 C 1364.054 565.2525 1336.1472 456.32019 1284.1738 359.85352 C 1244.7872 286.41351 1191.8928 220.26753 1128.7461 165.88086 C 1032.8394 82.920857 913.54589 27.57323 788.19922 8.2265625 C 757.13255 3.253229 725.78766 0.78734377 694.34766 0.02734375 L 693.59961 0 L 672.17383 0 z M 684 90.345703 C 786.24 90.49237 888.05403 117.71995 976.7207 168.61328 C 1024.7207 196.06662 1068.8937 230.26726 1107.4004 269.94727 C 1168.3071 332.5206 1214.9472 408.69364 1243.1738 491.32031 C 1262.0805 546.84031 1273.0005 605.34666 1274.5605 664 C 1278.9205 784.29334 1244.9739 905.11992 1179.2539 1005.9199 C 1149.1606 1052.3333 1112.466 1094.4667 1070.666 1130.6934 C 1006.306 1186.5334 929.82633 1228.2397 847.98633 1251.9863 C 738.66632 1283.9997 620.30631 1283.4001 511.29297 1250.3867 C 431.95963 1226.5067 357.80076 1185.7593 295.10742 1131.5859 C 204.16075 1053.3993 138.22714 947.04052 108.48047 830.86719 C 88.827135 754.81385 84.585989 674.91922 95.972656 597.19922 C 106.27932 526.35922 129.59945 457.46693 164.43945 394.93359 C 216.59945 300.80026 294.85372 221.62706 388.40039 168.40039 C 477.89373 117.08039 580.84 89.93237 684 90.345703 z "
     transform="scale(0.74999998)"
     id="path8282" />
  <path
     d="M 520.20 0.00 L 1024.00 0.00 L 1024.00 506.11 C 1023.04 423.94 1002.11 342.24 963.13 269.89 C 933.59 214.81 893.92 165.20 846.56 124.41 C 774.63 62.19 685.16 20.68 591.15 6.17 C 567.85 2.44 544.34 0.59 520.76 0.02 L 520.20 0.00 Z"
     fill="#fefefe"
     id="path8284"
     style="opacity:0" />
  <path
     d="M 714.51 280.62 C 720.53 282.03 725.88 284.50 730.84 288.18 C 744.61 298.06 758.40 307.92 772.18 317.80 C 783.26 325.80 790.28 339.10 789.96 352.85 C 790.21 361.87 787.25 370.71 782.07 378.05 C 681.77 518.07 581.47 658.10 481.10 798.07 C 476.98 803.68 473.48 809.85 468.34 814.34 C 459.63 822.57 448.00 827.54 436.00 827.91 C 424.84 828.39 413.62 824.93 404.64 818.31 C 400.28 815.02 396.57 811.14 392.46 807.52 C 333.80 748.86 275.14 690.19 216.46 631.54 C 211.72 626.63 208.11 620.42 206.20 613.87 C 201.68 599.17 205.75 582.47 216.48 571.48 C 228.80 559.13 241.16 546.83 253.47 534.47 C 259.77 528.11 268.15 523.75 276.99 522.32 C 290.80 519.75 305.58 524.77 315.33 534.78 C 349.61 569.13 383.97 603.41 418.27 637.73 C 419.75 639.25 421.15 640.80 422.89 642.03 C 504.70 527.59 586.81 413.21 668.68 298.81 C 678.47 284.04 697.22 276.44 714.51 280.62 Z"
     fill="#000000"
     id="path8288" />
  <path
     d="M 1024.00 518.23 L 1024.00 1024.00 L 519.87 1024.00 C 570.62 1023.08 621.16 1014.87 669.45 999.19 C 749.43 973.43 822.78 927.59 880.98 866.99 C 942.78 802.86 987.30 722.43 1008.77 635.99 C 1018.41 597.49 1023.41 557.91 1024.00 518.23 Z"
     fill="#fefefe"
     id="path8290"
     style="opacity:0" />
  <path
     d="M 0.00 518.88 C 0.59 553.75 4.50 588.53 12.08 622.58 C 26.09 686.19 52.46 747.01 89.22 800.79 C 128.67 858.69 180.18 908.24 239.53 945.48 C 285.32 974.27 335.66 995.74 388.16 1008.80 C 425.67 1018.23 464.17 1023.10 502.82 1024.00 L 0.00 1024.00 L 0.00 518.88 Z"
     fill="#fefefe"
     id="path8292"
     style="opacity:0" />
</svg>
