<?xml version="1.0" encoding="UTF-8"?>
<svg width="14px" height="14px" viewBox="0 0 14 14" version="1.1" xmlns="http://www.w3.org/2000/svg" xmlns:xlink="http://www.w3.org/1999/xlink">
    <!-- Generator: Sketch 47 (45396) - http://www.bohemiancoding.com/sketch -->
    <title>Calendar</title>
    <desc>Created with Sketch.</desc>
    <defs></defs>
    <g id="Views-/" stroke="none" stroke-width="1" fill="none" fill-rule="evenodd">
        <g id="/weco-lab" transform="translate(-198.000000, -106.000000)" fill-rule="nonzero" fill="#777777">
            <g id="Sidebar" transform="translate(90.000000, 44.000000)">
                <g id="Info" transform="translate(16.000000, 30.000000)">
                    <g id="Created-On" transform="translate(92.000000, 32.000000)">
                        <g id="Calendar">
                            <path d="M12.8333333,1.16666667 L10.5,1.16666667 L10.5,0 L9.33333333,0 L9.33333333,1.16666667 L4.66666667,1.16666667 L4.66666667,0 L3.5,0 L3.5,1.16666667 L1.16666667,1.16666667 C0.522334459,1.16666667 0,1.68900113 0,2.33333333 L0,12.8333333 C0,13.4776655 0.522334459,14 1.16666667,14 L12.8333333,14 C13.4776655,14 14,13.4776655 14,12.8333333 L14,2.33333333 C14,1.68900113 13.4776655,1.16666667 12.8333333,1.16666667 Z M12.8333333,12.8333333 L1.16666667,12.8333333 L1.16666667,5.83333333 L12.8333333,5.83333333 L12.8333333,12.8333333 Z M1.16666667,4.66666667 L1.16666667,2.33333333 L1.16666667,2.33333333 L1.16666667,2.33333333 L3.5,2.33333333 L3.5,3.5 L4.66666667,3.5 L4.66666667,2.33333333 L9.33333333,2.33333333 L9.33333333,3.5 L10.5,3.5 L10.5,2.33333333 L12.8333333,2.33333333 L12.8333333,4.66666667 L1.16666667,4.66666667 Z" id="Shape"></path>
                        </g>
                    </g>
                </g>
            </g>
        </g>
    </g>
</svg>