<?xml version="1.0" encoding="UTF-8" standalone="no"?>
<svg
   xmlns:dc="http://purl.org/dc/elements/1.1/"
   xmlns:cc="http://creativecommons.org/ns#"
   xmlns:rdf="http://www.w3.org/1999/02/22-rdf-syntax-ns#"
   xmlns:svg="http://www.w3.org/2000/svg"
   xmlns="http://www.w3.org/2000/svg"
   xmlns:sodipodi="http://sodipodi.sourceforge.net/DTD/sodipodi-0.dtd"
   xmlns:inkscape="http://www.inkscape.org/namespaces/inkscape"
   viewBox="0 0 1024 1024"
   height="1024.0pt"
   width="1024.0pt"
   version="1.1"
   id="svg1408"
   sodipodi:docname="Comments.svg"
   inkscape:version="0.92.2 (5c3e80d, 2017-08-06)">
  <metadata
     id="metadata1414">
    <rdf:RDF>
      <cc:Work
         rdf:about="">
        <dc:format>image/svg+xml</dc:format>
        <dc:type
           rdf:resource="http://purl.org/dc/dcmitype/StillImage" />
        <dc:title></dc:title>
      </cc:Work>
    </rdf:RDF>
  </metadata>
  <defs
     id="defs1412" />
  <sodipodi:namedview
     pagecolor="#ffffff"
     bordercolor="#666666"
     borderopacity="1"
     objecttolerance="10"
     gridtolerance="10"
     guidetolerance="10"
     inkscape:pageopacity="0"
     inkscape:pageshadow="2"
     inkscape:window-width="1920"
     inkscape:window-height="1017"
     id="namedview1410"
     showgrid="false"
     inkscape:pagecheckerboard="true"
     inkscape:zoom="0.48889805"
     inkscape:cx="755.044"
     inkscape:cy="514.47619"
     inkscape:window-x="-8"
     inkscape:window-y="-8"
     inkscape:window-maximized="1"
     inkscape:current-layer="svg1408" />
  <path
     d="M 0.00 0.00 L 1024.00 0.00 L 1024.00 1024.00 L 0.00 1024.00 L 0.00 0.00 Z"
     fill="#fefefe"
     id="path1398"
     style="opacity:0" />
  <path
     style="fill:#000000;stroke-width:1.33333337"
     d="M 680.41602 113.23438 C 592.16641 113.40507 503.61589 125.91146 419.38672 151.64062 C 360.48005 169.68063 303.1857 194.33307 250.3457 226.06641 C 207.43904 251.71974 167.54675 282.16073 132.08008 317.41406 C 95.960077 353.72073 64.999897 394.72036 42.226562 440.70703 C 14.759895 495.8137 0.26658849 557.01268 1.9199219 618.66602 C 2.7999219 656.81268 9.8806507 694.91966 22.333984 730.98633 C 40.053985 782.38633 68.493697 829.59924 103.70703 870.89258 C 136.68037 909.65258 174.95917 942.81396 216.8125 971.64062 C 217.1725 995.94729 214.75904 1020.1731 210.3457 1044.0664 C 208.25237 1059.6397 206.52008 1074.973 208.08008 1090.6797 C 209.17341 1106.7997 212.74596 1122.7876 218.2793 1137.9609 C 224.14596 1154.1609 233.14622 1169.5201 243.21289 1183.4668 C 265.55956 1213.2135 297.90695 1235.347 333.62695 1245.707 C 379.16029 1259.1604 430.42724 1252.8926 471.25391 1228.5859 C 475.65391 1225.8259 480.35977 1223.6396 484.75977 1220.9062 C 534.50643 1188.1462 580.09351 1149.7071 617.85352 1103.4805 C 627.44018 1104.6005 637.03935 1104.7607 646.66602 1105.0273 C 678.17268 1106.8407 710.11961 1105.8667 741.59961 1104 C 811.90628 1099.64 881.9739 1087.1739 949.25391 1066.2539 C 1003.6406 1049.3072 1056.733 1026.6667 1105.9863 998 C 1148.9863 973.09333 1189.1324 943.51948 1225.0391 909.13281 C 1272.6124 863.31948 1312.1324 808.77409 1336.4258 747.10742 C 1360.1058 687.57409 1368.3994 622.12097 1359.3594 558.6543 C 1351.0127 498.2143 1327.4003 441.06602 1293.3203 390.66602 C 1269.747 355.69268 1241.5866 324.42596 1210.2266 296.2793 C 1169.5066 259.85263 1124.1464 229.5868 1075.6797 204.4668 C 976.50635 153.21346 865.43972 124.49266 754.37305 115.97266 C 729.8118 114.10599 705.12591 113.18658 680.41602 113.23438 z M 682.15625 263.0625 C 701.86966 263.09805 721.56523 263.75547 741.24023 265.48047 C 808.17357 271.0138 874.13396 285.62604 936.64062 310.35938 C 997.49396 334.47938 1055.4259 369.06609 1102.5859 414.74609 C 1139.5326 450.99943 1169.9736 495.17364 1184.3203 545.32031 C 1190.6403 566.57365 1193.241 588.54601 1193.6543 610.66602 C 1193.561 615.54602 1192.9725 620.41297 1192.8125 625.29297 C 1191.2258 650.9063 1184.787 676.38674 1175.0137 700.08008 C 1158.4403 739.84008 1132.6136 774.61328 1101.9336 804.61328 C 1058.4003 846.58662 1006.146 878.90628 950.66602 902.59961 C 873.15935 935.53294 789.37399 952.49365 705.33398 955.32031 C 660.66732 956.61365 616.08086 954.69318 571.88086 947.83984 C 562.29419 946.29318 552.30661 945.29281 542.61328 946.13281 C 532.34661 947.42615 522.80039 952.17339 515.40039 959.38672 C 510.41372 963.89339 506.70714 969.24073 502.48047 974.41406 C 491.22714 988.1074 480.25281 1002.0258 469.13281 1015.8125 C 461.82615 1024.6125 455.55956 1034.0126 447.21289 1041.8926 C 440.54622 1049.5326 432.65391 1055.7059 425.25391 1062.5859 C 419.58724 1067.6126 413.60073 1072.4134 407.41406 1076.7734 C 399.56073 1082.3734 388.26716 1082.44 380.17383 1077.3066 C 371.58716 1072.32 365.64081 1061.5069 367.49414 1051.5469 C 370.17414 1034.8402 371.73411 1018.173 372.80078 1001.293 C 375.28078 973.17297 376.01409 945.34622 373.10742 917.21289 C 372.18742 904.87956 365.86599 892.84099 355.97266 885.34766 C 347.74599 878.40099 339.19909 871.90758 330.73242 865.26758 C 314.99909 852.46758 298.3206 840.81294 282.94727 827.59961 C 266.66727 814.23961 251.36073 799.70659 237.41406 783.91992 C 208.58739 751.25325 185.10643 712.28034 173.75977 670.01367 C 165.26643 639.507 163.61367 607.28094 168.01367 575.96094 C 172.53367 545.80094 183.00034 516.54734 198.01367 490.02734 C 217.18701 455.62734 243.35924 425.53362 272.89258 399.62695 C 320.59925 358.04029 377.46575 326.67925 436.73242 304.89258 C 490.06576 285.23924 546.14601 272.70625 602.66602 266.90625 C 617.31935 265.23958 631.96096 264.56089 646.6543 263.57422 C 658.4943 263.24422 670.3282 263.04117 682.15625 263.0625 z "
     transform="scale(0.74999998)"
     id="path1400" />
  <path
     d="M 324.00 337.15 C 451.67 337.16 579.34 337.16 707.01 337.15 C 713.14 337.08 718.84 339.02 724.15 341.94 C 736.74 348.82 744.88 362.66 744.91 377.00 C 744.96 389.79 738.51 402.62 727.98 409.97 C 722.36 414.10 715.84 416.29 709.03 417.44 C 705.39 417.86 701.66 417.64 698.00 417.67 C 571.67 417.67 445.33 417.66 319.00 417.68 C 314.34 417.71 309.56 416.28 305.20 414.73 C 290.53 409.13 280.25 394.67 279.53 379.02 C 279.06 369.32 282.44 359.26 288.58 351.75 C 293.92 345.02 301.67 340.18 309.96 338.04 C 314.38 336.81 319.40 337.21 324.00 337.15 Z"
     fill="#000000"
     id="path1404" />
  <path
     d="M 324.00 495.24 C 450.67 495.27 577.35 495.25 704.02 495.25 C 710.01 495.25 716.11 496.92 721.57 499.30 C 735.65 505.74 745.02 520.55 744.89 536.01 C 744.93 550.14 737.02 563.67 724.82 570.73 C 718.85 574.15 711.88 576.18 705.00 576.38 C 579.00 576.37 453.00 576.38 327.00 576.38 C 321.88 576.36 317.01 576.71 311.98 575.44 C 303.11 573.61 294.91 568.92 289.11 561.93 C 283.61 555.50 280.41 547.40 279.59 539.01 C 278.53 525.20 284.94 511.38 296.15 503.25 C 304.06 497.48 314.27 494.76 324.00 495.24 Z"
     fill="#000000"
     id="path1406" />
</svg>
