<?xml version="1.0" encoding="UTF-8" standalone="no"?>
<svg
   xmlns:dc="http://purl.org/dc/elements/1.1/"
   xmlns:cc="http://creativecommons.org/ns#"
   xmlns:rdf="http://www.w3.org/1999/02/22-rdf-syntax-ns#"
   xmlns:svg="http://www.w3.org/2000/svg"
   xmlns="http://www.w3.org/2000/svg"
   xmlns:sodipodi="http://sodipodi.sourceforge.net/DTD/sodipodi-0.dtd"
   xmlns:inkscape="http://www.inkscape.org/namespaces/inkscape"
   viewBox="0 0 1024 1024"
   height="1024.0pt"
   width="1024.0pt"
   version="1.1"
   id="svg3701"
   sodipodi:docname="Flag.svg"
   inkscape:version="0.92.2 (5c3e80d, 2017-08-06)">
  <metadata
     id="metadata3707">
    <rdf:RDF>
      <cc:Work
         rdf:about="">
        <dc:format>image/svg+xml</dc:format>
        <dc:type
           rdf:resource="http://purl.org/dc/dcmitype/StillImage" />
        <dc:title></dc:title>
      </cc:Work>
    </rdf:RDF>
  </metadata>
  <defs
     id="defs3705" />
  <sodipodi:namedview
     pagecolor="#ffffff"
     bordercolor="#666666"
     borderopacity="1"
     objecttolerance="10"
     gridtolerance="10"
     guidetolerance="10"
     inkscape:pageopacity="0"
     inkscape:pageshadow="2"
     inkscape:window-width="716"
     inkscape:window-height="480"
     id="namedview3703"
     showgrid="false"
     inkscape:pagecheckerboard="true"
     inkscape:zoom="0.17285156"
     inkscape:cx="682.66667"
     inkscape:cy="682.66667"
     inkscape:window-x="0"
     inkscape:window-y="0"
     inkscape:window-maximized="0"
     inkscape:current-layer="svg3701" />
  <path
     d="M 0.00 0.00 L 1024.00 0.00 L 1024.00 1024.00 L 0.00 1024.00 L 0.00 0.00 Z"
     fill="#fefefe"
     id="path3695"
     style="opacity:0" />
  <path
     d="M 494.94 3.81 C 516.90 2.99 540.16 6.29 560.17 15.75 C 576.86 23.84 591.16 35.81 603.01 50.00 C 612.71 61.88 621.32 74.52 629.39 87.55 C 638.05 100.84 645.69 114.03 655.73 126.34 C 665.20 138.76 676.78 149.36 690.91 156.23 C 692.96 157.07 695.01 157.94 697.07 158.78 C 702.87 160.91 708.84 162.11 714.92 163.14 C 722.58 163.95 730.38 163.75 738.06 163.31 C 746.06 162.22 754.11 160.98 761.90 158.85 C 775.78 155.24 789.16 150.25 802.27 144.48 C 838.66 128.36 873.57 106.84 906.60 84.70 C 910.96 82.03 914.60 79.09 920.00 79.19 C 926.34 78.87 932.11 82.30 935.69 87.37 C 939.26 92.42 940.97 98.88 941.28 104.99 C 941.51 122.99 941.59 141.00 941.80 159.00 C 942.62 191.98 942.31 225.02 943.18 258.00 C 943.22 279.94 943.79 301.87 943.81 323.80 C 943.78 329.93 944.30 336.02 944.20 342.14 C 944.53 390.41 945.46 438.68 945.84 487.00 C 946.50 515.98 946.47 545.01 946.87 574.00 C 947.14 581.06 947.59 587.97 946.42 594.99 C 944.28 611.17 937.15 626.85 924.56 637.54 C 919.18 642.67 913.04 646.68 906.98 650.93 C 883.95 666.96 859.95 681.33 834.05 692.25 C 826.50 695.26 818.90 697.88 811.11 700.18 C 802.99 702.48 794.71 703.81 786.38 705.01 C 770.00 706.62 753.46 704.83 738.10 698.77 C 722.47 692.53 709.05 682.60 697.23 670.74 C 666.00 639.57 644.29 597.12 612.39 565.58 C 600.86 554.43 588.01 545.07 573.18 538.82 C 571.49 538.19 569.82 537.55 568.15 536.88 C 563.19 535.20 558.17 533.96 553.06 532.86 C 550.72 532.59 548.39 532.32 546.07 531.94 C 535.88 530.78 525.93 531.50 515.81 532.68 C 513.21 533.19 510.57 533.58 507.98 534.16 C 506.95 534.35 505.92 534.54 504.89 534.72 C 500.91 535.80 496.91 536.76 492.91 537.76 C 491.94 538.15 490.97 538.53 489.99 538.91 C 485.89 539.98 481.95 541.49 477.95 542.89 C 450.63 553.30 424.50 568.85 400.33 585.19 C 379.69 599.12 360.25 614.24 341.01 630.03 C 336.27 634.12 331.52 637.89 325.30 639.40 C 320.98 640.08 316.54 639.62 312.76 637.30 C 305.50 632.91 301.44 624.25 301.33 615.94 C 301.18 608.28 301.45 600.64 300.80 593.00 C 300.64 570.33 300.38 547.66 300.26 525.00 C 300.41 518.64 299.56 512.36 299.75 506.00 C 299.45 482.01 299.55 457.95 299.00 433.98 C 298.37 407.35 298.58 380.63 298.15 354.00 C 298.01 351.33 297.77 348.68 297.77 346.00 C 297.65 323.00 297.34 300.00 297.27 277.00 C 297.32 272.98 296.76 269.01 296.75 265.00 C 296.67 241.00 296.30 217.00 296.25 193.00 C 296.26 188.66 295.68 184.35 295.75 180.00 C 295.65 157.33 295.32 134.67 295.24 112.00 C 294.77 97.58 299.93 82.96 308.29 71.31 C 313.79 63.64 321.02 58.18 329.40 53.97 C 343.72 47.18 358.23 40.84 372.87 34.77 C 374.56 34.10 376.25 33.44 377.94 32.77 C 398.63 24.70 419.49 17.44 441.08 12.15 C 452.52 9.07 464.36 7.32 476.05 5.50 C 482.32 4.39 488.64 4.65 494.94 3.81 Z"
     fill="#000000"
     id="path3697" />
  <path
     d="M 130.00 18.12 C 148.33 18.10 166.67 18.10 185.00 18.13 C 203.24 18.18 220.82 28.05 230.49 43.50 C 237.09 53.79 239.69 65.86 239.23 78.00 C 239.21 372.67 239.22 667.33 239.22 962.00 C 239.33 967.45 239.26 972.82 238.13 978.18 C 235.70 991.62 228.06 1003.99 217.10 1012.14 C 207.90 1019.06 196.53 1022.95 185.01 1023.08 C 167.01 1023.12 149.00 1023.08 131.00 1023.10 C 122.24 1023.07 113.61 1021.19 105.82 1017.15 C 91.61 1009.98 80.93 996.43 77.34 980.93 C 75.82 974.61 75.81 968.44 75.88 962.00 C 75.89 668.33 75.88 374.67 75.89 81.00 C 75.91 76.27 75.70 71.72 76.23 67.01 C 77.72 51.57 86.36 36.95 99.09 28.09 C 108.12 21.69 118.92 18.19 130.00 18.12 Z"
     fill="#000000"
     id="path3699" />
</svg>
