<?xml version="1.0" encoding="UTF-8" standalone="no"?>
<svg
   xmlns:dc="http://purl.org/dc/elements/1.1/"
   xmlns:cc="http://creativecommons.org/ns#"
   xmlns:rdf="http://www.w3.org/1999/02/22-rdf-syntax-ns#"
   xmlns:svg="http://www.w3.org/2000/svg"
   xmlns="http://www.w3.org/2000/svg"
   xmlns:sodipodi="http://sodipodi.sourceforge.net/DTD/sodipodi-0.dtd"
   xmlns:inkscape="http://www.inkscape.org/namespaces/inkscape"
   viewBox="0 0 363 376"
   height="376.0pt"
   width="363.0pt"
   version="1.1"
   id="svg850"
   sodipodi:docname="Notifications (0).svg"
   inkscape:version="0.92.2 (5c3e80d, 2017-08-06)">
  <metadata
     id="metadata856">
    <rdf:RDF>
      <cc:Work
         rdf:about="">
        <dc:format>image/svg+xml</dc:format>
        <dc:type
           rdf:resource="http://purl.org/dc/dcmitype/StillImage" />
        <dc:title></dc:title>
      </cc:Work>
    </rdf:RDF>
  </metadata>
  <defs
     id="defs854" />
  <sodipodi:namedview
     pagecolor="#ffffff"
     bordercolor="#666666"
     borderopacity="1"
     objecttolerance="10"
     gridtolerance="10"
     guidetolerance="10"
     inkscape:pageopacity="0"
     inkscape:pageshadow="2"
     inkscape:window-width="1920"
     inkscape:window-height="1017"
     id="namedview852"
     showgrid="false"
     inkscape:pagecheckerboard="true"
     inkscape:zoom="0.47074468"
     inkscape:cx="242"
     inkscape:cy="250.66667"
     inkscape:window-x="-8"
     inkscape:window-y="-8"
     inkscape:window-maximized="1"
     inkscape:current-layer="svg850" />
  <path
     d="M 0.00 0.00 L 363.00 0.00 L 363.00 376.00 L 0.00 376.00 L 0.00 0.00 Z"
     fill="#ffffff"
     id="path842"
     style="opacity:0" />
  <path
    d="M 325.35547 16.259766 C 321.30646 16.279085 317.30169 17.144661 313.69336 18.986328 C 305.28003 24.106328 302.48034 33.079167 292.01367 35.8125 C 288.14701 36.719167 283.96 36.640521 280 36.867188 C 261.77333 37.893854 244.23984 39.253229 226.83984 45.226562 C 207.62651 51.733229 190.77307 62.37401 175.06641 75.027344 C 169.14641 79.880677 163.26724 84.520234 158.25391 90.240234 C 148.89391 100.8669 141.82693 113.62612 135.93359 126.43945 C 123.13359 154.39945 114.7337 185.74578 103.70703 214.42578 C 98.347031 228.14578 91.959375 243.06672 82.359375 254.38672 C 78.212708 259.36005 73.092891 263.21292 67.212891 265.90625 C 52.079557 273.06625 34.812422 281.5474 23.732422 294.41406 C 18.145755 301.01406 14.039167 308.48065 13.8125 317.33398 C 13.225833 334.58732 21.306042 351.09268 31.359375 364.66602 C 44.852708 382.65268 63.027213 397.82672 81.560547 410.38672 C 117.16055 434.32005 157.85352 451.70701 198.85352 464.01367 C 224.22685 471.41367 249.78573 477.2526 276.03906 480.58594 C 287.7324 482.43927 299.61372 483.00008 311.40039 484.08008 C 333.44039 485.42674 355.51971 484.36049 377.37305 481.17383 C 400.54638 477.41383 425.14625 470.60086 443.90625 455.88086 C 451.81292 449.48086 459.69312 440.61362 462.45312 430.62695 C 465.07979 420.62695 463.01245 410.06594 459.42578 400.58594 C 454.46578 387.62594 446.79932 376.30633 438.97266 364.98633 C 430.91932 353.66633 430.25273 338.06669 431.05273 324.69336 C 433.33273 295.66669 441.17273 266.16005 446.05273 237.38672 C 450.1194 211.85339 454.04086 186.57255 446.88086 161.19922 C 438.02753 133.90589 425.64036 107.44091 404.70703 87.267578 C 393.4937 76.240911 379.76047 67.133776 366.48047 58.787109 C 362.66714 56.373776 359.28 53.639688 357 49.679688 C 352.69333 42.226354 354.2006 34.27974 348.94727 27.066406 C 343.3831 20.273906 334.26328 16.217262 325.35547 16.259766 z M 137.69141 299.61133 C 147.52031 299.57687 157.29469 300.03422 166.67969 300.57422 C 182.43969 302.24089 197.78724 303.9194 213.25391 307.05273 C 225.88057 309.25273 238.41276 312.14594 250.74609 315.58594 C 284.35943 324.06594 317.3069 335.98635 348.24023 351.67969 C 366.41357 361.14635 385.12096 372.43906 399.6543 387.03906 C 407.0143 394.62573 413.85427 403.7326 414.96094 414.58594 C 414.2676 420.8526 412.43938 427.22672 407.35938 431.38672 C 397.89271 439.97339 383.62672 443.34661 371.38672 445.61328 C 342.33339 449.81328 311.58695 447.74688 282.62695 443.54688 C 263.18695 440.57354 243.89333 436.82732 225 431.33398 C 207.30667 426.90732 189.8125 421.49419 172.8125 414.88086 C 150.47917 406.49419 128.45315 396.39951 108.14648 383.82617 C 96.533151 376.49284 84.747136 368.06685 75.480469 357.85352 C 69.853802 351.52018 64.786146 344.46633 63.132812 335.98633 C 62.092812 331.33299 63.773542 326.08078 65.546875 321.80078 C 70.386875 313.46745 80.840963 308.59943 89.654297 305.74609 C 104.7793 301.08776 121.3099 299.66875 137.69141 299.61133 z "
    stroke-width="1.33333337"
    transform="scale(0.74999999)"
    id="path844" />
  <path
     d="M 130.97 240.75 C 151.98 242.74 172.66 246.57 192.46 254.08 C 187.95 265.33 178.55 273.04 167.58 277.62 C 155.01 283.01 141.70 283.71 128.23 282.36 C 116.59 280.70 105.31 277.10 95.45 270.57 C 85.81 264.38 77.46 255.11 74.34 243.89 C 92.46 239.43 112.43 239.71 130.97 240.75 Z"
     fill="#000000"
     id="path848" />
</svg>
