<?xml version="1.0" encoding="UTF-8" standalone="no"?>
<!DOCTYPE svg PUBLIC "-//W3C//DTD SVG 1.1//EN" "http://www.w3.org/Graphics/SVG/1.1/DTD/svg11.dtd">
<svg viewBox="0 0 1322 793" height="793.0pt" width="1322.0pt" xmlns="http://www.w3.org/2000/svg" version="1.1">
<path d="M 0.00 0.00 L 1322.00 0.00 L 1322.00 793.00 L 0.00 793.00 L 0.00 0.00 Z" fill="#ebebeb" />
<path d="M 502.00 116.61 C 574.33 116.63 646.67 116.61 719.00 116.62 C 725.08 116.72 731.66 116.13 737.61 117.47 C 743.45 118.85 747.14 122.68 751.25 126.73 C 758.71 134.29 766.26 141.73 773.72 149.28 C 805.21 180.76 836.68 212.32 868.19 243.81 C 873.15 248.68 877.68 254.64 879.51 261.44 C 881.45 268.52 880.98 276.69 881.00 284.00 C 881.01 389.67 880.99 495.33 881.00 601.00 C 880.97 608.50 881.24 616.12 880.39 623.57 C 877.85 639.73 868.52 654.68 855.43 664.42 C 844.49 672.56 830.70 677.40 817.00 676.89 C 715.34 676.98 613.66 676.88 512.00 676.93 C 505.93 676.84 499.66 677.13 493.66 676.18 C 480.71 673.60 468.40 667.34 459.28 657.71 C 447.83 646.08 440.59 629.42 441.22 613.00 C 441.17 471.33 441.21 329.66 441.20 188.00 C 441.31 180.48 440.83 172.87 442.64 165.60 C 446.07 151.29 454.47 138.14 466.25 129.27 C 476.32 121.55 489.22 116.45 502.00 116.61 Z" fill="#cfcfcf" />
<path d="M 530.00 156.61 C 582.00 156.63 634.00 156.61 686.00 156.63 C 690.69 156.58 695.34 156.37 700.02 156.98 C 701.61 163.08 700.91 168.72 700.99 175.00 C 701.01 198.67 700.99 222.33 701.00 246.00 C 701.00 253.13 700.59 260.53 702.53 267.45 C 706.32 281.47 718.04 292.61 732.21 295.73 C 737.92 296.82 744.18 296.33 750.00 296.40 C 780.21 296.43 810.50 296.35 840.70 296.43 C 841.11 301.62 840.89 306.80 840.89 312.00 C 840.88 407.00 840.86 502.01 840.90 597.02 C 840.90 607.67 836.33 618.28 828.65 625.66 C 821.58 632.49 811.84 636.50 802.04 636.90 C 795.03 637.19 788.01 636.84 781.00 636.98 C 694.72 636.92 608.24 637.02 521.97 636.94 C 506.35 637.12 491.70 628.14 485.05 613.98 C 482.11 607.99 480.98 601.64 481.17 595.00 C 481.15 462.33 481.18 329.65 481.15 196.99 C 481.02 188.57 483.85 180.47 488.54 173.55 C 493.12 166.80 500.29 161.72 507.86 158.83 C 515.06 156.06 522.44 156.65 530.00 156.61 Z" fill="#ebebeb" />
<path d="M 777.05 342.96 C 786.48 347.10 792.22 357.98 789.08 368.03 C 786.83 376.16 779.49 381.08 773.97 386.96 C 769.49 391.79 764.38 396.05 760.17 401.10 C 761.44 404.33 762.99 407.42 764.37 410.58 C 769.85 423.94 771.47 438.87 769.16 453.10 C 766.49 469.30 758.73 484.53 747.24 496.25 C 726.37 517.04 705.58 537.91 684.74 558.74 C 673.64 569.66 659.57 577.29 644.24 580.25 C 630.32 583.28 616.02 581.85 602.58 577.40 C 598.22 576.01 594.33 573.49 590.01 572.07 C 588.67 572.57 587.55 573.57 586.51 574.52 C 579.24 581.57 572.41 589.11 564.98 595.98 C 558.18 602.28 547.59 603.14 539.77 598.21 C 532.02 593.66 528.10 584.02 530.33 575.33 C 531.39 570.62 534.12 566.84 537.57 563.57 C 543.51 557.84 549.18 551.85 555.15 546.15 C 556.49 544.82 557.92 543.39 558.95 541.79 C 558.51 538.63 556.48 535.63 555.33 532.67 C 549.88 519.66 547.87 505.01 550.03 491.05 C 552.39 473.97 560.56 457.91 572.77 445.76 C 590.61 427.94 608.43 410.10 626.27 392.27 C 631.98 386.50 637.30 380.70 643.97 375.97 C 664.15 361.12 691.43 356.73 715.21 364.70 C 720.35 366.26 724.93 368.89 729.90 370.84 C 734.87 366.91 738.95 361.92 743.57 357.58 C 747.63 353.67 751.33 349.26 755.70 345.70 C 761.74 340.94 770.01 339.71 777.05 342.96 Z" fill="#cfcfcf" />
<path d="M 699.98 400.94 C 693.74 408.01 686.47 414.16 680.16 421.17 C 675.64 426.27 673.99 433.77 675.77 440.32 C 677.95 447.10 682.98 452.99 689.96 455.03 C 696.36 456.89 704.22 455.83 709.33 451.33 C 716.55 445.05 722.67 437.48 730.10 431.45 C 732.05 435.83 731.98 440.32 731.79 445.01 C 731.41 451.89 729.14 458.70 725.61 464.61 C 722.58 469.65 718.47 473.26 714.37 477.37 C 697.06 494.72 679.68 512.01 662.39 529.39 C 651.79 541.12 635.05 546.26 619.78 541.91 C 622.26 537.88 625.73 535.36 629.02 532.02 C 633.11 527.89 637.83 523.89 641.10 519.08 C 644.33 514.39 644.94 508.64 643.87 503.15 C 641.96 494.72 634.69 487.82 626.01 486.90 C 619.55 486.07 613.34 488.17 608.62 492.61 C 603.35 497.67 598.28 502.95 593.15 508.15 C 591.96 509.35 590.57 510.26 589.14 511.13 C 585.84 498.97 588.30 485.06 596.01 475.00 C 598.03 472.34 600.34 470.05 602.70 467.70 C 618.59 451.93 634.34 436.00 650.23 420.22 C 656.56 414.02 661.53 407.70 669.68 403.68 C 678.71 399.18 690.36 397.44 699.98 400.94 Z" fill="#ebebeb" /></svg>