<?xml version="1.0" encoding="UTF-8" standalone="no"?>
<!DOCTYPE svg PUBLIC "-//W3C//DTD SVG 1.1//EN" "http://www.w3.org/Graphics/SVG/1.1/DTD/svg11.dtd">
<svg viewBox="0 0 1322 793" height="793.0pt" width="1322.0pt" xmlns="http://www.w3.org/2000/svg" version="1.1">
<path d="M 0.00 0.00 L 1322.00 0.00 L 1322.00 793.00 L 0.00 793.00 L 0.00 0.00 Z" fill="#ebebeb" />
<path d="M 412.99 159.63 C 577.99 159.61 743.01 159.64 908.00 159.61 C 918.61 159.68 929.12 162.95 937.64 169.33 C 948.13 176.99 955.35 188.84 957.34 201.68 C 958.00 206.71 957.76 211.93 957.80 217.00 C 957.79 339.67 957.80 462.33 957.79 585.00 C 957.65 601.93 947.98 617.93 933.39 626.39 C 924.51 631.81 914.31 633.72 904.00 633.36 C 742.67 633.32 581.33 633.34 420.00 633.35 C 409.50 633.88 399.17 632.28 389.93 627.07 C 377.76 620.43 368.82 608.74 365.70 595.22 C 363.86 588.42 364.39 581.95 364.34 575.00 C 364.34 452.66 364.34 330.32 364.34 207.99 C 364.57 193.38 371.78 179.25 383.25 170.26 C 391.81 163.76 402.19 159.79 412.99 159.63 Z" fill="#cecece" />
<path d="M 425.00 199.18 C 583.33 199.25 741.69 199.16 900.01 199.23 C 907.03 198.83 913.78 203.02 916.62 209.42 C 918.99 214.33 918.26 219.71 918.35 225.00 C 918.33 338.67 918.34 452.33 918.35 566.00 C 918.29 570.29 918.64 574.76 917.97 578.99 C 917.04 585.11 912.28 590.43 906.55 592.55 C 903.74 593.62 900.97 593.64 898.00 593.70 C 742.67 593.68 587.33 593.69 432.00 593.69 C 427.59 593.64 423.03 593.94 418.66 593.31 C 411.93 592.20 406.58 586.78 404.72 580.35 C 403.46 575.18 403.83 569.30 403.79 564.00 C 403.80 452.33 403.80 340.67 403.79 229.00 C 403.84 223.88 403.48 218.33 404.42 213.31 C 405.39 207.79 409.60 202.95 414.59 200.57 C 417.67 199.03 421.63 199.26 425.00 199.18 Z" fill="#ebebeb" />
<path d="M 530.36 255.47 C 537.38 255.04 544.41 255.67 551.11 257.86 C 565.81 262.41 578.28 273.47 584.49 287.55 C 588.55 296.63 590.48 307.14 588.80 317.01 C 587.57 326.02 584.16 334.45 578.79 341.80 C 565.54 360.23 540.77 368.74 519.01 362.01 C 501.48 356.86 487.03 342.50 482.04 324.89 C 479.96 317.22 478.91 309.48 480.48 301.60 C 482.48 288.53 489.14 276.74 499.23 268.23 C 507.89 260.82 519.00 256.32 530.36 255.47 Z" fill="#cecece" />
<path d="M 787.11 351.74 C 789.29 352.87 791.33 354.22 793.30 355.68 C 816.88 372.81 840.68 389.65 864.36 406.64 C 868.64 410.02 873.61 412.71 877.56 416.43 C 878.65 419.68 878.10 423.60 878.19 427.00 C 878.14 464.33 878.19 501.67 878.17 539.00 C 878.01 544.11 878.71 549.45 877.80 554.48 C 735.64 554.71 593.18 554.38 451.00 554.58 C 448.50 554.62 446.00 554.52 443.50 554.43 C 443.32 536.29 443.57 518.13 443.38 499.99 C 443.40 498.50 443.37 496.94 443.67 495.47 C 445.71 492.41 448.79 489.97 451.34 487.33 C 467.55 471.21 483.72 455.05 499.93 438.92 C 508.91 430.04 517.66 420.85 526.90 412.25 C 531.94 414.73 536.63 417.76 541.52 420.51 C 557.02 429.31 572.46 438.22 587.94 447.04 C 591.97 449.31 595.83 451.81 600.03 453.76 C 605.46 450.40 610.42 446.31 615.58 442.57 C 628.88 432.85 642.10 423.01 655.39 413.31 C 657.15 411.84 658.69 412.84 660.66 413.29 C 679.07 419.34 697.62 425.00 716.05 431.01 C 717.47 431.37 719.17 432.00 720.63 431.68 C 723.59 428.98 725.97 425.59 728.55 422.52 C 745.41 402.04 762.24 381.55 779.08 361.05 C 781.75 357.83 784.11 354.64 787.11 351.74 Z" fill="#cecece" /></svg>