<?xml version="1.0" encoding="UTF-8" standalone="no"?>
<!DOCTYPE svg PUBLIC "-//W3C//DTD SVG 1.1//EN" "http://www.w3.org/Graphics/SVG/1.1/DTD/svg11.dtd">
<svg viewBox="0 0 1322 793" height="793.0pt" width="1322.0pt" xmlns="http://www.w3.org/2000/svg" version="1.1">
<path d="M 0.00 0.00 L 1322.00 0.00 L 1322.00 793.00 L 0.00 793.00 L 0.00 0.00 Z" fill="#ebebeb" />
<path d="M 675.45 196.52 C 688.62 202.15 697.82 215.59 697.68 230.00 C 697.71 338.67 697.67 447.33 697.70 556.00 C 697.65 560.84 698.01 566.17 696.89 570.88 C 694.18 582.94 685.28 593.33 673.57 597.46 C 666.91 600.02 659.86 600.23 652.86 599.30 C 644.79 598.02 637.20 594.45 632.25 587.76 C 623.14 577.26 613.29 567.36 603.49 557.52 C 583.67 537.74 563.15 518.11 540.77 501.23 C 533.43 495.52 525.47 491.12 516.17 489.65 C 501.87 488.47 487.32 489.75 472.98 488.91 C 465.99 488.54 459.26 486.51 453.48 482.50 C 445.63 477.29 440.32 469.04 438.06 459.96 C 436.92 455.57 437.32 450.53 437.27 446.00 C 437.27 411.33 437.30 376.67 437.25 342.00 C 436.88 329.68 443.46 317.49 453.68 310.67 C 460.53 305.90 468.72 304.01 477.00 304.32 C 489.59 304.09 502.37 304.98 514.90 303.72 C 528.67 302.09 538.36 294.08 548.82 285.81 C 561.61 275.67 573.51 264.57 585.45 253.46 C 602.19 236.90 619.28 220.48 634.75 202.73 C 637.97 199.30 642.02 197.07 646.43 195.55 C 655.88 192.37 666.28 192.37 675.45 196.52 Z" fill="#cecece" />
<path d="M 805.35 237.17 C 811.20 240.83 816.11 246.17 821.32 250.68 C 841.52 270.18 857.76 293.59 868.47 319.57 C 875.89 337.32 880.56 356.02 882.69 375.13 C 884.09 384.10 883.76 392.95 883.79 402.00 C 883.82 412.24 882.23 422.56 880.56 432.64 C 872.47 477.81 848.33 519.67 813.56 549.58 C 810.90 551.91 808.32 554.25 805.23 556.02 C 801.34 551.08 798.13 545.62 794.53 540.46 C 791.39 535.59 787.87 530.95 785.00 525.93 C 790.01 520.60 795.91 516.24 800.81 510.78 C 823.11 487.50 838.29 457.75 844.00 426.02 C 848.39 401.19 847.27 375.12 840.13 350.90 C 831.71 321.45 814.81 294.45 792.05 273.97 C 789.62 271.74 787.04 269.84 785.07 267.16 C 789.22 260.36 793.88 253.88 798.26 247.23 C 800.58 243.88 802.65 240.23 805.35 237.17 Z" fill="#cecece" />
<path d="M 763.91 298.90 C 772.42 305.16 779.34 313.94 785.67 322.32 C 795.60 336.48 802.97 352.68 806.46 369.64 C 811.08 390.51 810.22 412.62 804.06 433.08 C 797.11 456.88 782.82 478.60 763.93 494.62 C 760.21 490.04 757.36 484.92 753.93 480.10 C 750.41 474.70 746.45 469.56 743.28 463.96 C 747.05 459.47 751.20 455.38 754.61 450.58 C 767.70 433.04 773.85 410.78 772.06 389.00 C 770.46 370.84 763.32 353.29 751.88 339.10 C 749.09 335.58 745.70 332.89 743.24 329.12 C 746.93 323.24 751.03 317.63 754.85 311.83 C 757.87 307.56 760.42 302.76 763.91 298.90 Z" fill="#cecece" /></svg>