<?xml version="1.0" encoding="UTF-8" standalone="no"?>
<svg
   xmlns:dc="http://purl.org/dc/elements/1.1/"
   xmlns:cc="http://creativecommons.org/ns#"
   xmlns:rdf="http://www.w3.org/1999/02/22-rdf-syntax-ns#"
   xmlns:svg="http://www.w3.org/2000/svg"
   xmlns="http://www.w3.org/2000/svg"
   xmlns:sodipodi="http://sodipodi.sourceforge.net/DTD/sodipodi-0.dtd"
   xmlns:inkscape="http://www.inkscape.org/namespaces/inkscape"
   viewBox="0 0 1024 1024"
   height="1024.0pt"
   width="1024.0pt"
   version="1.1"
   id="svg7707"
   sodipodi:docname="Flag Notification.svg"
   inkscape:version="0.92.2 (5c3e80d, 2017-08-06)">
  <metadata
     id="metadata7713">
    <rdf:RDF>
      <cc:Work
         rdf:about="">
        <dc:format>image/svg+xml</dc:format>
        <dc:type
           rdf:resource="http://purl.org/dc/dcmitype/StillImage" />
        <dc:title></dc:title>
      </cc:Work>
    </rdf:RDF>
  </metadata>
  <defs
     id="defs7711" />
  <sodipodi:namedview
     pagecolor="#ffffff"
     bordercolor="#666666"
     borderopacity="1"
     objecttolerance="10"
     gridtolerance="10"
     guidetolerance="10"
     inkscape:pageopacity="0"
     inkscape:pageshadow="2"
     inkscape:window-width="716"
     inkscape:window-height="480"
     id="namedview7709"
     showgrid="false"
     inkscape:pagecheckerboard="true"
     inkscape:zoom="0.17285156"
     inkscape:cx="682.66667"
     inkscape:cy="682.66667"
     inkscape:window-x="0"
     inkscape:window-y="0"
     inkscape:window-maximized="0"
     inkscape:current-layer="svg7707" />
  <path
     d="M 0.00 0.00 L 1024.00 0.00 L 1024.00 1024.00 L 0.00 1024.00 L 0.00 0.00 Z"
     fill="#fefefe"
     id="path7699"
     style="opacity:0" />
  <path
     d="M 666.44 26.57 C 710.22 40.51 752.11 60.26 790.55 85.45 C 849.68 123.90 900.55 174.81 939.07 233.91 C 969.67 281.03 992.71 333.26 1006.29 387.80 C 1021.85 449.10 1025.76 513.28 1017.77 576.01 C 1007.66 656.46 978.08 734.25 932.03 801.00 C 897.28 851.62 853.23 895.80 802.81 930.82 C 762.41 958.82 718.05 980.98 671.34 996.30 C 613.70 1015.24 552.63 1023.83 492.01 1021.40 C 428.99 1018.87 366.47 1004.56 308.66 979.33 C 227.83 944.19 156.51 887.78 103.94 817.03 C 73.71 776.75 49.67 731.72 32.63 684.35 C 7.49 614.42 -2.09 539.00 4.88 465.01 C 11.77 390.06 35.62 316.82 74.07 252.13 C 104.91 199.94 145.35 153.52 192.49 115.45 C 257.82 62.84 336.03 26.58 418.57 11.44 C 500.81 -4.22 586.68 1.23 666.44 26.57 Z"
     fill="#e8e4e9"
     id="path7701" />
  <path
     d="M 293.00 235.78 C 300.33 235.87 307.68 235.59 315.00 235.90 C 325.73 236.51 335.50 243.23 340.07 252.93 C 343.54 260.13 343.28 267.22 343.19 275.00 C 343.18 432.33 343.19 589.67 343.18 747.00 C 343.15 753.45 343.62 759.56 341.84 765.85 C 339.20 775.39 331.65 783.26 322.24 786.31 C 317.22 788.02 312.23 787.70 307.00 787.75 C 298.66 787.68 290.31 787.84 281.97 787.68 C 270.00 787.33 259.08 779.09 255.13 767.83 C 252.90 761.84 253.47 756.24 253.42 750.00 C 253.43 591.33 253.43 432.67 253.42 274.00 C 253.49 268.12 252.96 262.46 254.75 256.80 C 257.62 247.94 264.63 240.47 273.50 237.45 C 279.77 235.18 286.45 235.86 293.00 235.78 Z"
     fill="#b8b6b9"
     id="path7703" />
  <path
     d="M 520.30 247.70 C 534.13 251.66 546.84 258.81 557.27 268.75 C 570.17 280.84 579.87 297.68 589.76 312.26 C 596.72 322.13 603.80 331.27 614.13 337.86 C 625.51 345.38 638.53 347.98 652.00 348.22 C 662.03 347.93 672.03 346.89 681.83 344.72 C 704.65 339.80 727.09 331.67 748.52 322.48 C 751.97 321.07 755.22 319.89 758.98 320.96 C 765.51 322.92 769.76 329.20 769.66 335.95 C 769.70 418.96 769.65 501.99 769.69 585.01 C 769.80 593.84 766.03 602.54 759.07 608.07 C 753.54 612.40 746.28 615.09 739.86 617.87 C 719.50 626.43 696.28 633.76 674.00 632.83 C 658.46 632.68 643.21 627.45 630.66 618.32 C 623.06 612.96 616.34 605.79 610.12 598.90 C 595.73 581.91 584.23 562.79 568.51 546.49 C 559.27 537.10 548.80 529.29 536.41 524.59 C 517.97 517.66 498.60 518.52 479.63 522.57 C 451.22 528.98 424.34 542.03 398.96 555.98 C 392.34 559.61 384.07 557.06 380.37 550.59 C 377.72 546.19 378.32 541.90 378.26 537.00 C 378.26 453.67 378.26 370.33 378.26 287.00 C 378.29 283.13 378.08 278.84 379.05 275.08 C 380.91 267.94 385.40 261.57 391.82 257.85 C 394.69 256.22 398.03 255.22 401.20 254.36 C 420.26 249.54 439.46 245.78 459.03 243.76 C 479.20 241.92 500.72 241.93 520.30 247.70 Z"
     fill="#b8b6b9"
     id="path7705" />
</svg>
