<?xml version="1.0" encoding="UTF-8" standalone="no"?>
<svg
   xmlns:dc="http://purl.org/dc/elements/1.1/"
   xmlns:cc="http://creativecommons.org/ns#"
   xmlns:rdf="http://www.w3.org/1999/02/22-rdf-syntax-ns#"
   xmlns:svg="http://www.w3.org/2000/svg"
   xmlns="http://www.w3.org/2000/svg"
   xmlns:sodipodi="http://sodipodi.sourceforge.net/DTD/sodipodi-0.dtd"
   xmlns:inkscape="http://www.inkscape.org/namespaces/inkscape"
   viewBox="0 0 1024 1024"
   height="1024.0pt"
   width="1024.0pt"
   version="1.1"
   id="svg8874"
   sodipodi:docname="Moderator Notification.svg"
   inkscape:version="0.92.2 (5c3e80d, 2017-08-06)">
  <metadata
     id="metadata8880">
    <rdf:RDF>
      <cc:Work
         rdf:about="">
        <dc:format>image/svg+xml</dc:format>
        <dc:type
           rdf:resource="http://purl.org/dc/dcmitype/StillImage" />
        <dc:title></dc:title>
      </cc:Work>
    </rdf:RDF>
  </metadata>
  <defs
     id="defs8878" />
  <sodipodi:namedview
     pagecolor="#ffffff"
     bordercolor="#666666"
     borderopacity="1"
     objecttolerance="10"
     gridtolerance="10"
     guidetolerance="10"
     inkscape:pageopacity="0"
     inkscape:pageshadow="2"
     inkscape:window-width="716"
     inkscape:window-height="480"
     id="namedview8876"
     showgrid="false"
     inkscape:pagecheckerboard="true"
     inkscape:zoom="0.17285156"
     inkscape:cx="682.66667"
     inkscape:cy="682.66667"
     inkscape:window-x="0"
     inkscape:window-y="0"
     inkscape:window-maximized="0"
     inkscape:current-layer="svg8874" />
  <path
     d="M 0.00 0.00 L 1024.00 0.00 L 1024.00 1024.00 L 0.00 1024.00 L 0.00 0.00 Z"
     fill="#fefefe"
     id="path8864"
     style="opacity:0" />
  <path
     d="M 492.00 3.21 C 508.02 2.32 523.88 2.70 539.88 3.48 C 593.01 6.46 645.60 17.57 695.23 36.79 C 748.19 57.04 797.64 86.48 840.97 123.03 C 884.91 160.18 922.54 204.70 951.61 254.37 C 975.28 294.88 993.51 338.42 1005.20 383.88 C 1021.43 445.70 1025.76 510.57 1017.94 574.01 C 1010.13 638.00 990.05 700.51 959.03 757.03 C 943.40 785.45 925.14 812.48 904.38 837.41 C 865.61 884.33 818.16 924.14 765.34 954.37 C 719.24 980.81 668.97 999.89 616.96 1010.82 C 549.16 1025.09 478.53 1025.36 410.65 1011.44 C 353.33 999.83 298.14 978.18 248.12 947.89 C 165.36 897.87 97.52 823.83 55.03 736.96 C 25.71 677.46 8.23 612.19 3.88 546.00 C -0.29 483.63 7.18 420.47 25.78 360.79 C 45.23 298.35 76.72 239.78 118.21 189.22 C 148.88 151.88 184.76 118.92 224.67 91.68 C 303.15 37.82 396.88 6.78 492.00 3.21 Z"
     fill="#e4e3e4"
     id="path8866" />
  <path
     d="M 518.59 148.38 C 527.73 152.16 532.85 162.43 530.10 172.00 C 528.51 178.19 524.17 182.01 518.95 185.25 C 530.10 205.29 541.62 225.13 552.85 245.13 C 554.37 247.89 556.00 250.56 557.72 253.20 C 564.06 247.85 570.08 242.16 576.46 236.87 C 574.23 232.31 571.74 228.62 573.36 223.28 C 575.00 216.75 581.56 212.59 588.15 213.60 C 595.79 214.65 601.07 222.53 599.10 229.99 C 598.03 235.02 594.34 237.34 590.24 239.81 C 592.00 247.98 594.08 256.18 596.29 264.23 C 604.73 258.12 612.67 251.26 620.92 244.89 C 623.41 242.97 625.82 241.00 628.18 238.93 C 626.00 235.11 623.97 231.55 623.82 227.02 C 623.20 217.72 629.67 208.89 638.70 206.66 C 647.74 204.31 657.68 208.88 661.57 217.41 C 665.74 226.00 662.98 236.71 655.15 242.16 C 651.61 244.88 647.58 244.90 643.70 246.59 C 642.64 249.75 642.19 253.14 641.45 256.39 C 636.72 277.98 632.00 299.58 627.30 321.17 C 626.32 325.79 625.40 330.40 624.15 334.95 C 611.10 334.98 598.05 335.15 585.00 335.13 C 523.32 335.15 461.62 335.48 399.95 335.42 C 392.79 305.70 386.06 275.85 378.75 246.16 C 374.28 245.20 370.16 244.46 366.53 241.44 C 359.14 235.55 356.94 224.80 361.52 216.51 C 365.69 208.41 375.43 204.36 384.17 206.76 C 392.78 208.96 398.94 217.14 398.85 226.01 C 398.99 230.82 396.82 234.49 394.94 238.73 C 403.73 245.41 412.65 251.92 421.41 258.64 C 423.97 260.66 426.59 262.51 429.36 264.23 C 431.15 256.21 433.35 248.19 434.82 240.11 C 432.96 238.35 430.39 237.22 428.66 235.34 C 424.67 230.64 424.57 223.24 428.48 218.45 C 432.03 214.02 438.34 212.20 443.65 214.37 C 449.53 216.44 452.99 222.94 451.97 229.01 C 451.51 232.04 449.45 234.66 447.79 237.17 C 452.90 243.54 458.47 249.56 463.92 255.64 C 468.23 248.32 472.22 240.82 476.45 233.45 C 485.29 217.37 494.59 201.51 503.22 185.32 C 499.57 183.02 496.15 180.89 493.97 177.00 C 489.20 169.44 490.49 159.07 496.78 152.77 C 502.35 147.02 511.21 145.20 518.59 148.38 Z"
     fill="#b8b6b9"
     id="path8868" />
  <path
     d="M 400.40 375.54 C 474.98 375.53 549.59 375.45 624.16 375.58 C 624.27 383.13 624.34 390.62 623.51 398.14 C 623.37 406.43 622.84 414.71 622.87 423.00 C 622.77 432.04 626.54 439.81 627.19 448.98 C 627.44 454.83 628.76 460.21 628.38 466.00 C 627.52 475.45 626.36 484.79 623.92 493.98 C 617.61 515.20 605.50 535.17 588.87 549.87 C 582.27 555.17 575.95 560.59 568.31 564.39 C 560.98 569.18 552.87 571.80 544.64 574.60 C 538.12 576.78 531.56 577.60 524.82 578.82 C 519.79 579.70 515.06 579.28 510.00 579.36 C 499.26 579.84 487.96 577.00 477.64 574.18 C 457.47 567.51 438.51 555.55 424.84 539.17 C 420.35 534.17 416.11 529.03 412.85 523.13 C 407.60 513.98 402.60 504.09 400.12 493.79 C 398.94 489.22 397.74 484.69 397.02 480.02 C 395.71 472.93 396.44 465.37 396.22 458.00 C 395.98 450.41 397.59 443.34 399.19 435.99 C 401.04 427.91 399.72 419.85 400.71 411.46 C 401.52 404.88 400.29 398.56 400.36 392.00 C 400.36 386.51 400.36 381.03 400.40 375.54 Z"
     fill="#b8b6b9"
     id="path8870" />
  <path
     d="M 397.00 629.97 C 401.29 629.58 405.69 629.79 410.00 629.77 C 478.00 629.76 546.00 629.77 614.00 629.76 C 633.44 629.10 653.31 634.06 670.97 642.01 C 683.17 648.32 695.66 655.82 705.25 665.77 C 709.56 670.40 714.47 674.57 718.41 679.51 C 724.14 687.04 729.39 694.90 733.33 703.53 C 737.09 710.33 739.50 717.60 741.88 724.96 C 745.01 735.14 746.19 745.45 747.35 755.99 C 748.02 764.09 746.50 771.62 745.74 779.73 C 743.55 790.74 741.29 802.73 735.74 812.60 C 592.87 812.68 449.88 812.61 307.00 812.63 C 300.60 812.59 294.22 812.75 287.82 812.53 C 285.50 808.01 284.06 803.22 282.53 798.40 C 276.98 781.05 275.82 762.78 277.73 744.73 C 279.66 733.06 282.35 721.10 287.31 710.31 C 291.73 700.97 296.53 691.14 302.88 682.93 C 307.40 677.42 311.73 671.83 316.95 666.95 C 327.13 657.32 338.49 649.07 351.22 643.13 C 365.56 635.53 380.99 631.91 397.00 629.97 Z"
     fill="#b8b6b9"
     id="path8872" />
</svg>
