<?xml version="1.0" encoding="UTF-8" standalone="no"?>
<svg
   xmlns:dc="http://purl.org/dc/elements/1.1/"
   xmlns:cc="http://creativecommons.org/ns#"
   xmlns:rdf="http://www.w3.org/1999/02/22-rdf-syntax-ns#"
   xmlns:svg="http://www.w3.org/2000/svg"
   xmlns="http://www.w3.org/2000/svg"
   xmlns:sodipodi="http://sodipodi.sourceforge.net/DTD/sodipodi-0.dtd"
   xmlns:inkscape="http://www.inkscape.org/namespaces/inkscape"
   viewBox="0 0 1024 1024"
   height="1024.0pt"
   width="1024.0pt"
   version="1.1"
   id="svg9449"
   sodipodi:docname="User Notification.svg"
   inkscape:version="0.92.2 (5c3e80d, 2017-08-06)">
  <metadata
     id="metadata9455">
    <rdf:RDF>
      <cc:Work
         rdf:about="">
        <dc:format>image/svg+xml</dc:format>
        <dc:type
           rdf:resource="http://purl.org/dc/dcmitype/StillImage" />
        <dc:title></dc:title>
      </cc:Work>
    </rdf:RDF>
  </metadata>
  <defs
     id="defs9453" />
  <sodipodi:namedview
     pagecolor="#ffffff"
     bordercolor="#666666"
     borderopacity="1"
     objecttolerance="10"
     gridtolerance="10"
     guidetolerance="10"
     inkscape:pageopacity="0"
     inkscape:pageshadow="2"
     inkscape:window-width="716"
     inkscape:window-height="480"
     id="namedview9451"
     showgrid="false"
     inkscape:pagecheckerboard="true"
     inkscape:zoom="0.17285156"
     inkscape:cx="682.66667"
     inkscape:cy="682.66667"
     inkscape:window-x="0"
     inkscape:window-y="0"
     inkscape:window-maximized="0"
     inkscape:current-layer="svg9449" />
  <path
     d="M 0.00 0.00 L 1024.00 0.00 L 1024.00 1024.00 L 0.00 1024.00 L 0.00 0.00 Z"
     fill="#fefefe"
     id="path9441"
     style="opacity:0" />
  <path
     d="M 695.94 37.04 C 775.78 67.76 847.44 119.05 902.38 184.60 C 939.85 229.04 969.23 279.95 989.68 334.33 C 1008.66 385.75 1019.61 439.97 1021.41 494.78 C 1022.24 509.88 1021.67 524.92 1020.97 540.00 C 1017.47 603.80 1001.88 667.07 975.09 725.08 C 934.57 813.58 868.12 889.77 785.94 941.93 C 724.12 981.40 653.71 1007.19 581.03 1017.05 C 496.67 1028.70 409.50 1018.51 330.01 987.98 C 250.72 957.69 179.31 907.33 124.42 842.57 C 57.42 764.33 15.33 665.42 5.29 562.91 C 2.75 539.99 2.59 517.02 3.04 494.00 C 5.23 435.27 17.44 376.95 39.44 322.43 C 62.31 265.36 95.59 212.47 137.30 167.29 C 179.24 121.59 229.62 83.82 285.11 56.13 C 325.50 36.12 368.32 21.31 412.56 12.62 C 506.84 -6.36 606.31 2.21 695.94 37.04 Z"
     fill="#e4e3e5"
     id="path9443" />
  <path
     d="M 517.95 232.65 C 532.43 234.17 546.26 236.29 559.67 242.25 C 572.09 246.55 583.60 254.05 593.98 262.01 C 599.62 267.12 605.49 271.77 610.29 277.70 C 618.46 285.98 624.32 295.88 630.11 305.91 C 633.31 312.30 635.63 319.15 638.32 325.77 C 641.24 335.17 643.39 344.97 644.13 354.81 C 646.31 369.39 643.47 385.15 640.18 399.41 C 633.85 422.31 621.42 443.77 604.36 460.36 C 599.17 465.72 593.33 469.87 587.47 474.47 C 581.79 478.63 575.42 481.86 569.32 485.36 C 550.83 494.02 530.52 499.27 510.00 498.42 C 496.14 499.02 483.14 495.76 469.97 491.85 C 455.15 486.64 441.16 478.87 428.80 469.18 C 423.37 464.25 417.85 459.51 413.13 453.87 C 401.07 441.34 392.98 426.37 386.62 410.31 C 384.45 404.93 383.42 399.41 382.01 393.81 C 380.31 386.93 378.96 380.13 379.04 373.00 C 379.22 363.55 378.42 354.45 380.49 345.12 C 382.40 332.98 386.20 321.37 391.17 310.15 C 393.21 305.72 395.93 301.59 398.26 297.30 C 402.00 290.38 406.92 285.03 411.81 278.79 C 423.48 265.17 438.20 254.04 454.37 246.32 C 467.80 239.32 483.02 235.47 497.99 233.62 C 504.59 232.26 511.25 232.34 517.95 232.65 Z"
     fill="#b8b6b9"
     id="path9445" />
  <path
     d="M 391.00 556.41 C 471.33 556.41 551.67 556.40 632.00 556.41 C 638.76 556.35 645.33 556.17 652.03 557.35 C 667.54 560.44 683.62 565.01 697.73 572.29 C 710.46 579.37 723.83 587.43 733.71 598.28 C 739.19 604.08 745.04 608.79 749.67 615.36 C 754.62 622.38 759.88 629.70 763.48 637.48 C 765.76 642.43 768.57 647.18 770.52 652.27 C 774.09 662.30 777.25 672.32 778.83 682.88 C 780.33 694.23 782.24 704.99 780.46 716.48 C 779.35 730.24 776.30 743.92 771.87 756.98 C 770.82 760.11 769.51 762.79 767.55 765.44 C 761.69 765.87 755.87 765.50 750.00 765.58 C 591.00 765.59 432.00 765.59 273.00 765.58 C 267.13 765.49 261.34 765.89 255.49 765.40 C 252.12 760.20 251.25 754.57 249.01 748.90 C 245.01 739.40 244.25 728.21 242.97 718.03 C 242.76 709.44 242.61 700.58 243.09 692.01 C 244.97 678.16 248.00 664.15 253.32 651.19 C 257.49 641.74 262.13 632.42 267.73 623.74 C 271.92 616.90 277.60 610.95 282.69 604.68 C 295.96 590.50 311.95 578.73 329.60 570.58 C 342.97 563.63 357.28 560.23 371.95 557.28 C 378.37 556.04 384.50 556.42 391.00 556.41 Z"
     fill="#b8b6b9"
     id="path9447" />
</svg>
