<?xml version="1.0" encoding="UTF-8" standalone="no"?>
<svg
   xmlns:dc="http://purl.org/dc/elements/1.1/"
   xmlns:cc="http://creativecommons.org/ns#"
   xmlns:rdf="http://www.w3.org/1999/02/22-rdf-syntax-ns#"
   xmlns:svg="http://www.w3.org/2000/svg"
   xmlns="http://www.w3.org/2000/svg"
   xmlns:sodipodi="http://sodipodi.sourceforge.net/DTD/sodipodi-0.dtd"
   xmlns:inkscape="http://www.inkscape.org/namespaces/inkscape"
   viewBox="0 0 1024 1024"
   height="1024.0pt"
   width="1024.0pt"
   version="1.1"
   id="svg6549"
   sodipodi:docname="Branch Notification.svg"
   inkscape:version="0.92.2 (5c3e80d, 2017-08-06)">
  <metadata
     id="metadata6555">
    <rdf:RDF>
      <cc:Work
         rdf:about="">
        <dc:format>image/svg+xml</dc:format>
        <dc:type
           rdf:resource="http://purl.org/dc/dcmitype/StillImage" />
        <dc:title></dc:title>
      </cc:Work>
    </rdf:RDF>
  </metadata>
  <defs
     id="defs6553" />
  <sodipodi:namedview
     pagecolor="#ffffff"
     bordercolor="#666666"
     borderopacity="1"
     objecttolerance="10"
     gridtolerance="10"
     guidetolerance="10"
     inkscape:pageopacity="0"
     inkscape:pageshadow="2"
     inkscape:window-width="716"
     inkscape:window-height="480"
     id="namedview6551"
     showgrid="false"
     inkscape:pagecheckerboard="true"
     inkscape:zoom="0.17285156"
     inkscape:cx="682.66667"
     inkscape:cy="682.66667"
     inkscape:window-x="0"
     inkscape:window-y="0"
     inkscape:window-maximized="0"
     inkscape:current-layer="svg6549" />
  <path
     d="M 0.00 0.00 L 1024.00 0.00 L 1024.00 1024.00 L 0.00 1024.00 L 0.00 0.00 Z"
     fill="#fdfdfd"
     id="path6543"
     style="opacity:0" />
  <path
     d="M 704.57 40.44 C 775.43 69.20 839.61 114.38 890.77 171.21 C 927.66 212.05 957.69 258.94 979.60 309.42 C 1012.34 384.72 1026.56 468.11 1020.35 550.00 C 1016.39 603.12 1004.03 655.58 983.91 704.91 C 962.31 757.85 931.67 807.00 893.83 849.86 C 849.21 900.27 794.59 941.71 733.95 970.96 C 668.34 1002.76 595.89 1020.08 523.00 1021.65 C 444.37 1023.34 365.34 1006.46 294.28 972.74 C 208.27 932.20 134.24 867.09 83.14 786.89 C 37.46 715.82 10.08 633.26 4.05 549.00 C -1.13 477.76 8.87 405.41 33.34 338.30 C 55.46 277.39 89.21 220.74 132.52 172.51 C 175.04 124.90 226.68 85.39 283.77 56.83 C 339.36 28.82 400.04 11.36 461.97 5.22 C 544.07 -3.07 628.20 9.19 704.57 40.44 Z"
     fill="#e6e5e8"
     id="path6545" />
  <path
     d="M 513.00 210.08 C 528.55 210.52 543.04 220.62 549.14 234.89 C 552.10 241.26 552.87 248.04 552.64 255.00 C 552.58 286.67 552.65 318.33 552.61 350.00 C 552.64 353.60 552.28 357.40 552.93 360.95 C 555.09 364.54 558.83 367.26 561.69 370.31 C 606.70 415.30 651.80 460.22 696.81 505.20 C 701.41 509.61 705.70 514.28 710.05 518.95 C 714.34 523.54 716.97 529.61 718.27 535.71 C 719.31 541.31 719.08 547.31 719.11 553.00 C 719.08 610.98 719.13 669.03 719.08 727.00 C 719.12 735.58 716.64 743.74 711.78 750.80 C 704.06 762.12 690.71 769.06 676.98 768.65 C 660.82 768.63 645.75 758.30 639.55 743.44 C 636.99 737.57 636.14 731.37 636.33 725.00 C 636.42 676.33 636.31 627.66 636.39 579.00 C 636.39 572.84 635.40 566.77 632.83 561.15 C 630.28 555.12 624.71 550.51 620.25 545.74 C 602.10 527.57 583.89 509.44 565.71 491.30 C 561.44 487.02 557.36 482.61 552.73 478.72 C 552.62 482.81 552.58 486.90 552.61 491.00 C 552.62 585.34 552.62 679.67 552.61 774.01 C 552.57 790.66 541.67 806.20 526.14 812.11 C 509.78 818.68 490.29 813.35 479.21 799.77 C 473.01 792.20 469.84 782.76 469.76 773.01 C 469.72 674.75 469.79 576.31 469.72 478.06 C 448.29 499.51 426.97 521.08 405.52 542.52 C 402.05 546.04 398.46 549.47 395.15 553.15 C 390.70 558.04 388.07 564.30 386.90 570.75 C 386.13 575.72 386.46 580.97 386.42 586.00 C 386.43 630.33 386.41 674.67 386.42 719.00 C 386.56 726.84 386.78 734.31 383.84 741.76 C 378.22 757.82 362.01 769.03 345.00 768.65 C 327.71 768.86 311.77 756.91 306.45 740.58 C 303.70 733.33 304.57 726.57 304.47 719.00 C 304.45 660.01 304.51 600.98 304.44 542.00 C 304.37 535.48 306.44 529.28 309.72 523.71 C 312.10 519.73 315.22 516.75 318.42 513.45 C 366.72 464.39 415.34 415.72 463.92 366.93 C 466.30 364.28 470.09 362.08 469.75 358.05 C 469.75 323.04 469.77 288.00 469.73 253.00 C 469.76 244.85 471.50 236.85 475.84 229.88 C 483.36 217.18 498.27 209.24 513.00 210.08 Z"
     fill="#b8b6b9"
     id="path6547" />
</svg>
